<svg width="1920" height="5310" viewBox="0 0 1920 5310" fill="none" xmlns="http://www.w3.org/2000/svg">
<g clip-path="url(#clip0_3035_42142)">
<rect width="1920" height="5310" fill="#121016"/>
<g filter="url(#filter0_f_3035_42142)">
<path d="M1198 738.186C1198 902.675 875.051 1378 596.095 1378C317.139 1378 91 1244.66 91 1080.17C91 915.68 317.139 782.336 596.095 782.336C875.051 782.336 1198 573.698 1198 738.186Z" fill="#9470E0"/>
</g>
<g filter="url(#filter1_f_3035_42142)">
<path d="M-146.5 1673C71.3867 1728.4 2048.02 1661.49 2252 1580.5C2649.69 1422.59 1849.67 262.283 1231.5 174.5C812.5 115 589.5 837 -146.5 837C-435.789 837 -478.019 1588.7 -146.5 1673Z" fill="url(#paint0_radial_3035_42142)"/>
</g>
<g filter="url(#filter2_f_3035_42142)">
<path d="M-72.0001 1517C80.9528 1555.89 2148.4 1593.6 2296.5 1547C2917.92 1351.48 1566 373 1253 361C814.803 344.2 528 886.5 -103 824.5C-325.693 802.619 -304.722 1457.82 -72.0001 1517Z" fill="url(#paint1_radial_3035_42142)" fill-opacity="0.04"/>
</g>
<g filter="url(#filter3_f_3035_42142)">
<path d="M-87.4993 1640C56.2339 1649.15 2020.05 1664.72 2162 1654C2901.62 1598.14 1759.88 518.046 1365.5 461C833.62 384.064 662.001 1058 -219.999 807C-415.734 751.297 -634.131 1605.18 -87.4993 1640Z" fill="url(#paint2_radial_3035_42142)" fill-opacity="0.2"/>
</g>
<g filter="url(#filter4_f_3035_42142)">
<path d="M-70.4996 1606.5C65.7876 1602.36 1935.88 1604.46 2006.5 1491.5C2290 1038 1667 487.5 1234 487.5C496.388 487.5 733.5 1161 -182 882C-365.795 825.988 -705.325 1625.8 -70.4996 1606.5Z" fill="url(#paint3_radial_3035_42142)" fill-opacity="0.8"/>
</g>
<g filter="url(#filter5_f_3035_42142)">
<path d="M-137.001 1610.5C-9.7846 1642.85 2074.45 1649.08 2195 1598.5C2916 1296 1807.5 566.029 1248 539C688.5 511.971 855 1034 -108.5 928.5C-276.419 910.113 -330.564 1561.28 -137.001 1610.5Z" fill="url(#paint4_radial_3035_42142)"/>
</g>
<g filter="url(#filter6_f_3035_42142)">
<path d="M-99.9995 1557.5C118.754 1613.13 2078.89 1768.89 2238 1616.5C2593 1276.5 2021 287.702 1187 254.5C750.001 237.103 675.501 989 -158.999 824.5C-444.005 768.319 -432.838 1472.86 -99.9995 1557.5Z" fill="url(#paint5_radial_3035_42142)" fill-opacity="0.08"/>
</g>
<g filter="url(#filter7_f_3035_42142)">
<path d="M2487 1733C2614.21 1765.35 2221.13 1248.82 2140 1149.5C1917 876.5 1730 662.5 1281.5 662.5C833 662.5 609 1173 -168 926.5C-252.324 899.748 -148.592 1671.64 -192.5 1733C-290.754 1870.3 2293.44 1683.78 2487 1733Z" fill="url(#paint6_radial_3035_42142)"/>
</g>
<path d="M845.091 483.861C844.678 483.885 844.323 483.569 844.3 483.155C844.276 482.742 844.593 482.387 845.006 482.364C845.42 482.34 845.774 482.657 845.797 483.07C845.821 483.484 845.505 483.838 845.091 483.861Z" fill="#DFD2FF" fill-opacity="0.1"/>
<path d="M1166.15 643.226C1165.74 643.25 1165.38 642.933 1165.36 642.52C1165.33 642.106 1165.65 641.752 1166.06 641.729C1166.48 641.705 1166.83 642.021 1166.86 642.435C1166.88 642.848 1166.56 643.203 1166.15 643.226Z" fill="#DFD2FF" fill-opacity="0.1"/>
<path d="M1644.39 855.842C1644.03 855.637 1643.91 855.179 1644.11 854.819C1644.32 854.459 1644.77 854.333 1645.13 854.538C1645.49 854.742 1645.62 855.2 1645.42 855.56C1645.21 855.92 1644.75 856.046 1644.39 855.842Z" fill="#DFD2FF" fill-opacity="0.1"/>
<path d="M1439.07 510.293C1438.66 510.317 1438.31 510 1438.28 509.587C1438.26 509.173 1438.57 508.819 1438.99 508.795C1439.4 508.772 1439.76 509.088 1439.78 509.502C1439.8 509.915 1439.49 510.27 1439.07 510.293Z" fill="#DFD2FF" fill-opacity="0.1"/>
<path d="M1445.08 664.694C1444.66 664.718 1444.31 664.402 1444.28 663.988C1444.26 663.575 1444.58 663.22 1444.99 663.197C1445.4 663.173 1445.76 663.49 1445.78 663.903C1445.81 664.317 1445.49 664.671 1445.08 664.694Z" fill="#DFD2FF" fill-opacity="0.1"/>
<path d="M1497.83 693.477C1497.42 693.5 1497.06 693.184 1497.04 692.77C1497.02 692.357 1497.33 692.003 1497.75 691.979C1498.16 691.956 1498.51 692.272 1498.54 692.685C1498.56 693.099 1498.24 693.453 1497.83 693.477Z" fill="#DFD2FF" fill-opacity="0.1"/>
<path d="M758.742 477.667C758.329 477.691 757.975 477.374 757.951 476.961C757.928 476.547 758.244 476.193 758.657 476.169C759.071 476.146 759.425 476.462 759.449 476.876C759.472 477.289 759.156 477.644 758.742 477.667Z" fill="#DFD2FF" fill-opacity="0.1"/>
<path d="M932.624 426.093C932.211 426.117 931.856 425.801 931.833 425.387C931.81 424.973 932.126 424.619 932.539 424.596C932.953 424.572 933.307 424.888 933.331 425.302C933.354 425.716 933.038 426.07 932.624 426.093Z" fill="#DFD2FF" fill-opacity="0.1"/>
<path d="M1098.55 414.01C1098.13 414.034 1097.78 413.718 1097.75 413.304C1097.73 412.89 1098.05 412.536 1098.46 412.513C1098.87 412.489 1099.23 412.805 1099.25 413.219C1099.27 413.633 1098.96 413.987 1098.55 414.01Z" fill="#DFD2FF" fill-opacity="0.1"/>
<path d="M1416.79 473.617C1416.38 473.64 1416.02 473.324 1416 472.91C1415.97 472.497 1416.29 472.143 1416.7 472.119C1417.12 472.096 1417.47 472.412 1417.5 472.825C1417.52 473.239 1417.2 473.593 1416.79 473.617Z" fill="#DFD2FF" fill-opacity="0.1"/>
<path d="M1509.26 748.784C1508.85 748.807 1508.49 748.491 1508.47 748.077C1508.45 747.664 1508.76 747.31 1509.18 747.286C1509.59 747.263 1509.94 747.579 1509.97 747.992C1509.99 748.406 1509.67 748.76 1509.26 748.784Z" fill="#DFD2FF" fill-opacity="0.1"/>
<path d="M1516.12 443.745C1515.71 443.769 1515.35 443.452 1515.33 443.039C1515.31 442.625 1515.62 442.271 1516.04 442.248C1516.45 442.224 1516.8 442.54 1516.83 442.954C1516.85 443.367 1516.53 443.722 1516.12 443.745Z" fill="#DFD2FF" fill-opacity="0.1"/>
<path d="M1562.41 602.077C1562 602.1 1561.65 601.784 1561.62 601.37C1561.6 600.957 1561.91 600.603 1562.33 600.579C1562.74 600.556 1563.1 600.872 1563.12 601.285C1563.14 601.699 1562.83 602.053 1562.41 602.077Z" fill="#DFD2FF" fill-opacity="0.1"/>
<path d="M1548.28 523.436C1547.86 523.459 1547.51 523.143 1547.49 522.729C1547.46 522.316 1547.78 521.961 1548.19 521.938C1548.61 521.915 1548.96 522.231 1548.98 522.644C1549.01 523.058 1548.69 523.412 1548.28 523.436Z" fill="#DFD2FF" fill-opacity="0.1"/>
<path d="M1604.28 767.568C1603.86 767.591 1603.51 767.275 1603.49 766.862C1603.46 766.448 1603.78 766.094 1604.19 766.07C1604.61 766.047 1604.96 766.363 1604.98 766.777C1605.01 767.19 1604.69 767.544 1604.28 767.568Z" fill="#DFD2FF" fill-opacity="0.1"/>
<path d="M1884.32 845.81C1884.7 845.646 1885.15 845.821 1885.31 846.201C1885.47 846.581 1885.3 847.023 1884.92 847.187C1884.54 847.351 1884.1 847.176 1883.93 846.796C1883.77 846.416 1883.94 845.974 1884.32 845.81Z" fill="#DFD2FF" fill-opacity="0.1"/>
<path d="M625.534 689.277C625.143 689.141 624.936 688.714 625.072 688.322C625.208 687.931 625.636 687.724 626.027 687.86C626.418 687.996 626.625 688.424 626.489 688.815C626.353 689.206 625.926 689.413 625.534 689.277Z" fill="#DFD2FF" fill-opacity="0.1"/>
<path d="M430.107 668.515C429.715 668.379 429.509 667.952 429.645 667.561C429.781 667.169 430.208 666.962 430.599 667.098C430.99 667.234 431.197 667.662 431.061 668.053C430.925 668.444 430.498 668.651 430.107 668.515Z" fill="#DFD2FF" fill-opacity="0.1"/>
<path d="M351.793 949.173C351.402 949.036 351.195 948.609 351.331 948.218C351.467 947.827 351.894 947.62 352.286 947.756C352.677 947.892 352.884 948.319 352.748 948.71C352.612 949.102 352.184 949.309 351.793 949.173Z" fill="#DFD2FF" fill-opacity="0.1"/>
<path d="M595.414 625.787C595.023 625.651 594.816 625.223 594.952 624.832C595.088 624.441 595.516 624.234 595.907 624.37C596.298 624.506 596.505 624.933 596.369 625.325C596.233 625.716 595.806 625.923 595.414 625.787Z" fill="#DFD2FF" fill-opacity="0.1"/>
<path d="M540.945 754.065C540.553 753.929 540.346 753.501 540.482 753.11C540.618 752.719 541.046 752.512 541.437 752.648C541.828 752.784 542.035 753.211 541.899 753.602C541.763 753.994 541.336 754.201 540.945 754.065Z" fill="#DFD2FF" fill-opacity="0.1"/>
<path d="M231.596 1109.37C231.241 1109.59 231.127 1110.05 231.341 1110.4C231.555 1110.76 232.016 1110.87 232.37 1110.66C232.725 1110.44 232.839 1109.98 232.626 1109.63C232.412 1109.27 231.951 1109.16 231.596 1109.37Z" fill="#DFD2FF" fill-opacity="0.1"/>
<path d="M147.694 945.53C147.339 945.744 147.225 946.205 147.439 946.56C147.652 946.915 148.113 947.029 148.468 946.815C148.823 946.601 148.937 946.14 148.723 945.785C148.509 945.431 148.048 945.316 147.694 945.53Z" fill="#DFD2FF" fill-opacity="0.1"/>
<path d="M692.11 506.357C691.696 506.381 691.342 506.065 691.318 505.651C691.295 505.238 691.611 504.883 692.025 504.86C692.438 504.836 692.792 505.153 692.816 505.566C692.839 505.98 692.523 506.334 692.11 506.357Z" fill="#DFD2FF" fill-opacity="0.1"/>
<path d="M843.22 511.603C842.806 511.627 842.452 511.31 842.429 510.897C842.405 510.483 842.721 510.129 843.135 510.106C843.549 510.082 843.903 510.398 843.926 510.812C843.95 511.225 843.634 511.58 843.22 511.603Z" fill="#DFD2FF" fill-opacity="0.1"/>
<path d="M1632.33 486.91C1631.92 486.934 1631.56 486.617 1631.54 486.204C1631.52 485.79 1631.83 485.436 1632.25 485.413C1632.66 485.389 1633.02 485.705 1633.04 486.119C1633.06 486.532 1632.75 486.887 1632.33 486.91Z" fill="#DFD2FF" fill-opacity="0.1"/>
<path d="M1058.36 338.521C1057.94 338.545 1057.59 338.228 1057.57 337.815C1057.54 337.401 1057.86 337.047 1058.27 337.023C1058.69 337 1059.04 337.316 1059.06 337.73C1059.09 338.143 1058.77 338.498 1058.36 338.521Z" fill="#DFD2FF" fill-opacity="0.1"/>
<path d="M1266.7 355.599C1266.28 355.622 1265.93 355.306 1265.9 354.892C1265.88 354.479 1266.2 354.125 1266.61 354.101C1267.02 354.078 1267.38 354.394 1267.4 354.807C1267.43 355.221 1267.11 355.575 1266.7 355.599Z" fill="#DFD2FF" fill-opacity="0.1"/>
<path d="M1884.92 668.798C1884.56 668.593 1884.44 668.135 1884.64 667.775C1884.84 667.415 1885.3 667.289 1885.66 667.494C1886.02 667.698 1886.15 668.156 1885.94 668.516C1885.74 668.876 1885.28 669.002 1884.92 668.798Z" fill="#DFD2FF" fill-opacity="0.1"/>
<path d="M1320.12 389.012C1319.71 389.036 1319.35 388.72 1319.33 388.306C1319.31 387.892 1319.62 387.538 1320.04 387.515C1320.45 387.491 1320.8 387.807 1320.83 388.221C1320.85 388.635 1320.53 388.989 1320.12 389.012Z" fill="#DFD2FF" fill-opacity="0.1"/>
<path d="M1911.67 725.854C1911.31 725.649 1911.18 725.191 1911.38 724.831C1911.59 724.471 1912.05 724.345 1912.41 724.55C1912.77 724.754 1912.89 725.212 1912.69 725.572C1912.48 725.933 1912.03 726.059 1911.67 725.854Z" fill="#DFD2FF" fill-opacity="0.1"/>
<path d="M76.301 739.935C75.9097 739.799 75.7028 739.372 75.8389 738.981C75.9749 738.589 76.4023 738.382 76.7935 738.518C77.1848 738.654 77.3917 739.082 77.2557 739.473C77.1197 739.864 76.6922 740.071 76.301 739.935Z" fill="#DFD2FF" fill-opacity="0.1"/>
<path d="M288.892 706.313C288.501 706.177 288.294 705.75 288.43 705.358C288.566 704.967 288.993 704.76 289.384 704.896C289.776 705.032 289.983 705.46 289.846 705.851C289.71 706.242 289.283 706.449 288.892 706.313Z" fill="#DFD2FF" fill-opacity="0.1"/>
<path d="M117.324 510.081C116.933 509.945 116.726 509.517 116.862 509.126C116.998 508.735 117.426 508.528 117.817 508.664C118.208 508.8 118.415 509.227 118.279 509.619C118.143 510.01 117.716 510.217 117.324 510.081Z" fill="#DFD2FF" fill-opacity="0.1"/>
<path d="M470.324 528.081C469.933 527.945 469.726 527.517 469.862 527.126C469.998 526.735 470.426 526.528 470.817 526.664C471.208 526.8 471.415 527.227 471.279 527.619C471.143 528.01 470.716 528.217 470.324 528.081Z" fill="#DFD2FF" fill-opacity="0.1"/>
<path d="M606.324 410.081C605.933 409.945 605.726 409.517 605.862 409.126C605.998 408.735 606.426 408.528 606.817 408.664C607.208 408.8 607.415 409.227 607.279 409.619C607.143 410.01 606.716 410.217 606.324 410.081Z" fill="#DFD2FF" fill-opacity="0.1"/>
<path d="M856.324 387.081C855.933 386.945 855.726 386.517 855.862 386.126C855.998 385.735 856.426 385.528 856.817 385.664C857.208 385.8 857.415 386.227 857.279 386.619C857.143 387.01 856.716 387.217 856.324 387.081Z" fill="#DFD2FF" fill-opacity="0.1"/>
<path d="M1051.32 352.081C1050.93 351.945 1050.73 351.517 1050.86 351.126C1051 350.735 1051.43 350.528 1051.82 350.664C1052.21 350.8 1052.42 351.227 1052.28 351.619C1052.14 352.01 1051.72 352.217 1051.32 352.081Z" fill="#DFD2FF" fill-opacity="0.1"/>
<path d="M1202.32 348.081C1201.93 347.945 1201.73 347.517 1201.86 347.126C1202 346.735 1202.43 346.528 1202.82 346.664C1203.21 346.8 1203.42 347.227 1203.28 347.619C1203.14 348.01 1202.72 348.217 1202.32 348.081Z" fill="#DFD2FF" fill-opacity="0.1"/>
<path d="M441.506 567.081C441.115 566.945 440.908 566.517 441.044 566.126C441.18 565.735 441.607 565.528 441.999 565.664C442.39 565.8 442.597 566.227 442.461 566.619C442.325 567.01 441.897 567.217 441.506 567.081Z" fill="#DFD2FF" fill-opacity="0.1"/>
<path d="M1569.32 470.081C1568.93 469.945 1568.73 469.517 1568.86 469.126C1569 468.735 1569.43 468.528 1569.82 468.664C1570.21 468.8 1570.42 469.227 1570.28 469.619C1570.14 470.01 1569.72 470.217 1569.32 470.081Z" fill="#DFD2FF" fill-opacity="0.1"/>
<path d="M1691.32 528.081C1690.93 527.945 1690.73 527.517 1690.86 527.126C1691 526.735 1691.43 526.528 1691.82 526.664C1692.21 526.8 1692.42 527.227 1692.28 527.619C1692.14 528.01 1691.72 528.217 1691.32 528.081Z" fill="#DFD2FF" fill-opacity="0.1"/>
<path d="M1412.31 323.071C1411.59 322.82 1411.2 322.031 1411.45 321.309C1411.71 320.586 1412.49 320.204 1413.22 320.455C1413.94 320.707 1414.32 321.496 1414.07 322.218C1413.82 322.941 1413.03 323.323 1412.31 323.071Z" fill="#DFD2FF" fill-opacity="0.1"/>
<path d="M1183.02 445.22C1183.04 445.633 1182.73 445.988 1182.31 446.011C1181.9 446.035 1181.55 445.718 1181.52 445.305C1181.5 444.891 1181.81 444.537 1182.23 444.514C1182.64 444.49 1183 444.806 1183.02 445.22Z" fill="#DFD2FF" fill-opacity="0.3"/>
<path d="M1766 698.674C1765.8 699.034 1765.34 699.16 1764.98 698.955C1764.62 698.751 1764.5 698.293 1764.7 697.933C1764.91 697.573 1765.36 697.447 1765.72 697.651C1766.08 697.856 1766.21 698.314 1766 698.674Z" fill="#DFD2FF" fill-opacity="0.3"/>
<path d="M1175.03 475.495C1175.05 475.908 1174.74 476.263 1174.32 476.286C1173.91 476.31 1173.55 475.993 1173.53 475.58C1173.51 475.166 1173.82 474.812 1174.24 474.789C1174.65 474.765 1175 475.081 1175.03 475.495Z" fill="#DFD2FF" fill-opacity="0.3"/>
<path d="M1742.87 719.768C1742.66 720.128 1742.2 720.254 1741.84 720.05C1741.48 719.845 1741.36 719.387 1741.56 719.027C1741.77 718.667 1742.22 718.541 1742.58 718.746C1742.94 718.95 1743.07 719.408 1742.87 719.768Z" fill="#DFD2FF" fill-opacity="0.3"/>
<path d="M1243.49 520.848C1243.51 521.262 1243.2 521.616 1242.78 521.64C1242.37 521.663 1242.02 521.347 1241.99 520.933C1241.97 520.52 1242.28 520.166 1242.7 520.142C1243.11 520.119 1243.47 520.435 1243.49 520.848Z" fill="#DFD2FF" fill-opacity="0.3"/>
<path d="M1775.76 795.012C1775.56 795.372 1775.1 795.498 1774.74 795.294C1774.38 795.089 1774.25 794.631 1774.46 794.271C1774.66 793.911 1775.12 793.785 1775.48 793.99C1775.84 794.194 1775.97 794.652 1775.76 795.012Z" fill="#DFD2FF" fill-opacity="0.3"/>
<path d="M1200.37 585.958C1200.4 586.371 1200.08 586.726 1199.67 586.749C1199.25 586.773 1198.9 586.456 1198.87 586.043C1198.85 585.629 1199.17 585.275 1199.58 585.251C1199.99 585.228 1200.35 585.544 1200.37 585.958Z" fill="#DFD2FF" fill-opacity="0.3"/>
<path d="M1704.21 826.307C1704.01 826.667 1703.55 826.793 1703.19 826.589C1702.83 826.384 1702.71 825.926 1702.91 825.566C1703.12 825.206 1703.57 825.08 1703.93 825.285C1704.29 825.489 1704.42 825.947 1704.21 826.307Z" fill="#DFD2FF" fill-opacity="0.3"/>
<path d="M1280.67 552.384C1280.7 552.798 1280.38 553.152 1279.97 553.176C1279.55 553.199 1279.2 552.883 1279.18 552.469C1279.15 552.056 1279.47 551.702 1279.88 551.678C1280.3 551.655 1280.65 551.971 1280.67 552.384Z" fill="#DFD2FF" fill-opacity="0.3"/>
<path d="M1789.88 841.679C1789.68 842.039 1789.22 842.165 1788.86 841.961C1788.5 841.756 1788.37 841.298 1788.58 840.938C1788.78 840.578 1789.24 840.452 1789.6 840.657C1789.96 840.861 1790.09 841.319 1789.88 841.679Z" fill="#DFD2FF" fill-opacity="0.3"/>
<path d="M1379.14 546.794C1379.17 547.208 1378.85 547.562 1378.44 547.585C1378.02 547.609 1377.67 547.293 1377.65 546.879C1377.62 546.466 1377.94 546.111 1378.35 546.088C1378.76 546.064 1379.12 546.381 1379.14 546.794Z" fill="#DFD2FF" fill-opacity="0.3"/>
<path d="M1875.63 890.414C1875.42 890.774 1874.97 890.9 1874.61 890.695C1874.25 890.491 1874.12 890.033 1874.32 889.673C1874.53 889.312 1874.99 889.186 1875.35 889.391C1875.71 889.596 1875.83 890.054 1875.63 890.414Z" fill="#DFD2FF" fill-opacity="0.3"/>
<path d="M1454.28 604.702C1454.3 605.115 1453.98 605.47 1453.57 605.493C1453.16 605.517 1452.8 605.2 1452.78 604.787C1452.75 604.373 1453.07 604.019 1453.48 603.996C1453.9 603.972 1454.25 604.288 1454.28 604.702Z" fill="#DFD2FF" fill-opacity="0.3"/>
<path d="M1505.78 648.062C1505.81 648.475 1505.49 648.83 1505.08 648.853C1504.66 648.877 1504.31 648.56 1504.29 648.147C1504.26 647.733 1504.58 647.379 1504.99 647.355C1505.41 647.332 1505.76 647.648 1505.78 648.062Z" fill="#DFD2FF" fill-opacity="0.3"/>
<path d="M1240.73 496.732C1240.76 497.145 1240.44 497.499 1240.03 497.523C1239.61 497.546 1239.26 497.23 1239.23 496.817C1239.21 496.403 1239.53 496.049 1239.94 496.025C1240.35 496.002 1240.71 496.318 1240.73 496.732Z" fill="#DFD2FF" fill-opacity="0.3"/>
<path d="M1786.53 773.258C1786.33 773.619 1785.87 773.745 1785.51 773.54C1785.15 773.335 1785.02 772.877 1785.23 772.517C1785.43 772.157 1785.89 772.031 1786.25 772.236C1786.61 772.441 1786.74 772.898 1786.53 773.258Z" fill="#DFD2FF" fill-opacity="0.3"/>
<path d="M810.96 577.196C810.876 577.602 810.479 577.862 810.073 577.778C809.668 577.693 809.407 577.296 809.492 576.891C809.576 576.485 809.973 576.225 810.379 576.309C810.784 576.393 811.045 576.79 810.96 577.196Z" fill="#DFD2FF" fill-opacity="0.3"/>
<path d="M1020.67 618.166C1020.26 618.19 1019.9 617.873 1019.88 617.46C1019.86 617.046 1020.17 616.692 1020.59 616.668C1021 616.645 1021.35 616.961 1021.38 617.375C1021.4 617.788 1021.09 618.143 1020.67 618.166Z" fill="#DFD2FF" fill-opacity="0.3"/>
<path d="M1123.11 615.273C1122.7 615.297 1122.35 614.981 1122.32 614.567C1122.3 614.154 1122.62 613.799 1123.03 613.776C1123.44 613.752 1123.8 614.069 1123.82 614.482C1123.84 614.896 1123.53 615.25 1123.11 615.273Z" fill="#DFD2FF" fill-opacity="0.3"/>
<path d="M1186.87 630.997C1186.46 631.02 1186.1 630.704 1186.08 630.29C1186.06 629.877 1186.37 629.523 1186.79 629.499C1187.2 629.476 1187.55 629.792 1187.58 630.205C1187.6 630.619 1187.28 630.973 1186.87 630.997Z" fill="#DFD2FF" fill-opacity="0.3"/>
<path d="M1668.43 856.813C1668.07 856.608 1667.95 856.15 1668.15 855.79C1668.36 855.43 1668.81 855.304 1669.18 855.509C1669.54 855.713 1669.66 856.171 1669.46 856.531C1669.25 856.892 1668.79 857.018 1668.43 856.813Z" fill="#DFD2FF" fill-opacity="0.3"/>
<path d="M795.407 604.37C795.322 604.776 794.925 605.036 794.52 604.952C794.114 604.868 793.854 604.47 793.938 604.065C794.022 603.659 794.42 603.399 794.825 603.483C795.231 603.568 795.491 603.965 795.407 604.37Z" fill="#DFD2FF" fill-opacity="0.3"/>
<path d="M932.415 590.581C932.002 590.605 931.648 590.288 931.624 589.875C931.601 589.461 931.917 589.107 932.33 589.084C932.744 589.06 933.098 589.376 933.122 589.79C933.145 590.203 932.829 590.558 932.415 590.581Z" fill="#DFD2FF" fill-opacity="0.3"/>
<path d="M745.919 682.48C745.835 682.886 745.438 683.146 745.032 683.062C744.627 682.977 744.366 682.58 744.451 682.175C744.535 681.769 744.932 681.509 745.338 681.593C745.743 681.678 746.004 682.075 745.919 682.48Z" fill="#DFD2FF" fill-opacity="0.3"/>
<path d="M975.319 686.626C974.905 686.649 974.551 686.333 974.527 685.919C974.504 685.506 974.82 685.151 975.234 685.128C975.647 685.104 976.001 685.421 976.025 685.834C976.048 686.248 975.732 686.602 975.319 686.626Z" fill="#DFD2FF" fill-opacity="0.3"/>
<path d="M849.794 665.897C849.71 666.302 849.313 666.563 848.907 666.478C848.502 666.394 848.241 665.997 848.326 665.591C848.41 665.186 848.807 664.925 849.213 665.01C849.618 665.094 849.879 665.491 849.794 665.897Z" fill="#DFD2FF" fill-opacity="0.3"/>
<path d="M999.435 683.869C999.021 683.893 998.667 683.576 998.644 683.163C998.62 682.749 998.936 682.395 999.35 682.372C999.763 682.348 1000.12 682.664 1000.14 683.078C1000.16 683.491 999.848 683.846 999.435 683.869Z" fill="#DFD2FF" fill-opacity="0.3"/>
<path d="M853.374 641.889C853.29 642.294 852.893 642.555 852.487 642.47C852.082 642.386 851.821 641.989 851.906 641.583C851.99 641.178 852.387 640.918 852.793 641.002C853.198 641.086 853.459 641.483 853.374 641.889Z" fill="#DFD2FF" fill-opacity="0.3"/>
<path d="M936.856 546.637C936.442 546.661 936.088 546.345 936.064 545.931C936.041 545.517 936.357 545.163 936.771 545.14C937.184 545.116 937.539 545.432 937.562 545.846C937.586 546.26 937.269 546.614 936.856 546.637Z" fill="#DFD2FF" fill-opacity="0.3"/>
<path d="M704.621 646.818C704.537 647.223 704.14 647.483 703.734 647.399C703.329 647.315 703.069 646.918 703.153 646.512C703.237 646.107 703.634 645.846 704.04 645.931C704.445 646.015 704.706 646.412 704.621 646.818Z" fill="#DFD2FF" fill-opacity="0.3"/>
<path d="M588.59 820.602C588.358 820.944 587.891 821.034 587.549 820.801C587.206 820.568 587.117 820.102 587.349 819.759C587.582 819.416 588.048 819.327 588.391 819.56C588.734 819.793 588.823 820.259 588.59 820.602Z" fill="#DFD2FF" fill-opacity="0.3"/>
<path d="M438.629 843.393C438.397 843.736 437.93 843.825 437.588 843.592C437.245 843.36 437.156 842.893 437.388 842.551C437.621 842.208 438.087 842.119 438.43 842.351C438.773 842.584 438.862 843.05 438.629 843.393Z" fill="#DFD2FF" fill-opacity="0.3"/>
<path d="M408.004 919.158C407.772 919.501 407.305 919.59 406.963 919.358C406.62 919.125 406.531 918.659 406.763 918.316C406.996 917.973 407.462 917.884 407.805 918.117C408.148 918.349 408.237 918.816 408.004 919.158Z" fill="#DFD2FF" fill-opacity="0.3"/>
<path d="M434.424 763.07C434.192 763.413 433.725 763.502 433.383 763.27C433.04 763.037 432.951 762.571 433.183 762.228C433.416 761.885 433.882 761.796 434.225 762.029C434.568 762.261 434.657 762.728 434.424 763.07Z" fill="#DFD2FF" fill-opacity="0.3"/>
<path d="M484.339 666.798C484.107 667.141 483.64 667.23 483.298 666.997C482.955 666.765 482.866 666.298 483.098 665.955C483.331 665.613 483.797 665.524 484.14 665.756C484.483 665.989 484.572 666.455 484.339 666.798Z" fill="#DFD2FF" fill-opacity="0.3"/>
<path d="M345.674 956.128C345.442 956.47 344.975 956.559 344.633 956.327C344.29 956.094 344.201 955.628 344.433 955.285C344.666 954.942 345.132 954.853 345.475 955.086C345.818 955.318 345.907 955.785 345.674 956.128Z" fill="#DFD2FF" fill-opacity="0.3"/>
<path d="M366.876 894.637C366.644 894.98 366.177 895.069 365.835 894.837C365.492 894.604 365.403 894.138 365.635 893.795C365.868 893.452 366.334 893.363 366.677 893.596C367.02 893.828 367.109 894.295 366.876 894.637Z" fill="#DFD2FF" fill-opacity="0.3"/>
<path d="M217.375 740.463C217.143 740.806 216.676 740.895 216.334 740.663C215.991 740.43 215.902 739.964 216.134 739.621C216.367 739.278 216.833 739.189 217.176 739.422C217.519 739.654 217.608 740.121 217.375 740.463Z" fill="#DFD2FF" fill-opacity="0.3"/>
<path d="M368.375 669.463C368.143 669.806 367.676 669.895 367.334 669.663C366.991 669.43 366.902 668.964 367.134 668.621C367.367 668.278 367.833 668.189 368.176 668.422C368.519 668.654 368.608 669.121 368.375 669.463Z" fill="#DFD2FF" fill-opacity="0.3"/>
<path d="M114.375 670.463C114.143 670.806 113.676 670.895 113.334 670.663C112.991 670.43 112.902 669.964 113.134 669.621C113.367 669.278 113.833 669.189 114.176 669.422C114.519 669.654 114.608 670.121 114.375 670.463Z" fill="#DFD2FF" fill-opacity="0.3"/>
<path d="M334.375 542.463C334.143 542.806 333.676 542.895 333.334 542.663C332.991 542.43 332.902 541.964 333.134 541.621C333.367 541.278 333.833 541.189 334.176 541.422C334.519 541.654 334.608 542.121 334.375 542.463Z" fill="#DFD2FF" fill-opacity="0.3"/>
<path d="M544.375 466.463C544.143 466.806 543.676 466.895 543.334 466.663C542.991 466.43 542.902 465.964 543.134 465.621C543.367 465.278 543.833 465.189 544.176 465.422C544.519 465.654 544.608 466.121 544.375 466.463Z" fill="#DFD2FF" fill-opacity="0.3"/>
<path d="M757.375 460.463C757.143 460.806 756.676 460.895 756.334 460.663C755.991 460.43 755.902 459.964 756.134 459.621C756.367 459.278 756.833 459.189 757.176 459.422C757.519 459.654 757.608 460.121 757.375 460.463Z" fill="#DFD2FF" fill-opacity="0.3"/>
<path d="M1017.38 409.463C1017.14 409.806 1016.68 409.895 1016.33 409.663C1015.99 409.43 1015.9 408.964 1016.13 408.621C1016.37 408.278 1016.83 408.189 1017.18 408.422C1017.52 408.654 1017.61 409.121 1017.38 409.463Z" fill="#DFD2FF" fill-opacity="0.3"/>
<path d="M1597.91 615.89C1597.93 616.303 1597.62 616.658 1597.2 616.681C1596.79 616.705 1596.44 616.388 1596.41 615.975C1596.39 615.561 1596.7 615.207 1597.12 615.184C1597.53 615.16 1597.89 615.476 1597.91 615.89Z" fill="#DFD2FF" fill-opacity="0.3"/>
<path d="M1605.98 709.383C1606 709.796 1605.69 710.15 1605.27 710.174C1604.86 710.197 1604.51 709.881 1604.48 709.468C1604.46 709.054 1604.77 708.7 1605.19 708.676C1605.6 708.653 1605.96 708.969 1605.98 709.383Z" fill="#DFD2FF" fill-opacity="0.3"/>
<path d="M1902.74 901.032C1902.57 900.652 1902.75 900.21 1903.13 900.046C1903.51 899.882 1903.95 900.057 1904.12 900.437C1904.28 900.817 1904.1 901.259 1903.72 901.423C1903.34 901.587 1902.9 901.412 1902.74 901.032Z" fill="#DFD2FF" fill-opacity="0.3"/>
<path d="M1655.09 698.304C1655.11 698.718 1654.8 699.072 1654.38 699.096C1653.97 699.119 1653.62 698.803 1653.59 698.389C1653.57 697.976 1653.89 697.622 1654.3 697.598C1654.71 697.575 1655.07 697.891 1655.09 698.304Z" fill="#DFD2FF" fill-opacity="0.3"/>
<path d="M1860.43 928.325C1860.27 927.945 1860.44 927.504 1860.82 927.339C1861.21 927.175 1861.65 927.35 1861.81 927.73C1861.98 928.111 1861.8 928.552 1861.42 928.716C1861.04 928.881 1860.6 928.706 1860.43 928.325Z" fill="#DFD2FF" fill-opacity="0.3"/>
<path d="M630.215 755.482C629.983 755.824 629.516 755.913 629.174 755.681C628.831 755.448 628.742 754.982 628.974 754.639C629.207 754.296 629.673 754.207 630.016 754.44C630.359 754.672 630.448 755.139 630.215 755.482Z" fill="#DFD2FF" fill-opacity="0.3"/>
<path d="M234.749 925.718C234.451 925.43 233.976 925.439 233.689 925.738C233.401 926.036 233.41 926.511 233.709 926.798C234.007 927.085 234.482 927.076 234.769 926.778C235.057 926.48 235.048 926.005 234.749 925.718Z" fill="#DFD2FF" fill-opacity="0.3"/>
<path d="M1452.38 414.463C1452.14 414.806 1451.68 414.895 1451.33 414.663C1450.99 414.43 1450.9 413.964 1451.13 413.621C1451.37 413.278 1451.83 413.189 1452.18 413.422C1452.52 413.654 1452.61 414.121 1452.38 414.463Z" fill="#DFD2FF" fill-opacity="0.3"/>
<path d="M1708.38 547.463C1708.14 547.806 1707.68 547.895 1707.33 547.663C1706.99 547.43 1706.9 546.964 1707.13 546.621C1707.37 546.278 1707.83 546.189 1708.18 546.422C1708.52 546.654 1708.61 547.121 1708.38 547.463Z" fill="#DFD2FF" fill-opacity="0.3"/>
<path d="M1844.38 690.463C1844.14 690.806 1843.68 690.895 1843.33 690.663C1842.99 690.43 1842.9 689.964 1843.13 689.621C1843.37 689.278 1843.83 689.189 1844.18 689.422C1844.52 689.654 1844.61 690.121 1844.38 690.463Z" fill="#DFD2FF" fill-opacity="0.3"/>
<path d="M1174.07 294.702C1173.64 295.335 1172.78 295.499 1172.15 295.07C1171.51 294.64 1171.35 293.779 1171.78 293.146C1172.21 292.513 1173.07 292.349 1173.7 292.778C1174.33 293.208 1174.5 294.069 1174.07 294.702Z" fill="#DFD2FF" fill-opacity="0.3"/>
<path d="M1156.97 536.162C1157 536.576 1156.68 536.93 1156.27 536.954C1155.85 536.977 1155.5 536.661 1155.48 536.247C1155.45 535.834 1155.77 535.48 1156.18 535.456C1156.6 535.433 1156.95 535.749 1156.97 536.162Z" fill="white"/>
<path d="M1694.78 760.932C1694.58 761.292 1694.12 761.418 1693.76 761.213C1693.4 761.009 1693.27 760.551 1693.48 760.191C1693.68 759.831 1694.14 759.704 1694.5 759.909C1694.86 760.114 1694.98 760.572 1694.78 760.932Z" fill="white"/>
<path d="M1025.18 523.533C1025.21 523.946 1024.89 524.301 1024.48 524.324C1024.06 524.348 1023.71 524.031 1023.68 523.618C1023.66 523.204 1023.98 522.85 1024.39 522.827C1024.8 522.803 1025.16 523.119 1025.18 523.533Z" fill="white"/>
<path d="M1250.57 596.733C1250.6 597.147 1250.28 597.501 1249.87 597.524C1249.45 597.548 1249.1 597.232 1249.07 596.818C1249.05 596.405 1249.37 596.05 1249.78 596.027C1250.19 596.003 1250.55 596.32 1250.57 596.733Z" fill="white"/>
<path d="M1740.53 862.598C1740.33 862.958 1739.87 863.084 1739.51 862.879C1739.15 862.675 1739.03 862.217 1739.23 861.857C1739.43 861.497 1739.89 861.371 1740.25 861.575C1740.61 861.78 1740.74 862.238 1740.53 862.598Z" fill="white"/>
<path d="M1225.18 528.129C1225.2 528.543 1224.89 528.897 1224.47 528.92C1224.06 528.944 1223.7 528.628 1223.68 528.214C1223.66 527.801 1223.97 527.446 1224.39 527.423C1224.8 527.399 1225.15 527.716 1225.18 528.129Z" fill="white"/>
<path d="M1756.43 791.192C1756.22 791.552 1755.77 791.678 1755.41 791.473C1755.05 791.268 1754.92 790.81 1755.12 790.45C1755.33 790.09 1755.79 789.964 1756.15 790.169C1756.51 790.374 1756.63 790.831 1756.43 791.192Z" fill="white"/>
<path d="M1324.35 506.383C1324.37 506.797 1324.05 507.151 1323.64 507.175C1323.23 507.198 1322.87 506.882 1322.85 506.469C1322.83 506.055 1323.14 505.701 1323.56 505.677C1323.97 505.654 1324.32 505.97 1324.35 506.383Z" fill="white"/>
<path d="M1851.53 826.736C1851.32 827.097 1850.87 827.223 1850.51 827.018C1850.15 826.813 1850.02 826.355 1850.22 825.995C1850.43 825.635 1850.89 825.509 1851.25 825.714C1851.61 825.919 1851.73 826.376 1851.53 826.736Z" fill="white"/>
<path d="M1477.77 543.958C1477.79 544.371 1477.48 544.726 1477.06 544.749C1476.65 544.773 1476.29 544.456 1476.27 544.043C1476.25 543.629 1476.56 543.275 1476.98 543.251C1477.39 543.228 1477.75 543.544 1477.77 543.958Z" fill="white"/>
<path d="M1483.75 649.313C1483.77 649.726 1483.46 650.081 1483.04 650.104C1482.63 650.127 1482.28 649.811 1482.25 649.398C1482.23 648.984 1482.55 648.63 1482.96 648.606C1483.37 648.583 1483.73 648.899 1483.75 649.313Z" fill="white"/>
<path d="M1401.82 568.994C1401.84 569.407 1401.53 569.762 1401.11 569.785C1400.7 569.809 1400.34 569.492 1400.32 569.079C1400.3 568.665 1400.61 568.311 1401.03 568.288C1401.44 568.264 1401.79 568.58 1401.82 568.994Z" fill="white"/>
<path d="M1882.63 921.365C1882.43 921.725 1881.97 921.851 1881.61 921.646C1881.25 921.442 1881.12 920.984 1881.33 920.624C1881.53 920.264 1881.99 920.138 1882.35 920.342C1882.71 920.547 1882.84 921.005 1882.63 921.365Z" fill="white"/>
<path d="M1367.38 577.618C1367.41 578.031 1367.09 578.386 1366.68 578.409C1366.26 578.433 1365.91 578.116 1365.89 577.703C1365.86 577.289 1366.18 576.935 1366.59 576.912C1367.01 576.888 1367.36 577.204 1367.38 577.618Z" fill="white"/>
<path d="M1849.03 909.925C1848.82 910.286 1848.36 910.412 1848 910.207C1847.64 910.002 1847.52 909.544 1847.72 909.184C1847.93 908.824 1848.39 908.698 1848.75 908.903C1849.11 909.107 1849.23 909.565 1849.03 909.925Z" fill="white"/>
<path d="M1273.99 459.473C1274.01 459.887 1273.69 460.241 1273.28 460.265C1272.87 460.288 1272.51 459.972 1272.49 459.558C1272.47 459.145 1272.78 458.791 1273.2 458.767C1273.61 458.744 1273.96 459.06 1273.99 459.473Z" fill="white"/>
<path d="M1834.68 760.007C1834.48 760.367 1834.02 760.493 1833.66 760.288C1833.3 760.083 1833.17 759.625 1833.38 759.265C1833.58 758.905 1834.04 758.779 1834.4 758.984C1834.76 759.189 1834.89 759.646 1834.68 760.007Z" fill="white"/>
<path d="M960.004 600.111C959.591 600.134 959.236 599.818 959.213 599.405C959.189 598.991 959.506 598.637 959.919 598.613C960.333 598.59 960.687 598.906 960.71 599.32C960.734 599.733 960.418 600.087 960.004 600.111Z" fill="white"/>
<path d="M762.265 658.299C762.181 658.704 761.784 658.964 761.378 658.88C760.972 658.796 760.712 658.399 760.796 657.993C760.881 657.588 761.278 657.327 761.684 657.412C762.089 657.496 762.349 657.893 762.265 658.299Z" fill="white"/>
<path d="M899.433 573.708C899.019 573.732 898.665 573.415 898.642 573.002C898.618 572.588 898.934 572.234 899.348 572.21C899.761 572.187 900.116 572.503 900.139 572.917C900.163 573.33 899.846 573.685 899.433 573.708Z" fill="white"/>
<path d="M836.996 741.029C836.911 741.435 836.514 741.695 836.108 741.611C835.703 741.526 835.443 741.129 835.527 740.724C835.611 740.318 836.008 740.058 836.414 740.142C836.82 740.226 837.08 740.623 836.996 741.029Z" fill="white"/>
<path d="M968.036 668.314C967.623 668.337 967.269 668.021 967.245 667.607C967.222 667.194 967.538 666.839 967.951 666.816C968.365 666.792 968.719 667.109 968.743 667.522C968.766 667.936 968.45 668.29 968.036 668.314Z" fill="white"/>
<path d="M830.224 668.192C830.14 668.597 829.743 668.858 829.337 668.773C828.931 668.689 828.671 668.292 828.755 667.886C828.84 667.481 829.237 667.22 829.642 667.305C830.048 667.389 830.308 667.786 830.224 668.192Z" fill="white"/>
<path d="M1036.69 717.124C1036.28 717.147 1035.92 716.831 1035.9 716.417C1035.88 716.004 1036.19 715.649 1036.61 715.626C1037.02 715.603 1037.38 715.919 1037.4 716.332C1037.42 716.746 1037.11 717.1 1036.69 717.124Z" fill="white"/>
<path d="M895.14 614.507C895.056 614.913 894.659 615.173 894.253 615.089C893.847 615.004 893.587 614.607 893.671 614.202C893.756 613.796 894.153 613.536 894.559 613.62C894.964 613.704 895.224 614.102 895.14 614.507Z" fill="white"/>
<path d="M1039.5 497.811C1039.09 497.834 1038.73 497.518 1038.71 497.104C1038.68 496.691 1039 496.336 1039.41 496.313C1039.83 496.29 1040.18 496.606 1040.21 497.019C1040.23 497.433 1039.91 497.787 1039.5 497.811Z" fill="white"/>
<path d="M684.026 555.034C683.941 555.44 683.544 555.7 683.139 555.616C682.733 555.532 682.473 555.134 682.557 554.729C682.642 554.323 683.039 554.063 683.444 554.147C683.85 554.232 684.11 554.629 684.026 555.034Z" fill="white"/>
<path d="M1515.53 637.146C1515.55 637.56 1515.23 637.914 1514.82 637.937C1514.41 637.961 1514.05 637.645 1514.03 637.231C1514.01 636.818 1514.32 636.463 1514.74 636.44C1515.15 636.416 1515.5 636.733 1515.53 637.146Z" fill="white"/>
<path d="M1579.67 720.547C1579.7 720.961 1579.38 721.315 1578.97 721.338C1578.55 721.362 1578.2 721.046 1578.17 720.632C1578.15 720.219 1578.47 719.864 1578.88 719.841C1579.29 719.817 1579.65 720.134 1579.67 720.547Z" fill="white"/>
<path d="M1645.66 775.52C1645.68 775.933 1645.36 776.288 1644.95 776.311C1644.54 776.335 1644.18 776.018 1644.16 775.605C1644.14 775.191 1644.45 774.837 1644.87 774.813C1645.28 774.79 1645.63 775.106 1645.66 775.52Z" fill="white"/>
<path d="M1842.73 852.575C1842.57 852.195 1842.74 851.753 1843.12 851.589C1843.51 851.425 1843.95 851.6 1844.11 851.98C1844.28 852.36 1844.1 852.802 1843.72 852.966C1843.34 853.13 1842.9 852.955 1842.73 852.575Z" fill="white"/>
<path d="M1622.16 641.454C1622.18 641.868 1621.86 642.222 1621.45 642.246C1621.04 642.269 1620.68 641.953 1620.66 641.539C1620.64 641.126 1620.95 640.771 1621.37 640.748C1621.78 640.725 1622.13 641.041 1622.16 641.454Z" fill="white"/>
<path d="M1910.91 970.379C1910.75 969.998 1910.92 969.557 1911.3 969.393C1911.68 969.228 1912.12 969.403 1912.29 969.784C1912.45 970.164 1912.28 970.605 1911.9 970.77C1911.52 970.934 1911.08 970.759 1910.91 970.379Z" fill="white"/>
<path d="M1572.66 645.647C1572.68 646.06 1572.36 646.415 1571.95 646.438C1571.54 646.461 1571.18 646.145 1571.16 645.732C1571.14 645.318 1571.45 644.964 1571.87 644.94C1572.28 644.917 1572.63 645.233 1572.66 645.647Z" fill="white"/>
<path d="M675.965 810.816C675.733 811.159 675.266 811.248 674.924 811.015C674.581 810.783 674.492 810.316 674.724 809.974C674.957 809.631 675.423 809.542 675.766 809.774C676.109 810.007 676.198 810.473 675.965 810.816Z" fill="white"/>
<path d="M529.479 803.702C529.246 804.045 528.78 804.134 528.437 803.902C528.095 803.669 528.005 803.203 528.238 802.86C528.471 802.517 528.937 802.428 529.28 802.66C529.622 802.893 529.712 803.36 529.479 803.702Z" fill="white"/>
<path d="M680.792 706.616C680.56 706.959 680.093 707.048 679.751 706.816C679.408 706.583 679.319 706.117 679.551 705.774C679.784 705.431 680.25 705.342 680.593 705.575C680.936 705.807 681.025 706.274 680.792 706.616Z" fill="white"/>
<path d="M516.028 815.09C515.795 815.433 515.329 815.522 514.986 815.29C514.643 815.057 514.554 814.591 514.787 814.248C515.019 813.905 515.486 813.816 515.829 814.049C516.171 814.281 516.26 814.748 516.028 815.09Z" fill="white"/>
<path d="M628.984 851.438C628.751 851.781 628.285 851.87 627.942 851.637C627.599 851.405 627.51 850.938 627.743 850.596C627.975 850.253 628.442 850.164 628.785 850.396C629.127 850.629 629.217 851.095 628.984 851.438Z" fill="white"/>
<path d="M442.905 833.196C442.672 833.539 442.206 833.628 441.863 833.395C441.52 833.163 441.431 832.696 441.664 832.353C441.896 832.011 442.363 831.922 442.705 832.154C443.048 832.387 443.137 832.853 442.905 833.196Z" fill="white"/>
<path d="M415.281 776.13C415.048 776.473 414.582 776.562 414.239 776.329C413.896 776.097 413.807 775.63 414.04 775.288C414.272 774.945 414.739 774.856 415.081 775.088C415.424 775.321 415.513 775.787 415.281 776.13Z" fill="white"/>
<path d="M268.094 862.13C267.796 861.843 267.321 861.852 267.033 862.15C266.746 862.449 266.755 862.923 267.054 863.211C267.352 863.498 267.827 863.489 268.114 863.191C268.401 862.892 268.392 862.418 268.094 862.13Z" fill="white"/>
<path d="M126.23 899.327C125.931 899.04 125.457 899.049 125.169 899.347C124.882 899.645 124.891 900.12 125.189 900.408C125.488 900.695 125.962 900.686 126.25 900.387C126.537 900.089 126.528 899.614 126.23 899.327Z" fill="white"/>
<path d="M294.323 963.09C294.025 962.803 293.55 962.812 293.263 963.11C292.976 963.409 292.985 963.883 293.283 964.171C293.581 964.458 294.056 964.449 294.343 964.151C294.631 963.852 294.622 963.378 294.323 963.09Z" fill="white"/>
<path d="M110.718 890.96C110.42 890.673 109.945 890.682 109.658 890.98C109.37 891.279 109.379 891.753 109.678 892.041C109.976 892.328 110.451 892.319 110.738 892.021C111.025 891.722 111.016 891.248 110.718 890.96Z" fill="white"/>
<path d="M213.739 832.08C213.441 831.793 212.966 831.802 212.679 832.1C212.392 832.398 212.401 832.873 212.699 833.16C212.997 833.448 213.472 833.439 213.759 833.14C214.047 832.842 214.038 832.367 213.739 832.08Z" fill="white"/>
<path d="M31.3039 868.768C31.0055 868.481 30.5308 868.49 30.2434 868.788C29.9561 869.087 29.9651 869.562 30.2635 869.849C30.5618 870.136 31.0366 870.127 31.3239 869.829C31.6112 869.531 31.6023 869.056 31.3039 868.768Z" fill="white"/>
<path d="M16.0529 930.307C15.7546 930.02 15.2798 930.029 14.9925 930.327C14.7052 930.625 14.7141 931.1 15.0125 931.387C15.3109 931.675 15.7856 931.666 16.073 931.367C16.3603 931.069 16.3513 930.594 16.0529 930.307Z" fill="white"/>
<path d="M1147.44 523.751C1147.47 524.165 1147.15 524.519 1146.74 524.542C1146.32 524.566 1145.97 524.25 1145.95 523.836C1145.92 523.423 1146.24 523.068 1146.65 523.045C1147.07 523.021 1147.42 523.338 1147.44 523.751Z" fill="#DFD2FF"/>
<path d="M1671.81 738.934C1671.6 739.294 1671.14 739.42 1670.78 739.216C1670.42 739.011 1670.3 738.553 1670.5 738.193C1670.71 737.833 1671.16 737.707 1671.52 737.912C1671.88 738.116 1672.01 738.574 1671.81 738.934Z" fill="#DFD2FF"/>
<path d="M1103.5 519.311C1103.52 519.724 1103.21 520.079 1102.79 520.102C1102.38 520.126 1102.03 519.809 1102 519.396C1101.98 518.982 1102.3 518.628 1102.71 518.604C1103.12 518.581 1103.48 518.897 1103.5 519.311Z" fill="#DFD2FF"/>
<path d="M1050.95 586.156C1050.53 586.18 1050.18 585.864 1050.16 585.45C1050.13 585.036 1050.45 584.682 1050.86 584.659C1051.28 584.635 1051.63 584.951 1051.65 585.365C1051.68 585.779 1051.36 586.133 1050.95 586.156Z" fill="#DFD2FF"/>
<rect y="1084" width="1920" height="7794" fill="url(#paint7_linear_3035_42142)"/>
</g>
<defs>
<filter id="filter0_f_3035_42142" x="-333.927" y="250.073" width="1956.85" height="1552.85" filterUnits="userSpaceOnUse" color-interpolation-filters="sRGB">
<feFlood flood-opacity="0" result="BackgroundImageFix"/>
<feBlend mode="normal" in="SourceGraphic" in2="BackgroundImageFix" result="shape"/>
<feGaussianBlur stdDeviation="212.463" result="effect1_foregroundBlur_3035_42142"/>
</filter>
<filter id="filter1_f_3035_42142" x="-662.106" y="-111.52" width="3303.12" height="2087.37" filterUnits="userSpaceOnUse" color-interpolation-filters="sRGB">
<feFlood flood-opacity="0" result="BackgroundImageFix"/>
<feBlend mode="normal" in="SourceGraphic" in2="BackgroundImageFix" result="shape"/>
<feGaussianBlur stdDeviation="141.267" result="effect1_foregroundBlur_3035_42142"/>
</filter>
<filter id="filter2_f_3035_42142" x="-329.47" y="289.984" width="2857.97" height="1349.23" filterUnits="userSpaceOnUse" color-interpolation-filters="sRGB">
<feFlood flood-opacity="0" result="BackgroundImageFix"/>
<feBlend mode="normal" in="SourceGraphic" in2="BackgroundImageFix" result="shape"/>
<feGaussianBlur stdDeviation="35.3169" result="effect1_foregroundBlur_3035_42142"/>
</filter>
<filter id="filter3_f_3035_42142" x="-503.685" y="384.207" width="2980.17" height="1344.06" filterUnits="userSpaceOnUse" color-interpolation-filters="sRGB">
<feFlood flood-opacity="0" result="BackgroundImageFix"/>
<feBlend mode="normal" in="SourceGraphic" in2="BackgroundImageFix" result="shape"/>
<feGaussianBlur stdDeviation="35.3169" result="effect1_foregroundBlur_3035_42142"/>
</filter>
<filter id="filter4_f_3035_42142" x="-534.853" y="391.5" width="2708.78" height="1311.34" filterUnits="userSpaceOnUse" color-interpolation-filters="sRGB">
<feFlood flood-opacity="0" result="BackgroundImageFix"/>
<feBlend mode="normal" in="SourceGraphic" in2="BackgroundImageFix" result="shape"/>
<feGaussianBlur stdDeviation="48" result="effect1_foregroundBlur_3035_42142"/>
</filter>
<filter id="filter5_f_3035_42142" x="-340.054" y="457.983" width="2851.15" height="1257.65" filterUnits="userSpaceOnUse" color-interpolation-filters="sRGB">
<feFlood flood-opacity="0" result="BackgroundImageFix"/>
<feBlend mode="normal" in="SourceGraphic" in2="BackgroundImageFix" result="shape"/>
<feGaussianBlur stdDeviation="40" result="effect1_foregroundBlur_3035_42142"/>
</filter>
<filter id="filter6_f_3035_42142" x="-589.291" y="26.8503" width="3161.83" height="1882.05" filterUnits="userSpaceOnUse" color-interpolation-filters="sRGB">
<feFlood flood-opacity="0" result="BackgroundImageFix"/>
<feBlend mode="normal" in="SourceGraphic" in2="BackgroundImageFix" result="shape"/>
<feGaussianBlur stdDeviation="113.676" result="effect1_foregroundBlur_3035_42142"/>
</filter>
<filter id="filter7_f_3035_42142" x="-334.206" y="530.5" width="2978.33" height="1385.95" filterUnits="userSpaceOnUse" color-interpolation-filters="sRGB">
<feFlood flood-opacity="0" result="BackgroundImageFix"/>
<feBlend mode="normal" in="SourceGraphic" in2="BackgroundImageFix" result="shape"/>
<feGaussianBlur stdDeviation="66" result="effect1_foregroundBlur_3035_42142"/>
</filter>
<radialGradient id="paint0_radial_3035_42142" cx="0" cy="0" r="1" gradientUnits="userSpaceOnUse" gradientTransform="translate(1061.56 855.25) rotate(-0.14919) scale(764.011 487.216)">
<stop stop-color="#624996"/>
<stop offset="1" stop-color="#120827"/>
</radialGradient>
<radialGradient id="paint1_radial_3035_42142" cx="0" cy="0" r="1" gradientUnits="userSpaceOnUse" gradientTransform="translate(1060.37 797.704) rotate(-0.14919) scale(536.323 342.018)">
<stop stop-color="white"/>
<stop offset="1" stop-color="#8246FF"/>
</radialGradient>
<radialGradient id="paint2_radial_3035_42142" cx="0" cy="0" r="1" gradientUnits="userSpaceOnUse" gradientTransform="translate(1061.47 870.628) rotate(-0.14919) scale(484.69 309.091)">
<stop stop-color="white"/>
<stop offset="1" stop-color="#8246FF"/>
</radialGradient>
<radialGradient id="paint3_radial_3035_42142" cx="0" cy="0" r="1" gradientUnits="userSpaceOnUse" gradientTransform="translate(1062.03 867.256) rotate(-0.14919) scale(458.615 292.463)">
<stop stop-color="#EFE8FF"/>
<stop offset="1" stop-color="#671FFF"/>
</radialGradient>
<radialGradient id="paint4_radial_3035_42142" cx="0" cy="0" r="1" gradientUnits="userSpaceOnUse" gradientTransform="translate(1071.56 855.251) rotate(-0.14919) scale(446.079 284.469)">
<stop stop-color="white"/>
<stop offset="1" stop-color="#8246FF"/>
</radialGradient>
<radialGradient id="paint5_radial_3035_42142" cx="0" cy="0" r="1" gradientUnits="userSpaceOnUse" gradientTransform="translate(1055.9 863.851) rotate(-0.14919) scale(767.052 489.155)">
<stop stop-color="#8246FF"/>
<stop offset="1" stop-color="#8246FF"/>
</radialGradient>
<radialGradient id="paint6_radial_3035_42142" cx="0" cy="0" r="1" gradientUnits="userSpaceOnUse" gradientTransform="translate(1084.93 962.307) rotate(-0.14919) scale(446.08 284.469)">
<stop stop-color="white"/>
<stop offset="1" stop-color="#F3F0FE"/>
</radialGradient>
<linearGradient id="paint7_linear_3035_42142" x1="960" y1="1084" x2="960" y2="8878" gradientUnits="userSpaceOnUse">
<stop stop-color="white" stop-opacity="0"/>
<stop offset="0.0339947" stop-color="white"/>
</linearGradient>
<clipPath id="clip0_3035_42142">
<rect width="1920" height="5310" fill="white"/>
</clipPath>
</defs>
</svg>
