<svg width="18" height="19" viewBox="0 0 18 19" fill="none" xmlns="http://www.w3.org/2000/svg">
<path d="M14.25 0.5H3.75C1.68 0.5 0 2.18 0 4.25V14.75C0 16.82 1.68 18.5 3.75 18.5H14.25C16.32 18.5 18 16.82 18 14.75V4.25C18 2.18 16.32 0.5 14.25 0.5ZM16.5 4.25V8.75H9.75V2H14.25C15.4875 2 16.5 3.0125 16.5 4.25ZM3.75 2H8.25V8.75H1.5V4.25C1.5 3.0125 2.5125 2 3.75 2ZM1.5 14.75V10.25H8.25V17H3.75C2.5125 17 1.5 15.9875 1.5 14.75ZM14.25 17H9.75V10.25H16.5V14.75C16.5 15.9875 15.4875 17 14.25 17Z" fill="#818181"/>
</svg>
