<svg width="19" height="19" viewBox="0 0 19 19" fill="none" xmlns="http://www.w3.org/2000/svg">
<path d="M18.6089 17.7502C18.6089 17.9491 18.5299 18.1398 18.3893 18.2805C18.2486 18.4211 18.0578 18.5002 17.8589 18.5002H1.35892C1.16001 18.5002 0.969243 18.4211 0.82859 18.2805C0.687938 18.1398 0.60892 17.9491 0.60892 17.7502C0.60892 17.5513 0.687938 17.3605 0.82859 17.2198C0.969243 17.0792 1.16001 17.0002 1.35892 17.0002H17.8589C18.0578 17.0002 18.2486 17.0792 18.3893 17.2198C18.5299 17.3605 18.6089 17.5513 18.6089 17.7502ZM0.827171 6.91416C0.665562 6.61441 0.590691 6.27554 0.610961 5.9356C0.63123 5.59566 0.745837 5.26809 0.941921 4.98966C1.26236 4.5195 1.6915 4.13358 2.19292 3.86466L7.81867 0.936663C8.37162 0.649137 8.98569 0.499023 9.60892 0.499023C10.2322 0.499023 10.8462 0.649137 11.3992 0.936663L17.0242 3.86691C17.5256 4.13583 17.9547 4.52175 18.2752 4.99191C18.4713 5.27034 18.5859 5.59791 18.6061 5.93785C18.6264 6.27779 18.5515 6.61666 18.3899 6.91641C18.2159 7.24553 17.955 7.52061 17.6355 7.7117C17.316 7.90279 16.9502 8.00257 16.5779 8.00016H16.3589V14.0002H17.1089C17.3078 14.0002 17.4986 14.0792 17.6393 14.2198C17.7799 14.3605 17.8589 14.5513 17.8589 14.7502C17.8589 14.9491 17.7799 15.1398 17.6393 15.2805C17.4986 15.4211 17.3078 15.5002 17.1089 15.5002H2.10892C1.91001 15.5002 1.71924 15.4211 1.57859 15.2805C1.43794 15.1398 1.35892 14.9491 1.35892 14.7502C1.35892 14.5513 1.43794 14.3605 1.57859 14.2198C1.71924 14.0792 1.91001 14.0002 2.10892 14.0002H2.85892V8.00016H2.63992C2.26729 8.00249 1.90118 7.90244 1.58151 7.71094C1.26185 7.51943 1.00091 7.24382 0.827171 6.91416ZM4.35892 14.0002H6.60892V8.00016H4.35892V14.0002ZM8.10892 8.00016V14.0002H11.1089V8.00016H8.10892ZM14.8589 8.00016H12.6089V14.0002H14.8589V8.00016ZM2.15617 6.21891C2.20323 6.30567 2.27326 6.37781 2.35858 6.42742C2.44391 6.47702 2.54124 6.50219 2.63992 6.50016H16.5779C16.6766 6.50219 16.7739 6.47702 16.8593 6.42742C16.9446 6.37781 17.0146 6.30567 17.0617 6.21891C17.096 6.16159 17.1125 6.09541 17.1093 6.02869C17.1061 5.96198 17.0833 5.89769 17.0437 5.84391C16.862 5.57385 16.6178 5.35157 16.3319 5.19591L10.7069 2.26566C10.3679 2.08973 9.9916 1.99789 9.60967 1.99789C9.22775 1.99789 8.85142 2.08973 8.51242 2.26566L2.88742 5.19591C2.60166 5.35207 2.35757 5.57455 2.17567 5.84466C2.13599 5.89822 2.11297 5.96228 2.1095 6.02885C2.10604 6.09541 2.12227 6.16152 2.15617 6.21891Z" fill="#818181"/>
</svg>
