<?xml version="1.0" encoding="utf-8"?>
<!-- Generator: Adobe Illustrator 27.3.1, SVG Export Plug-In . SVG Version: 6.00 Build 0)  -->
<svg version="1.1" xmlns="http://www.w3.org/2000/svg" xmlns:xlink="http://www.w3.org/1999/xlink" x="0px" y="0px"
	 viewBox="0 0 1728 906" style="enable-background:new 0 0 1728 906;" xml:space="preserve">
<style type="text/css">
	.st0{display:none;}
	.st1{display:inline;fill:#F8FAFD;}
	.st2{fill:#CCD3DD;}
	.st3{fill:#E6EAF5;}
	.st4{fill:#F0F2F7;}
	.st5{fill:#CFD7E4;}
	.st6{fill:#E6EAF4;}
	.st7{fill:#F1F2F7;}
	.st8{fill:#B2BDD2;}
	.st9{fill:#E6EBF4;}
	.st10{fill:#F0F2F8;}
	.st11{fill:#CED7E5;}
	.st12{fill:#F1F2F6;}
	.st13{fill:#E7EAF5;}
	.st14{fill:#B8C2CC;}
	.st15{fill:#D9E0F0;}
	.st16{fill:#CFD7E5;}
	.st17{fill:#E6EAF6;}
	.st18{fill:#A4B1C3;}
	.st19{fill:#D9DFF0;}
	.st20{fill:#A4B0C0;}
	.st21{fill:#A3AEC0;}
	.st22{fill:#B0BED4;}
	.st23{fill:#FFFFFF;}
	.st24{fill:#D9E1F1;}
	.st25{fill:#A6B0C2;}
	.st26{fill:#DEE5F3;}
	.st27{fill:#A4B1C2;}
	.st28{fill:#CFD8E6;}
</style>
<g id="Layer_7" class="st0">
	<rect x="-1" y="-1" class="st1" width="1730.77" height="908.18"/>
</g>
<g id="Layer_2">
</g>
<g id="Layer_6">
	<g>
		<g>
			<polygon class="st2" points="1553.82,906.21 1553.82,366.97 1481.59,345.75 1405.75,366.97 1405.75,906.21 			"/>
			<polygon class="st3" points="1553.82,366.97 1479.79,392.36 1405.75,366.97 1481.59,345.75 			"/>
			<polygon class="st4" points="1553.82,906.21 1479.79,906.21 1479.79,392.36 1553.82,366.97 			"/>
		</g>
		<g>
			<polygon class="st5" points="1679.56,906.21 1679.56,635.21 1575.02,604.5 1465.24,635.21 1465.24,906.21 			"/>
			<polygon class="st3" points="1679.56,635.21 1572.4,671.96 1465.24,635.21 1575.02,604.5 			"/>
			<polygon class="st4" points="1679.56,906.21 1572.4,906.21 1572.4,671.96 1679.56,635.21 			"/>
		</g>
		<g>
			<polygon class="st5" points="907.21,906.21 907.21,605.18 831.99,583.08 753.01,605.18 753.01,906.21 			"/>
			<polygon class="st6" points="907.21,605.18 830.11,631.62 753.01,605.18 831.99,583.08 			"/>
			<polygon class="st4" points="907.21,906.21 830.11,906.21 830.11,631.62 907.21,605.18 			"/>
		</g>
		<g>
			<polygon class="st5" points="960.81,906.21 960.81,501.96 921.68,490.47 880.6,501.96 880.6,906.21 			"/>
			<polygon class="st6" points="960.81,501.96 920.71,515.72 880.6,501.96 921.68,490.47 			"/>
			<polygon class="st7" points="960.81,906.21 920.71,906.21 920.71,515.72 960.81,501.96 			"/>
		</g>
		<g>
			<polygon class="st8" points="1229.82,906.21 1229.82,480.17 1190.7,468.68 1149.62,480.17 1149.62,906.21 			"/>
			<polygon class="st9" points="1229.82,480.17 1189.72,493.93 1149.62,480.17 1190.7,468.68 			"/>
			<polygon class="st10" points="1229.82,906.21 1189.72,906.21 1189.72,493.93 1229.82,480.17 			"/>
		</g>
		<g>
			<polygon class="st11" points="1419.71,906.21 1419.71,522.18 1380.59,510.69 1339.51,522.18 1339.51,906.21 			"/>
			<polygon class="st3" points="1419.71,522.18 1379.61,535.93 1339.51,522.18 1380.59,510.69 			"/>
			<polygon class="st12" points="1419.71,906.21 1379.61,906.21 1379.61,535.93 1419.71,522.18 			"/>
		</g>
		<g>
			<polygon class="st5" points="1162.69,906.21 1162.69,396.14 1058.14,365.43 948.37,396.14 948.37,906.21 			"/>
			<polygon class="st4" points="1162.69,906.21 1055.53,906.21 1055.53,432.9 1162.69,396.14 			"/>
			<g>
				<polygon class="st13" points="1162.69,396.14 1055.53,432.9 948.37,396.14 1058.14,365.43 				"/>
				<path class="st14" d="M1000.09,391.91c0,10.83,25.45,19.6,56.85,19.6c31.39,0,56.85-8.78,56.85-19.6v-16.34
					c0-10.83-25.45-19.6-56.85-19.6c-31.39,0-56.85,8.78-56.85,19.6V391.91z"/>
				<ellipse class="st15" cx="1056.93" cy="375.56" rx="56.85" ry="19.6"/>
			</g>
		</g>
		<g>
			<polygon class="st16" points="973.04,906.21 973.04,683.75 933.91,672.26 892.83,683.75 892.83,906.21 			"/>
			<polygon class="st17" points="973.04,683.75 932.94,697.51 892.83,683.75 933.91,672.26 			"/>
			<polygon class="st4" points="973.04,906.21 932.94,906.21 932.94,697.51 973.04,683.75 			"/>
		</g>
		<g>
			<polygon class="st5" points="1414.57,906.21 1414.57,600.98 1284.54,564.72 1146.68,600.98 1146.68,906.21 			"/>
			<polygon class="st13" points="1414.57,600.98 1277.03,649.99 1146.68,600.98 1284.54,564.72 			"/>
			<polygon class="st4" points="1414.57,906.21 1277.03,906.21 1277.03,649.99 1414.57,600.98 			"/>
		</g>
		<g>
			<path class="st18" d="M1008.81,360.76c0,10.83,25.45,19.6,56.85,19.6s56.85-8.78,56.85-19.6v-16.34
				c0-10.83-25.45-19.6-56.85-19.6s-56.85,8.78-56.85,19.6V360.76z"/>
			<ellipse class="st11" cx="1065.66" cy="344.42" rx="56.85" ry="19.6"/>
		</g>
		<g>
			<path class="st14" d="M990.75,343.25c0,10.83,25.45,19.6,56.85,19.6c31.39,0,56.85-8.78,56.85-19.6v-16.34
				c0-10.83-25.45-19.6-56.85-19.6c-31.39,0-56.85,8.78-56.85,19.6V343.25z"/>
			<ellipse class="st19" cx="1047.6" cy="326.91" rx="56.85" ry="19.6"/>
		</g>
		<g>
			<path class="st20" d="M1008.81,318.4c0,10.83,25.45,19.6,56.85,19.6s56.85-8.78,56.85-19.6v-16.34c0-10.83-25.45-19.6-56.85-19.6
				s-56.85,8.78-56.85,19.6V318.4z"/>
			<ellipse class="st15" cx="1065.66" cy="302.06" rx="56.85" ry="19.6"/>
		</g>
		<g>
			<path class="st18" d="M1181.25,329.38c-10.68-2.65-16.5-16.3-12.98-30.49c3.51-14.19,15.02-23.56,25.71-20.91l13.37,3.4
				c10.68,2.65,16.5,16.3,12.98,30.49c-3.51,14.19-15.02,23.56-25.71,20.91L1181.25,329.38z"/>
			
				<ellipse transform="matrix(0.2403 -0.9707 0.9707 0.2403 614.0473 1399.2212)" class="st11" cx="1200.98" cy="307.3" rx="26.48" ry="19.93"/>
		</g>
		<g>
			<path class="st18" d="M1615.42,407.63c-10.68-2.65-16.5-16.3-12.98-30.49c3.51-14.19,15.02-23.56,25.71-20.91l13.37,3.4
				c10.68,2.65,16.5,16.3,12.98,30.49c-3.51,14.19-15.02,23.56-25.71,20.91L1615.42,407.63z"/>
			
				<ellipse transform="matrix(0.2403 -0.9707 0.9707 0.2403 867.9162 1880.105)" class="st11" cx="1635.15" cy="385.54" rx="26.48" ry="19.93"/>
		</g>
		<g>
			<path class="st18" d="M1347.33,342.41c-6.49-1.61-10.01-9.89-7.88-18.51c2.13-8.62,9.12-14.3,15.61-12.7l8.12,2.06
				c6.49,1.61,10.01,9.89,7.88,18.51c-2.13,8.62-9.12,14.3-15.61,12.7L1347.33,342.41z"/>
			
				<ellipse transform="matrix(0.2403 -0.9707 0.9707 0.2403 713.2475 1569.3916)" class="st11" cx="1359.31" cy="329" rx="16.08" ry="12.1"/>
		</g>
		<g>
			<path class="st18" d="M920.47,377.36c-6.49-1.61-10.01-9.89-7.88-18.51c2.13-8.62,9.12-14.3,15.61-12.7l8.12,2.06
				c6.49,1.61,10.01,9.89,7.88,18.51c-2.13,8.62-9.12,14.3-15.61,12.7L920.47,377.36z"/>
			
				<ellipse transform="matrix(0.2403 -0.9707 0.9707 0.2403 355.062 1181.5928)" class="st11" cx="932.45" cy="363.95" rx="16.08" ry="12.1"/>
		</g>
		<g>
			<polygon class="st21" points="1647.5,448.51 1673.93,454.47 1482.19,525.52 1456.02,516.04 			"/>
			<polygon class="st5" points="1673.93,453.24 1673.93,606.12 1482.19,676.2 1482.19,524.29 			"/>
			<polygon class="st22" points="1482.19,677.43 1482.19,525.52 1456.02,516.04 1456.02,670.9 			"/>
		</g>
		<g>
			<polygon class="st18" points="1417.89,454.56 1401.34,450.83 1341.23,465.21 1341.23,517.97 1354.95,523.19 1396.38,511.71 
				1401.17,515.84 1414.41,518.29 1417.47,516.65 			"/>
			<polygon class="st11" points="1354.95,469.94 1418,454.59 1418,516.99 1414.41,518.29 1401.99,510.16 1354.95,523.19 			"/>
			<polygon class="st20" points="1401.34,450.83 1418,454.59 1354.95,469.94 1341.23,465.21 			"/>
			
				<ellipse transform="matrix(0.0848 -0.9964 0.9964 0.0848 762.8412 1816.577)" class="st23" cx="1370.29" cy="493.03" rx="8.42" ry="6.31"/>
			
				<ellipse transform="matrix(0.0848 -0.9964 0.9964 0.0848 783.1871 1829.2948)" class="st23" cx="1387.39" cy="488.31" rx="8.42" ry="6.31"/>
			
				<ellipse transform="matrix(0.0848 -0.9964 0.9964 0.0848 802.6947 1841.2222)" class="st23" cx="1403.64" cy="483.66" rx="8.42" ry="6.31"/>
		</g>
		<g>
			<polyline class="st18" points="1425.35,661.09 1425.35,685.92 1452.54,698.34 1452.39,671.23 1425.35,661.09 1495.26,562.43 
				1521.76,571.16 1452.39,671.23 			"/>
			<g>
				<polygon class="st18" points="1547.22,602.27 1605.1,521.6 1578.6,512.87 1529.53,580.72 				"/>
				<polygon class="st18" points="1632.28,559.11 1719.26,465.6 1692.77,456.87 1616.28,537.42 				"/>
				<polygon class="st24" points="1452.39,671.23 1521.76,571.16 1547.12,602.36 1605,521.69 1632.48,558.92 1719.45,465.4 
					1719.45,487.01 1628.88,588.57 1603.24,552.96 1546.15,634.06 1519.11,600.98 1452.54,698.34 1425.35,685.92 1425.35,661.09 
									"/>
				<polygon class="st18" points="1628.88,588.57 1605.1,581.87 1594.96,564.72 1603.24,552.96 				"/>
				<polygon class="st18" points="1546.31,634.47 1524.09,627.85 1511.11,612.74 1519.39,600.98 				"/>
			</g>
		</g>
		<g>
			<path class="st25" d="M1536.81,214.72c-5.61-3-15.02-4.01-20.52-3.49c-4.9,0.47-9.4,2.9-12.48,6.74
				c-1.71,2.12-3.87,4.81-6.36,7.92c-2.83,3.52-5.86,5.96-8.43,7.61c-3.1,1.98-6.7,3.04-10.38,3.06l-17.2,0.12
				c-2.55,0.02-5.09,0.42-7.52,1.18c-4.34,1.36-11.85,3.8-19.13,6.53c-11.17,4.19-10.47,13.44-10.47,13.44s0.52,90.6,0.87,100.54
				c0.31,8.71,14.91,13.81,18.56,14.94c1.85,1.02,4.02,1.53,6.3,1.32l79.98-7.4c5.62-0.52,9.93-5.24,9.93-10.89l2.53-131.51
				C1542.49,219.88,1538.32,215.64,1536.81,214.72z"/>
			<path class="st18" d="M1506.18,211.78l-22.78-0.92l-11.98,5.63l-3.01,8.12l0.92,14.66l2.49-0.2c0,0,1.95-17.54,2.94-19.63
				c0.59-1.25,2.42-6.81,12.11-6.62c9.69,0.2,43.4,0.66,43.4,0.66l0.13-0.59L1506.18,211.78z"/>
			<path class="st11" d="M1521.02,212.12l-39.71-2.12c0,0-11.42-0.93-14.01,8.51c-2.81,10.28-5.11,18.88-5.11,18.88l7.14,1.87
				l3.34-19.05c0,0,1.22-8.68,15.84-8.12c14.84,0.57,41.89,0.79,41.89,0.79L1521.02,212.12z"/>
			<path class="st25" d="M1460.85,238.58c-2.89-0.82-2.32-3.61-2.32-3.61l-24.18,7.77c0,0,1.83,1.92,0.26,4.27
				c-1.13,1.7,6.02,2.57,15.71-0.65C1456.18,244.41,1463.5,239.24,1460.85,238.58z"/>
			<path class="st11" d="M1459.27,234.14l-3.53-11.17l-27.19,6.94l4.45,12.57c0,0,0.57,4.72,17.06-1.3
				C1460.88,237.28,1459.27,234.14,1459.27,234.14z"/>
			<path class="st18" d="M1427.74,223.76c-0.41,0.39-1.69,1.08-1.23,2.21l2.09,6.04c0,0,0.07,2.94,17.41-2.43
				c12.9-3.99,11.06-6.87,11.06-6.87l-1.54-4.92c-0.12-0.37-0.24-0.69-0.37-0.95c-0.3-0.58-1.09-0.01-1.72-0.2
				c-0.19-0.06-1.43,0.03-1.43,0.03C1457.72,220.37,1425.58,229.69,1427.74,223.76z"/>
			
				<ellipse transform="matrix(0.9572 -0.2896 0.2896 0.9572 -2.1671 426.5945)" class="st11" cx="1440.64" cy="220.62" rx="14.83" ry="3.19"/>
			<path class="st26" d="M1529.13,367.88l-75.93,6.65c-7.83,0.69-14.57-5.46-14.61-13.32l-0.49-103.26c0,0,2.43-6.92,16.19-11.43
				c13.76-4.52,16.22-5.36,20.24-5.49s21.76-0.08,21.76-0.08s6.19-0.1,7.5-0.43s4.2-0.98,6.45-2.77c2.25-1.79,8.43-11.34,8.43-11.34
				s4.76-6.87,6.7-8.23c1.94-1.37,3.66-3.92,7.82-3.92c4.16,0,8.04,3.66,9.08,9.13c0.17,3.1-1.33,99.2-1.86,132.4
				C1540.32,362.1,1535.45,367.33,1529.13,367.88z"/>
			<path class="st25" d="M1508.05,300.52c8.81,14.01,1.71,34.82-13.45,37.39c-0.68,0.12-1.37,0.2-2.07,0.24s-1.39,0.06-2.07,0.03
				c-15.25-0.55-23.64-20.33-15.74-35.45l15.75-30.17L1508.05,300.52z"/>
		</g>
		<g>
			<path class="st26" d="M959.54,637.94c10.41,19.27-0.8,46.13-21.04,48.2c-0.91,0.09-1.83,0.14-2.75,0.14s-1.84-0.05-2.74-0.14
				c-20.09-2.07-29.43-28.92-17.67-48.2l23.45-38.45L959.54,637.94z"/>
			<path class="st25" d="M920.74,685.32c-20.4-4.58-29.43-28.92-17.67-48.2l23.45-38.45l12.27,0.82l-20.89,34.25
				c0,0-7.88,10.95-7.71,22.87c0.16,11.92,7.75,28.52,22.83,29.52L920.74,685.32z"/>
		</g>
		<g>
			<path class="st25" d="M792.9,518.08l-36.22,15.79c0,0,2.71,48.54,49.22,59.96v12.47l16.88,5.62l33.41-7.5l0.01-14.87
				c9.89-2.97,19.04-7.64,25.96-14.93c11.33-11.92,17.07-27.79,17.09-47.15c0.01-13.75-3.65-25.4-10.89-34.64
				c-6.8-8.7-17.53-13.15-34.74-21.5c-0.77-0.37-3.75-2.28-5.17-2.99c-14.08-6.81-26.65-16.27-26.65-22.57
				c0-4.05,2.35-8.68,4.62-10.95c1.43-1.42,6.31-2.68,8.53-3.33c2.66,1.75,6.38,6.17,8.84,10.37l4,6.83l15.06,1.63l33.53-19.84
				l-2.51-7.66c-3.76-11.46-10.23-19.37-19.99-25.32c-4.88-2.98-11.02-5.2-17.13-6.52v-17.68l-25.02-1.7l-24.34,2.04l0.1,15.44
				c0,0-45.11,7.54-45.11,57.92c0,49.49,60.24,70.16,60.24,70.16s18.8,7.75,18.8,15.5c0,13.6-25.81,6.62-25.81,6.62l-7.68-9.88
				l0.95-8.56L792.9,518.08z"/>
			<path class="st26" d="M891.73,494.37c-7.4-8.73-20.15-17.19-38.99-25.87c-0.86-0.39-2.02-0.94-3.6-1.68
				c-16.18-7.43-25.09-15.28-25.09-22.1c0-4.34,1.27-7.49,3.99-9.9c2.94-2.6,7.27-3.93,12.86-3.93c3.89,0,7.32,0.88,10.19,2.63
				c3.11,1.89,6.12,5.11,8.96,9.56l4.14,6.49l35.91-18.54l-2.5-6.96c-4.06-11.32-11.47-20.14-22.01-26.18
				c-5.53-3.16-11.84-5.49-18.82-6.93v-17.68l-33.97,3.55v13.91c-11.07,2.25-20.61,6.99-28.4,14.11
				c-11.58,10.57-17.45,24.47-17.45,41.31c0,13.13,3.94,24.46,11.72,33.68c7.33,8.7,20.99,17.84,41.77,27.98l0.3,0.14
				c1.19,0.52,2.93,1.35,5.24,2.51l0.11,0.06c9.61,4.53,19.85,12.89,20.95,21.3c0.73,5.57-1.55,9.2-4.91,12.37
				c-3.45,3.25-8.12,4.35-14.5,4.35c-7.2,0-13.04-1.57-17.36-4.66c-4.22-3.01-7.09-7.42-8.75-13.46l-2.64-9.6l-38.23,17.7l1.54,6.67
				c3.44,14.89,10.92,26.57,22.22,34.71c7.9,5.69,17.43,9.38,28.36,11.02v20.99l33.97-7.64v-14.65
				c11.07-2.65,20.56-7.63,28.25-14.81c12.29-11.5,18.52-27.02,18.52-46.15C903.54,515.14,899.56,503.6,891.73,494.37z"/>
		</g>
		<g>
			<g>
				<polyline class="st27" points="1275.7,379.01 1275.75,347.94 1254.77,341.1 1254.77,372.1 1275.7,379.01 				"/>
				<path class="st25" d="M1254.77,577.07v30.31l20.2,6.61l0.23-32.31C1275.2,581.67,1266,580.39,1254.77,577.07z"/>
				<path class="st25" d="M1275.76,541.29l-0.03-121c-14.9,6.84-20.96,16.3-20.96,16.3v91.64
					C1254.77,528.22,1261.82,537.71,1275.76,541.29z"/>
				<g>
					<path class="st26" d="M1310.65,538.15 M1275.76,541.29l-0.03-121l-0.04-0.17c-23.07,10.52-39.43,38.42-36.96,70.49
						c1.93,25.05,16.48,44.84,36.88,50.75L1275.76,541.29z M1366.6,414.26l-25.38,28.59c0,0-9.71-19-30.05-25.45l-0.01,0.32
						l-0.5,120.29l0.06,0.43c5.56-2.56,10.39-6.09,14.42-9.25c4.55-3.74,8.59-7.73,11.88-12.22l22.2,27.69
						c-4.83,6.31-10.41,12.39-17.01,17.7c-7.9,6.42-18.45,13.04-31.71,16.95l0,0.29l-0.1,21.2l-35.14,13.2l0.33-31.68l0.02-0.19
						c-41.35-5.44-69.02-41.25-73.9-85.85c-7.48-68.28,28.95-105.85,74.06-117.61l-0.05-0.96l0.05-29.77l30.8-4.92v33.5
						C1306.55,376.52,1347.14,379.52,1366.6,414.26z"/>
				</g>
				<g>
					<path class="st25" d="M1277.09,582.71c-111.43-5.63-100-108.74-100-108.74s-0.33-87.05,77.68-101.87l20.98,6.57
						c0,0-74.54,14.26-74.54,99.05C1202.54,577.95,1277.09,582.71,1277.09,582.71z"/>
				</g>
				<path class="st25" d="M1341.22,442.85l-15.02-2.97c0,0-4.43-11.52-15.02-22.48C1311.17,417.4,1333.83,421.61,1341.22,442.85z"/>
				<path class="st25" d="M1337.01,516.96l-11.32,0.09c0,0-3.04,8.61-15.03,21.11C1310.65,538.15,1320.63,538.88,1337.01,516.96z"/>
			</g>
			<polygon class="st28" points="1306.55,343.02 1278.91,336.99 1254.77,341.1 1275.75,347.94 			"/>
		</g>
	</g>
</g>
</svg>
