<?xml version="1.0" standalone="no"?>
<!DOCTYPE svg PUBLIC "-//W3C//DTD SVG 20010904//EN"
 "http://www.w3.org/TR/2001/REC-SVG-20010904/DTD/svg10.dtd">
<svg 
    version="1.0" 
    xmlns="http://www.w3.org/2000/svg"
    width="100" 
    height="100" 
    viewBox="0 0 1980 1981"
    preserveAspectRatio="none"
>
<g transform="translate(0.000000,1981.000000) scale(0.100000,-0.100000)" fill="#000000" stroke="none">
<path d="M9705 17094 c-418 -43 -768 -152 -1091 -339 -431 -251 -779 -618
-1004 -1059 -37 -72 -69 -136 -71 -143 -3 -9 -43 1 -134 31 -145 49 -309 88
-472 113 -170 26 -547 23 -728 -5 -161 -25 -365 -77 -504 -128 -149 -54 -403
-183 -541 -274 -112 -74 -151 -109 -380 -339 -225 -226 -265 -271 -338 -381
-490 -738 -564 -1666 -198 -2489 25 -57 45 -105 44 -106 -2 -1 -63 -32 -137
-69 -679 -338 -1170 -955 -1351 -1698 -55 -223 -65 -318 -64 -608 0 -285 12
-397 69 -619 168 -664 594 -1237 1180 -1585 l111 -67 -23 -102 c-164 -725 9
-1510 465 -2112 67 -88 374 -397 467 -470 354 -277 774 -453 1240 -521 165
-24 514 -24 680 -1 185 27 450 95 586 151 12 6 30 -21 82 -126 227 -461 574
-831 1022 -1093 284 -165 611 -276 970 -327 118 -17 512 -17 630 0 774 110
1406 503 1831 1139 63 93 200 343 215 392 4 11 20 8 78 -13 302 -109 690 -161
1016 -138 886 65 1646 545 2084 1318 139 245 249 570 296 874 23 146 31 448
16 606 -11 113 -52 359 -67 398 -3 9 18 27 63 51 625 347 1086 954 1253 1650
55 228 65 326 64 610 0 280 -13 394 -70 617 -191 757 -707 1378 -1419 1710
-44 21 -81 41 -83 46 -1 4 18 52 43 105 88 188 162 440 200 684 25 154 31 481
11 646 -85 732 -443 1355 -1031 1794 -340 255 -753 420 -1210 485 -118 17
-512 17 -630 0 -164 -24 -330 -61 -470 -106 -77 -25 -140 -44 -141 -43 -1 1
-33 64 -72 140 -383 749 -1085 1252 -1932 1382 -101 15 -468 28 -555 19z m409
-3349 c182 -48 337 -187 405 -365 24 -60 26 -81 31 -290 l5 -224 135 -28 c587
-121 991 -371 1100 -682 47 -133 47 -314 -1 -441 -90 -241 -335 -397 -557
-356 -94 17 -165 43 -332 119 -175 79 -332 142 -342 135 -5 -2 -8 -850 -8
-1884 l0 -1881 33 8 c66 14 264 87 376 138 225 103 336 130 481 115 104 -10
148 -22 223 -62 150 -79 228 -244 230 -482 1 -203 -58 -341 -208 -490 -108
-108 -206 -175 -380 -260 -202 -98 -372 -154 -618 -204 l-132 -26 -5 -285 c-5
-263 -7 -290 -27 -344 -69 -182 -222 -323 -403 -371 -72 -19 -230 -19 -305 0
-181 48 -345 206 -407 395 -19 58 -22 93 -26 340 l-4 276 -114 23 c-336 68
-665 204 -944 389 -172 114 -293 216 -450 379 -492 509 -769 1159 -830 1955
-18 232 -8 687 20 898 92 694 326 1243 732 1715 392 455 919 766 1496 881 l92
18 0 176 c1 105 6 207 15 255 38 216 210 401 426 459 72 19 220 20 293 1z"
/>
<path 
    d="M9260 11590 c-255 -97 -465 -234 -602 -393 -245 -284 -405 -686 -460
    -1152 -19 -160 -16 -559 6 -715 36 -264 97 -482 191 -678 190 -396 444 -621
    863 -766 57 -20 108 -36 113 -36 5 0 9 772 9 1890 0 1040 -3 1890 -7 1890 -5
    0 -55 -19 -113 -40z"
    />
</g>
</svg>
