<svg width="186" height="86" viewBox="0 0 186 86" fill="none" xmlns="http://www.w3.org/2000/svg">
<path d="M20.2466 39.8108C19.5061 40.7545 19.1375 41.9729 19.1375 43.4677C19.1375 44.9335 19.4924 46.1092 20.204 46.9949C20.6579 47.5682 21.3848 47.9624 22.1681 48.1757V38.6061C21.4019 38.8348 20.6988 39.2375 20.2466 39.8108ZM20.2466 39.8108C19.5061 40.7545 19.1375 41.9729 19.1375 43.4677C19.1375 44.9335 19.4924 46.1092 20.204 46.9949C20.6579 47.5682 21.3848 47.9624 22.1681 48.1757V38.6061C21.4019 38.8348 20.6988 39.2375 20.2466 39.8108ZM20.2466 39.8108C19.5061 40.7545 19.1375 41.9729 19.1375 43.4677C19.1375 44.9335 19.4924 46.1092 20.204 46.9949C20.6579 47.5682 21.3848 47.9624 22.1681 48.1757V38.6061C21.4019 38.8348 20.6988 39.2375 20.2466 39.8108ZM20.2466 39.8108C19.5061 40.7545 19.1375 41.9729 19.1375 43.4677C19.1375 44.9335 19.4924 46.1092 20.204 46.9949C20.6579 47.5682 21.3848 47.9624 22.1681 48.1757V38.6061C21.4019 38.8348 20.6988 39.2375 20.2466 39.8108ZM41.6383 43.7271C41.6383 41.0122 39.9763 38.6863 37.6146 37.7102C38.0668 36.8246 38.3211 35.8212 38.3211 34.7598C38.3211 31.1661 35.4065 28.2515 31.8128 28.2515C30.9834 28.2515 30.1917 28.4068 29.4613 28.6901C28.4631 26.3762 26.1611 24.7585 23.482 24.7585C20.7944 24.7585 18.4873 26.3881 17.4942 28.7123C16.7502 28.4153 15.9362 28.2515 15.0864 28.2515C13.5779 28.2515 12.1872 28.7652 11.0849 29.6269C10.6583 30.0245 10.2504 30.4426 9.86135 30.8794C9.05592 31.963 8.57812 33.306 8.57812 34.7598C8.57812 35.8315 8.8375 36.8417 9.29482 37.7324C6.96214 38.7221 5.32568 41.0343 5.32568 43.7271C5.32568 46.2236 6.73178 48.3924 8.79484 49.4828C8.65321 50.0152 8.57983 50.5732 8.57983 51.15C8.57983 52.7063 9.12589 54.1345 10.0354 55.254C10.0354 55.2557 10.0371 55.2574 10.0405 55.2591C10.3016 55.5457 10.5729 55.8222 10.8511 56.0918C10.8528 56.0935 10.8545 56.0952 10.8579 56.0969C11.9961 57.0713 13.4721 57.6583 15.0881 57.6583C15.9345 57.6583 16.7434 57.4979 17.4856 57.2027C18.472 59.5405 20.7876 61.1821 23.4854 61.1821C26.1747 61.1821 28.4835 59.5507 29.475 57.2232C30.2019 57.5047 30.9903 57.6583 31.8145 57.6583C35.4099 57.6583 38.3228 54.7437 38.3228 51.15C38.3228 50.5835 38.2511 50.0357 38.1146 49.5135C40.2067 48.4317 41.6383 46.2475 41.6383 43.7271ZM27.4085 50.6091C26.7635 50.9896 26.0075 51.2439 25.1458 51.3753V52.4776C25.1458 53.3001 24.4803 53.9656 23.6578 53.9656C22.8353 53.9656 22.1698 53.2984 22.1698 52.4776V51.3565C20.5692 51.0869 19.2416 50.3651 18.1819 49.1944C16.8611 47.7286 16.2007 45.8413 16.2007 43.5342C16.2007 41.1401 16.8747 39.188 18.2262 37.6778C19.2808 36.5004 20.5965 35.7734 22.1715 35.4987V34.683C22.1715 33.8605 22.8387 33.195 23.6595 33.195C24.0707 33.195 24.4427 33.3623 24.7123 33.6302C24.982 33.8998 25.1475 34.2718 25.1475 34.683V35.4765C25.8949 35.5926 26.5638 35.8042 27.1491 36.1113C27.9614 36.5464 28.3692 37.113 28.3692 37.8092C28.3692 38.2307 28.2378 38.5856 27.9767 38.8757C27.7156 39.1658 27.3965 39.3109 27.0194 39.3109C26.8164 39.3109 26.5177 39.2238 26.127 39.0498C25.7857 38.8791 25.4598 38.7409 25.1475 38.6351V48.1723C25.5024 48.0819 25.8437 47.9573 26.1696 47.8003C26.6048 47.5972 26.9392 47.4948 27.1696 47.4948C28.0842 47.4948 28.5416 47.9726 28.5416 48.9317C28.5416 49.6006 28.1627 50.1603 27.4085 50.6091ZM20.2466 39.8108C19.5061 40.7545 19.1375 41.9729 19.1375 43.4677C19.1375 44.9335 19.4924 46.1092 20.204 46.9949C20.6579 47.5682 21.3848 47.9624 22.1681 48.1757V38.6061C21.4019 38.8348 20.6988 39.2375 20.2466 39.8108ZM20.2466 39.8108C19.5061 40.7545 19.1375 41.9729 19.1375 43.4677C19.1375 44.9335 19.4924 46.1092 20.204 46.9949C20.6579 47.5682 21.3848 47.9624 22.1681 48.1757V38.6061C21.4019 38.8348 20.6988 39.2375 20.2466 39.8108ZM20.2466 39.8108C19.5061 40.7545 19.1375 41.9729 19.1375 43.4677C19.1375 44.9335 19.4924 46.1092 20.204 46.9949C20.6579 47.5682 21.3848 47.9624 22.1681 48.1757V38.6061C21.4019 38.8348 20.6988 39.2375 20.2466 39.8108Z" fill="#363636"/>
<path d="M46.8157 42.9712C46.8498 36.3383 52.4093 30.946 59.1087 30.9136C62.0557 30.9136 64.7365 31.8845 66.8457 33.5261C67.6494 34.1967 67.7842 35.369 67.1801 36.2052C66.5095 37.043 65.2706 37.1761 64.501 36.5738C63.0267 35.3673 61.1855 34.7308 59.1087 34.7308C56.7982 34.7308 54.6533 35.6694 53.0799 37.142C51.5732 38.6829 50.6346 40.6931 50.6346 42.9694C50.6346 45.2475 51.5732 47.3242 53.0799 48.7969C54.655 50.2712 56.7982 51.208 59.1087 51.208C61.1855 51.208 62.9943 50.5716 64.501 49.3651C65.2706 48.7952 66.5112 48.93 67.1801 49.7337C67.7825 50.5716 67.6494 51.7763 66.8457 52.4128C64.7348 54.0544 62.0557 55.0253 59.1087 55.0253C52.4093 55.0287 46.8481 49.6364 46.8157 42.9712Z" fill="#363636"/>
<path d="M68.0776 46.6553C68.1118 42.0991 71.6611 38.2819 76.2497 38.2819C80.6045 38.2819 84.0549 41.5309 84.3228 46.0529C84.3228 46.087 84.3228 46.1536 84.3228 46.2201C84.3228 46.2867 84.3228 46.4539 84.2886 46.5222C84.188 47.3259 83.4849 47.8617 82.5464 47.8617H71.8949C72.0621 48.6313 72.4307 49.5033 73.0331 50.0732C73.7361 50.877 75.0757 51.4793 76.248 51.58C77.4544 51.6807 78.8946 51.3786 79.7308 50.7422C80.4338 50.005 81.8075 50.1057 82.2426 50.6415C82.6778 51.1107 83.0122 52.1158 82.2426 52.8189C80.6011 54.3256 78.625 55.0304 76.2463 55.0304C71.6611 54.9963 68.1101 51.2114 68.0776 46.6553ZM71.7277 45.0137H81.2068C80.8724 43.6742 79.1643 41.6981 76.2497 41.4626C73.4034 41.5974 71.9956 43.64 71.7277 45.0137Z" fill="#363636"/>
<path d="M101.677 53.2199C101.677 54.1908 100.873 55.0287 99.8684 55.0287C98.964 55.0287 98.261 54.3922 98.0937 53.5885C96.8207 54.4588 95.2133 55.0287 93.5376 55.0287C89.0156 55.0287 85.3979 51.2097 85.3979 46.6877C85.3979 42.0991 89.0156 38.2802 93.5376 38.2802C95.1792 38.2802 96.7866 38.816 98.0255 39.6863V33.3896C98.0255 32.4186 98.8292 31.5807 99.8684 31.5807C100.873 31.5807 101.677 32.4186 101.677 33.3896V46.6536C101.677 46.6536 101.677 46.6536 101.677 46.6877V53.2199ZM93.5376 41.9319C92.3311 41.9319 91.2271 42.4336 90.3892 43.3056C89.5514 44.1434 89.0497 45.3482 89.0497 46.6894C89.0497 47.9624 89.5514 49.1688 90.3892 50.005C91.2271 50.8753 92.3311 51.3787 93.5376 51.3787C94.7764 51.3787 95.8481 50.877 96.6859 50.005C97.5238 49.1671 98.0255 47.9624 98.0255 46.6894C98.0255 45.3499 97.5238 44.1434 96.6859 43.3056C95.8481 42.4353 94.7764 41.9319 93.5376 41.9319Z" fill="#363636"/>
<path d="M107.153 34.0943C107.153 35.0994 106.383 35.9372 105.344 35.9372C104.339 35.9372 103.535 35.0994 103.535 34.0943V33.3913C103.535 32.3862 104.339 31.5825 105.344 31.5825C106.383 31.5825 107.153 32.3862 107.153 33.3913V34.0943ZM107.153 40.1572V53.2199C107.153 54.225 106.383 55.0287 105.344 55.0287C104.339 55.0287 103.535 54.225 103.535 53.2199V40.1572C103.535 39.0856 104.339 38.3143 105.344 38.3143C106.383 38.3143 107.153 39.0856 107.153 40.1572Z" fill="#363636"/>
<path d="M125.185 52.2489C125.519 53.2199 124.983 54.2591 124.012 54.5936C123.879 54.6277 123.61 54.6942 123.275 54.6942C123.275 54.6942 123.275 54.6942 123.241 54.6942C122.907 54.6942 122.403 54.6277 121.934 54.3256C121.499 54.0577 121.13 53.6226 120.862 53.1533C120.393 52.1824 120.159 50.9759 120.159 49.1347C120.125 48.4982 119.992 48.0631 119.757 47.6945C119.555 47.3259 119.154 46.9914 118.752 46.7235C118.048 46.2543 117.177 45.9864 116.876 45.9198H112.924V53.1892C112.924 54.1943 112.086 55.0321 111.049 55.0321C110.01 55.0321 109.206 54.1943 109.206 53.1892V33.4254C109.206 32.3862 110.01 31.5825 111.049 31.5825C111.049 31.5825 111.049 31.5825 111.083 31.5825H117.045C121.031 31.5825 124.214 34.7974 124.214 38.7836C124.214 40.9951 123.209 42.937 121.601 44.2765C122.036 44.611 122.439 45.0137 122.774 45.5154C123.444 46.4863 123.879 47.7269 123.879 49.133C123.845 50.1381 123.946 50.7746 124.012 51.109C124.548 51.278 124.983 51.679 125.185 52.2489ZM120.496 38.7836C120.496 36.8399 118.955 35.3008 117.045 35.3008H112.926V42.2015H117.045C118.955 42.1998 120.496 40.6589 120.496 38.7836Z" fill="#363636"/>
<path d="M141.628 46.6894V53.254C141.628 54.225 140.824 55.0287 139.853 55.0287C138.983 55.0287 138.312 54.3922 138.111 53.5885C136.838 54.4929 135.331 55.0287 133.656 55.0287C131.377 55.0287 129.401 54.0901 127.961 52.5834C126.521 51.0425 125.683 48.9658 125.683 46.6877C125.683 44.3772 126.521 42.3005 127.961 40.792C129.401 39.2511 131.377 38.2802 133.656 38.2802C135.33 38.2802 136.838 38.8501 138.111 39.7545C138.312 38.9166 138.981 38.2802 139.853 38.2802C140.824 38.2802 141.628 39.0839 141.628 40.089V46.6894ZM138.077 46.6894C138.077 45.2833 137.575 44.0769 136.771 43.239C135.968 42.3346 134.828 41.8653 133.656 41.8653C132.449 41.8653 131.311 42.3346 130.54 43.239C129.736 44.0769 129.267 45.2816 129.267 46.6894C129.267 48.0631 129.736 49.2678 130.54 50.1398C131.309 50.9776 132.449 51.4469 133.656 51.4469C134.828 51.4469 135.966 50.9776 136.771 50.1398C137.575 49.2678 138.077 48.0614 138.077 46.6894Z" fill="#363636"/>
<path d="M151.783 40.1231C151.783 41.1282 150.912 41.966 149.907 41.966H149.07V51.3121C150.109 51.3121 150.912 52.15 150.912 53.1875C150.912 54.225 150.109 55.0304 149.07 55.0304C147.027 55.0304 145.351 53.3564 145.351 51.3121V41.966H144.38C143.341 41.966 142.537 41.1282 142.537 40.1231C142.537 39.0839 143.341 38.2802 144.38 38.2802H145.351V33.4237C145.351 32.3845 146.189 31.5807 147.227 31.5807C148.264 31.5807 149.07 32.3845 149.07 33.4237V38.2802H149.907C150.911 38.2819 151.783 39.0856 151.783 40.1231Z" fill="#363636"/>
<path d="M151.928 46.6553C151.962 42.0991 155.511 38.2819 160.1 38.2819C164.455 38.2819 167.905 41.5309 168.173 46.0529C168.173 46.087 168.173 46.1536 168.173 46.2201C168.173 46.2867 168.173 46.4539 168.139 46.5222C168.038 47.3259 167.335 47.8617 166.396 47.8617H155.745C155.912 48.6313 156.281 49.5033 156.883 50.0732C157.586 50.877 158.926 51.4793 160.098 51.58C161.305 51.6807 162.745 51.3786 163.581 50.7422C164.284 50.005 165.658 50.1057 166.093 50.6415C166.528 51.1107 166.862 52.1158 166.093 52.8189C164.451 54.3256 162.475 55.0304 160.096 55.0304C155.511 54.9963 151.962 51.2114 151.928 46.6553ZM155.579 45.0137H165.059C164.724 43.6742 163.016 41.6981 160.101 41.4626C157.253 41.5974 155.847 43.64 155.579 45.0137Z" fill="#363636"/>
<path d="M169.096 50.2388C169.699 49.435 170.871 49.3344 171.608 49.9709C172.478 50.708 173.987 51.4776 175.292 51.4452C176.197 51.4452 177.034 51.1432 177.57 50.8087C178.04 50.406 178.173 50.0715 178.173 49.8036C178.173 49.6364 178.139 49.5698 178.072 49.4692C178.038 49.3685 177.905 49.2354 177.637 49.0665C177.168 48.732 176.162 48.3634 174.958 48.1279H174.924C173.884 47.9266 172.881 47.6587 172.009 47.2576C171.105 46.8225 170.301 46.2184 169.699 45.3157C169.33 44.7134 169.129 43.9762 169.129 43.2049C169.129 41.664 169.999 40.3586 171.105 39.5207C172.277 38.717 173.683 38.2819 175.224 38.2819C177.534 38.2819 179.176 39.3876 180.248 40.1248C181.051 40.6606 181.287 41.7664 180.783 42.6042C180.248 43.408 179.142 43.6434 178.304 43.0735C177.232 42.3704 176.294 41.8346 175.222 41.8346C174.384 41.8346 173.647 42.1025 173.212 42.437C172.777 42.739 172.676 43.0394 172.676 43.2066C172.676 43.3397 172.676 43.3738 172.743 43.4745C172.777 43.5411 172.876 43.6759 173.111 43.809C173.547 44.111 174.417 44.4113 175.557 44.6127L175.591 44.6468H175.625C176.731 44.8482 177.768 45.1485 178.741 45.6178C179.645 46.0205 180.55 46.657 181.12 47.5938C181.522 48.2644 181.756 49.034 181.756 49.8053C181.756 51.4469 180.852 52.8206 179.645 53.6909C178.439 54.5287 176.932 55.0304 175.29 55.0304C172.678 54.9963 170.668 53.7915 169.328 52.7199C168.593 52.1158 168.492 50.9759 169.096 50.2388Z" fill="#363636"/>
</svg>
