<svg width="70" height="70" viewBox="0 0 70 70" fill="none" xmlns="http://www.w3.org/2000/svg">
<g clip-path="url(#clip0_169_504)">
<path d="M55.4167 0H14.5833C6.53333 0 0 6.53333 0 14.5833V55.4167C0 63.4667 6.53333 70 14.5833 70H55.4167C63.4667 70 70 63.4667 70 55.4167V14.5833C70 6.53333 63.4667 0 55.4167 0ZM17.5 14.5833H35C36.6042 14.5833 37.9167 15.8958 37.9167 17.5C37.9167 19.1042 36.6042 20.4167 35 20.4167H17.5C15.8958 20.4167 14.5833 19.1042 14.5833 17.5C14.5833 15.8958 15.8958 14.5833 17.5 14.5833ZM17.5 26.25H43.75C45.3542 26.25 46.6667 27.5625 46.6667 29.1667C46.6667 30.7708 45.3542 32.0833 43.75 32.0833H17.5C15.8958 32.0833 14.5833 30.7708 14.5833 29.1667C14.5833 27.5625 15.8958 26.25 17.5 26.25ZM26.25 55.4167H17.5C15.8958 55.4167 14.5833 54.1042 14.5833 52.5C14.5833 50.8958 15.8958 49.5833 17.5 49.5833H26.25C27.8542 49.5833 29.1667 50.8958 29.1667 52.5C29.1667 54.1042 27.8542 55.4167 26.25 55.4167ZM52.5 43.75H17.5C15.8958 43.75 14.5833 42.4375 14.5833 40.8333C14.5833 39.2292 15.8958 37.9167 17.5 37.9167H52.5C54.1042 37.9167 55.4167 39.2292 55.4167 40.8333C55.4167 42.4375 54.1042 43.75 52.5 43.75Z" fill="url(#paint0_linear_169_504)"/>
</g>
<defs>
<linearGradient id="paint0_linear_169_504" x1="35" y1="0" x2="35" y2="70" gradientUnits="userSpaceOnUse">
<stop stop-color="#081521"/>
<stop offset="1" stop-color="#1896FE"/>
</linearGradient>
<clipPath id="clip0_169_504">
<rect width="70" height="70" fill="white"/>
</clipPath>
</defs>
</svg>
