<svg width="19" height="19" viewBox="0 0 19 19" fill="none" xmlns="http://www.w3.org/2000/svg">
<path d="M9.82739 0.5C4.86464 0.5 0.827393 4.53725 0.827393 9.5C0.827393 14.4628 4.86464 18.5 9.82739 18.5C14.7901 18.5 18.8274 14.4628 18.8274 9.5C18.8274 4.53725 14.7901 0.5 9.82739 0.5ZM9.82739 17C5.69189 17 2.32739 13.6355 2.32739 9.5C2.32739 5.3645 5.69189 2 9.82739 2C13.9629 2 17.3274 5.3645 17.3274 9.5C17.3274 13.6355 13.9629 17 9.82739 17ZM7.70564 7.37825C7.13939 7.9445 6.82739 8.69825 6.82739 9.5C6.82739 10.3018 7.13939 11.0548 7.70564 11.6217C8.87564 12.7917 10.7791 12.7917 11.9484 11.6217C12.2416 11.3285 12.7156 11.3285 13.0089 11.6217C13.3021 11.915 13.3021 12.389 13.0089 12.6823C12.3234 13.3685 11.4676 13.7773 10.5766 13.9265V14.75C10.5766 15.164 10.2406 15.5 9.82664 15.5C9.41264 15.5 9.07664 15.164 9.07664 14.75V13.9265C8.18564 13.7773 7.33064 13.3685 6.64439 12.6823C4.89014 10.928 4.89014 8.07275 6.64439 6.3185C7.32989 5.63225 8.18564 5.2235 9.07664 5.07425V4.25075C9.07664 3.83675 9.41264 3.50075 9.82664 3.50075C10.2406 3.50075 10.5766 3.83675 10.5766 4.25075V5.07425C11.4676 5.2235 12.3226 5.63225 13.0089 6.3185C13.3021 6.61175 13.3021 7.08575 13.0089 7.379C12.7156 7.67225 12.2416 7.67225 11.9484 7.379C10.7784 6.209 8.87489 6.209 7.70564 7.379V7.37825Z" fill="#818181"/>
</svg>
