<svg width="19" height="19" viewBox="0 0 19 19" fill="none" xmlns="http://www.w3.org/2000/svg">
<path d="M11.5546 12.5H1.80457V4.25C1.80457 3.0095 2.81407 2 4.05457 2H9.30457C9.71856 2 10.0546 1.66475 10.0546 1.25C10.0546 0.83525 9.71856 0.5 9.30457 0.5H4.05457C1.98682 0.5 0.304565 2.18225 0.304565 4.25V14.75C0.304565 16.8177 1.98682 18.5 4.05457 18.5H8.55457C10.6223 18.5 12.3046 16.8177 12.3046 14.75V13.25C12.3046 12.8352 11.9686 12.5 11.5546 12.5ZM10.8046 14.75C10.8046 15.9905 9.79507 17 8.55457 17H4.05457C2.81407 17 1.80457 15.9905 1.80457 14.75V14H10.8046V14.75ZM5.17957 15.5C5.17957 15.0852 5.51557 14.75 5.92957 14.75H6.67957C7.09357 14.75 7.42957 15.0852 7.42957 15.5C7.42957 15.9148 7.09357 16.25 6.67957 16.25H5.92957C5.51557 16.25 5.17957 15.9148 5.17957 15.5ZM16.8046 3.5H7.80457C6.97582 3.5 6.30457 4.17125 6.30457 5V9.5C6.30457 10.3287 6.97582 11 7.80457 11H16.8046C17.6333 11 18.3046 10.3287 18.3046 9.5V5C18.3046 4.17125 17.6333 3.5 16.8046 3.5ZM8.17957 10.25C7.55857 10.25 7.05457 9.746 7.05457 9.125C7.05457 8.504 7.55857 8 8.17957 8C8.80057 8 9.30457 8.504 9.30457 9.125C9.30457 9.746 8.80057 10.25 8.17957 10.25ZM8.17957 6.5C7.55857 6.5 7.05457 5.996 7.05457 5.375C7.05457 4.754 7.55857 4.25 8.17957 4.25C8.80057 4.25 9.30457 4.754 9.30457 5.375C9.30457 5.996 8.80057 6.5 8.17957 6.5ZM12.3046 9.5C11.0618 9.5 10.0546 8.49275 10.0546 7.25C10.0546 6.00725 11.0618 5 12.3046 5C13.5473 5 14.5546 6.00725 14.5546 7.25C14.5546 8.49275 13.5473 9.5 12.3046 9.5ZM16.4296 10.25C15.8086 10.25 15.3046 9.746 15.3046 9.125C15.3046 8.504 15.8086 8 16.4296 8C17.0506 8 17.5546 8.504 17.5546 9.125C17.5546 9.746 17.0506 10.25 16.4296 10.25ZM16.4296 6.5C15.8086 6.5 15.3046 5.996 15.3046 5.375C15.3046 4.754 15.8086 4.25 16.4296 4.25C17.0506 4.25 17.5546 4.754 17.5546 5.375C17.5546 5.996 17.0506 6.5 16.4296 6.5Z" fill="#818181"/>
</svg>
