<svg width="19" height="19" viewBox="0 0 19 19" fill="none" xmlns="http://www.w3.org/2000/svg">
<path d="M17.759 7.28525L17.414 6.9545V6.5C17.414 4.8455 16.0685 3.5 14.414 3.5H5.41403C3.75953 3.5 2.41403 4.8455 2.41403 6.5V6.9575L2.07053 7.286C1.33628 7.9895 0.915532 8.97725 0.915532 9.9935V14.7493C0.914032 15.7513 1.30478 16.6933 2.01278 17.4012C2.72078 18.1092 3.66278 18.5 4.66478 18.5H15.164C17.2318 18.5 18.914 16.8177 18.914 14.75V9.99275C18.914 8.97575 18.4925 7.988 17.759 7.28525ZM5.41403 5H14.414C15.2413 5 15.914 5.67275 15.914 6.5V8.9315L11.5048 13.3407C10.655 14.1905 9.17303 14.1905 8.32328 13.3407L3.91403 8.9315V6.5C3.91403 5.67275 4.58678 5 5.41403 5ZM17.414 14.75C17.414 15.9905 16.4045 17 15.164 17H4.66478C4.06328 17 3.49778 16.766 3.07328 16.3407C2.64878 15.9163 2.41478 15.3507 2.41478 14.7493V9.9935C2.41478 9.85925 2.43278 9.72575 2.45603 9.59525L7.26203 14.4012C7.96928 15.1093 8.91128 15.5 9.91328 15.5C10.9153 15.5 11.8573 15.1093 12.5645 14.4012L17.372 9.59375C17.396 9.725 17.4133 9.8585 17.4133 9.99275L17.414 14.75ZM4.66403 1.25C4.66403 0.83525 4.99928 0.5 5.41403 0.5H14.414C14.8288 0.5 15.164 0.83525 15.164 1.25C15.164 1.66475 14.8288 2 14.414 2H5.41403C4.99928 2 4.66403 1.66475 4.66403 1.25ZM12.914 6.875C12.914 6.2525 13.4165 5.75 14.039 5.75C14.6615 5.75 15.164 6.2525 15.164 6.875C15.164 7.4975 14.6615 8 14.039 8C13.4165 8 12.914 7.4975 12.914 6.875ZM9.91403 12.5C11.3615 12.5 12.539 11.3225 12.539 9.875C12.539 8.4275 11.3615 7.25 9.91403 7.25C8.46653 7.25 7.28903 8.4275 7.28903 9.875C7.28903 11.3225 8.46653 12.5 9.91403 12.5ZM9.91403 8.75C10.5343 8.75 11.039 9.25475 11.039 9.875C11.039 10.4952 10.5343 11 9.91403 11C9.29378 11 8.78903 10.4952 8.78903 9.875C8.78903 9.25475 9.29378 8.75 9.91403 8.75ZM4.66403 6.875C4.66403 6.2525 5.16653 5.75 5.78903 5.75C6.41153 5.75 6.91403 6.2525 6.91403 6.875C6.91403 7.4975 6.41153 8 5.78903 8C5.16653 8 4.66403 7.4975 4.66403 6.875Z" fill="#818181"/>
</svg>
