<svg width="16" height="16" viewBox="0 0 16 16" fill="none" xmlns="http://www.w3.org/2000/svg">
<path d="M6.57444 6.61213C6.24812 7.02666 6.08571 7.56186 6.08571 8.2185C6.08571 8.8624 6.24211 9.37887 6.55564 9.76791C6.75564 10.0198 7.07594 10.1929 7.42105 10.2866V6.08292C7.08346 6.18337 6.77368 6.36027 6.57444 6.61213ZM6.57444 6.61213C6.24812 7.02666 6.08571 7.56186 6.08571 8.2185C6.08571 8.8624 6.24211 9.37887 6.55564 9.76791C6.75564 10.0198 7.07594 10.1929 7.42105 10.2866V6.08292C7.08346 6.18337 6.77368 6.36027 6.57444 6.61213ZM6.57444 6.61213C6.24812 7.02666 6.08571 7.56186 6.08571 8.2185C6.08571 8.8624 6.24211 9.37887 6.55564 9.76791C6.75564 10.0198 7.07594 10.1929 7.42105 10.2866V6.08292C7.08346 6.18337 6.77368 6.36027 6.57444 6.61213ZM6.57444 6.61213C6.24812 7.02666 6.08571 7.56186 6.08571 8.2185C6.08571 8.8624 6.24211 9.37887 6.55564 9.76791C6.75564 10.0198 7.07594 10.1929 7.42105 10.2866V6.08292C7.08346 6.18337 6.77368 6.36027 6.57444 6.61213ZM16 8.33244C16 7.13985 15.2677 6.11815 14.2271 5.68939C14.4263 5.30035 14.5383 4.85959 14.5383 4.39335C14.5383 2.81471 13.2541 1.53441 11.6707 1.53441C11.3053 1.53441 10.9564 1.60262 10.6346 1.72706C10.1947 0.710612 9.18045 0 8 0C6.81579 0 5.79925 0.715858 5.36165 1.7368C5.03383 1.60637 4.67519 1.53441 4.30075 1.53441C3.63609 1.53441 3.02331 1.76004 2.53759 2.13858C2.34962 2.31323 2.16992 2.49689 1.9985 2.68878C1.64361 3.16477 1.43308 3.7547 1.43308 4.39335C1.43308 4.86409 1.54737 5.30785 1.74887 5.69913C0.721053 6.13389 0 7.14959 0 8.33244C0 9.42909 0.619549 10.3818 1.52857 10.8608C1.46617 11.0947 1.43383 11.3398 1.43383 11.5932C1.43383 12.2768 1.67444 12.9042 2.07519 13.3959C2.07519 13.3967 2.07594 13.3974 2.07744 13.3982C2.19248 13.5241 2.31203 13.6455 2.43459 13.764C2.43534 13.7647 2.43609 13.7655 2.43759 13.7662C2.9391 14.1942 3.58947 14.4521 4.3015 14.4521C4.67444 14.4521 5.03083 14.3816 5.3579 14.252C5.79248 15.2789 6.81278 16 8.0015 16C9.18647 16 10.2038 15.2834 10.6406 14.261C10.9609 14.3846 11.3083 14.4521 11.6714 14.4521C13.2556 14.4521 14.5391 13.1718 14.5391 11.5932C14.5391 11.3443 14.5075 11.1037 14.4474 10.8743C15.3692 10.3991 16 9.43959 16 8.33244ZM9.73008 11.3555C9.44587 11.5227 9.11278 11.6344 8.73308 11.6921V12.1763C8.73308 12.5376 8.43985 12.83 8.07744 12.83C7.71504 12.83 7.4218 12.5369 7.4218 12.1763V11.6839C6.71654 11.5654 6.13158 11.2483 5.66466 10.7341C5.08271 10.0902 4.79173 9.26118 4.79173 8.24774C4.79173 7.19606 5.08872 6.33853 5.68421 5.67515C6.14887 5.15793 6.72857 4.8386 7.42256 4.71792V4.35962C7.42256 3.99831 7.71654 3.70597 8.0782 3.70597C8.2594 3.70597 8.42331 3.77943 8.54211 3.89712C8.6609 4.01555 8.73383 4.17896 8.73383 4.35962V4.70817C9.06316 4.75915 9.3579 4.8521 9.61579 4.98702C9.97369 5.17817 10.1534 5.42703 10.1534 5.73287C10.1534 5.91801 10.0955 6.07393 9.98045 6.20136C9.86541 6.32879 9.72481 6.3925 9.55865 6.3925C9.46917 6.3925 9.33759 6.35427 9.16541 6.27782C9.01504 6.20286 8.87143 6.14214 8.73383 6.09567V10.2851C8.89023 10.2454 9.0406 10.1907 9.18421 10.1217C9.37594 10.0325 9.52331 9.98754 9.62481 9.98754C10.0278 9.98754 10.2293 10.1974 10.2293 10.6187C10.2293 10.9125 10.0624 11.1584 9.73008 11.3555ZM6.57444 6.61213C6.24812 7.02666 6.08571 7.56186 6.08571 8.2185C6.08571 8.8624 6.24211 9.37887 6.55564 9.76791C6.75564 10.0198 7.07594 10.1929 7.42105 10.2866V6.08292C7.08346 6.18337 6.77368 6.36027 6.57444 6.61213ZM6.57444 6.61213C6.24812 7.02666 6.08571 7.56186 6.08571 8.2185C6.08571 8.8624 6.24211 9.37887 6.55564 9.76791C6.75564 10.0198 7.07594 10.1929 7.42105 10.2866V6.08292C7.08346 6.18337 6.77368 6.36027 6.57444 6.61213ZM6.57444 6.61213C6.24812 7.02666 6.08571 7.56186 6.08571 8.2185C6.08571 8.8624 6.24211 9.37887 6.55564 9.76791C6.75564 10.0198 7.07594 10.1929 7.42105 10.2866V6.08292C7.08346 6.18337 6.77368 6.36027 6.57444 6.61213Z" fill="white"/>
</svg>
