<svg width="16" height="15" viewBox="0 0 16 15" fill="none" xmlns="http://www.w3.org/2000/svg">
<path d="M10.9206 0.145386H4.9848C2.40647 0.145386 0.869385 1.68247 0.869385 4.2608V10.1896C0.869385 12.775 2.40647 14.3121 4.9848 14.3121H10.9136C13.4919 14.3121 15.029 12.775 15.029 10.1966V4.2608C15.0361 1.68247 13.499 0.145386 10.9206 0.145386ZM7.95272 9.97705C6.43688 9.97705 5.20438 8.74455 5.20438 7.22872C5.20438 5.71289 6.43688 4.48039 7.95272 4.48039C9.46855 4.48039 10.7011 5.71289 10.7011 7.22872C10.7011 8.74455 9.46855 9.97705 7.95272 9.97705ZM12.1461 3.60205C12.1106 3.68705 12.0611 3.76497 11.9973 3.8358C11.9265 3.89955 11.8486 3.94914 11.7636 3.98455C11.6786 4.01997 11.5865 4.04122 11.4944 4.04122C11.3031 4.04122 11.1261 3.97039 10.9915 3.8358C10.9277 3.76497 10.8781 3.68705 10.8427 3.60205C10.8073 3.51705 10.7861 3.42497 10.7861 3.33289C10.7861 3.2408 10.8073 3.14872 10.8427 3.06372C10.8781 2.97164 10.9277 2.9008 10.9915 2.82997C11.1544 2.66705 11.4023 2.58914 11.629 2.63872C11.6786 2.6458 11.7211 2.65997 11.7636 2.68122C11.8061 2.69539 11.8486 2.71664 11.8911 2.74497C11.9265 2.76622 11.9619 2.80164 11.9973 2.82997C12.0611 2.9008 12.1106 2.97164 12.1461 3.06372C12.1815 3.14872 12.2027 3.2408 12.2027 3.33289C12.2027 3.42497 12.1815 3.51705 12.1461 3.60205Z" fill="#D0DAF5"/>
</svg>
