<svg width="90" height="90" viewBox="0 0 42 62"

 fill="none" xmlns="http://www.w3.org/2000/svg">
<path d="M20.2467 40.3932C19.5061 41.3368 19.1375 42.5552 19.1375 44.05C19.1375 45.5158 19.4925 46.6916 20.204 47.5772C20.6579 48.1506 21.3849 48.5447 22.1681 48.7581V39.1884C21.4019 39.4171 20.6989 39.8198 20.2467 40.3932ZM20.2467 40.3932C19.5061 41.3368 19.1375 42.5552 19.1375 44.05C19.1375 45.5158 19.4925 46.6916 20.204 47.5772C20.6579 48.1506 21.3849 48.5447 22.1681 48.7581V39.1884C21.4019 39.4171 20.6989 39.8198 20.2467 40.3932ZM20.2467 40.3932C19.5061 41.3368 19.1375 42.5552 19.1375 44.05C19.1375 45.5158 19.4925 46.6916 20.204 47.5772C20.6579 48.1506 21.3849 48.5447 22.1681 48.7581V39.1884C21.4019 39.4171 20.6989 39.8198 20.2467 40.3932ZM20.2467 40.3932C19.5061 41.3368 19.1375 42.5552 19.1375 44.05C19.1375 45.5158 19.4925 46.6916 20.204 47.5772C20.6579 48.1506 21.3849 48.5447 22.1681 48.7581V39.1884C21.4019 39.4171 20.6989 39.8198 20.2467 40.3932ZM41.6384 44.3094C41.6384 41.5945 39.9764 39.2686 37.6147 38.2926C38.0669 37.4069 38.3211 36.4036 38.3211 35.3422C38.3211 31.7484 35.4066 28.8339 31.8128 28.8339C30.9835 28.8339 30.1917 28.9892 29.4614 29.2724C28.4631 26.9585 26.1612 25.3408 23.4821 25.3408C20.7945 25.3408 18.4874 26.9705 17.4942 29.2946C16.7502 28.9977 15.9363 28.8339 15.0865 28.8339C13.578 28.8339 12.1873 29.3475 11.0849 30.2092C10.6583 30.6068 10.2505 31.0249 9.86141 31.4618C9.05598 32.5453 8.57819 33.8883 8.57819 35.3422C8.57819 36.4138 8.83756 37.424 9.29488 38.3147C6.9622 39.3045 5.32574 41.6167 5.32574 44.3094C5.32574 46.8059 6.73184 48.9748 8.7949 50.0652C8.65327 50.5976 8.57989 51.1556 8.57989 51.7323C8.57989 53.2886 9.12595 54.7169 10.0355 55.8363C10.0355 55.838 10.0372 55.8397 10.0406 55.8414C10.3017 56.1281 10.573 56.4045 10.8511 56.6741C10.8528 56.6758 10.8546 56.6776 10.858 56.6793C11.9961 57.6536 13.4722 58.2406 15.0882 58.2406C15.9346 58.2406 16.7434 58.0802 17.4857 57.785C18.472 60.1228 20.7876 61.7644 23.4855 61.7644C26.1748 61.7644 28.4836 60.1331 29.475 57.8055C30.202 58.0871 30.9903 58.2406 31.8145 58.2406C35.41 58.2406 38.3228 55.3261 38.3228 51.7323C38.3228 51.1658 38.2512 50.618 38.1146 50.0959C40.2067 49.014 41.6384 46.8298 41.6384 44.3094ZM27.4086 51.1914C26.7635 51.5719 26.0076 51.8262 25.1458 51.9576V53.0599C25.1458 53.8824 24.4803 54.5479 23.6578 54.5479C22.8353 54.5479 22.1698 53.8807 22.1698 53.0599V51.9388C20.5692 51.6692 19.2416 50.9474 18.1819 49.7768C16.8612 48.311 16.2008 46.4237 16.2008 44.1166C16.2008 41.7225 16.8748 39.7703 18.2263 38.2601C19.2809 37.0827 20.5965 36.3558 22.1715 36.081V35.2654C22.1715 34.4429 22.8388 33.7774 23.6595 33.7774C24.0708 33.7774 24.4428 33.9446 24.7124 34.2125C24.982 34.4821 25.1475 34.8541 25.1475 35.2654V36.0589C25.895 36.1749 26.5639 36.3865 27.1492 36.6936C27.9614 37.1288 28.3693 37.6953 28.3693 38.3915C28.3693 38.813 28.2379 39.168 27.9768 39.4581C27.7157 39.7481 27.3966 39.8932 27.0195 39.8932C26.8164 39.8932 26.5178 39.8062 26.127 39.6321C25.7857 39.4615 25.4598 39.3232 25.1475 39.2174V48.7546C25.5025 48.6642 25.8438 48.5396 26.1697 48.3826C26.6048 48.1796 26.9393 48.0772 27.1697 48.0772C28.0843 48.0772 28.5416 48.555 28.5416 49.514C28.5416 50.1829 28.1628 50.7426 27.4086 51.1914ZM20.2467 40.3932C19.5061 41.3368 19.1375 42.5552 19.1375 44.05C19.1375 45.5158 19.4925 46.6916 20.204 47.5772C20.6579 48.1506 21.3849 48.5447 22.1681 48.7581V39.1884C21.4019 39.4171 20.6989 39.8198 20.2467 40.3932ZM20.2467 40.3932C19.5061 41.3368 19.1375 42.5552 19.1375 44.05C19.1375 45.5158 19.4925 46.6916 20.204 47.5772C20.6579 48.1506 21.3849 48.5447 22.1681 48.7581V39.1884C21.4019 39.4171 20.6989 39.8198 20.2467 40.3932ZM20.2467 40.3932C19.5061 41.3368 19.1375 42.5552 19.1375 44.05C19.1375 45.5158 19.4925 46.6916 20.204 47.5772C20.6579 48.1506 21.3849 48.5447 22.1681 48.7581V39.1884C21.4019 39.4171 20.6989 39.8198 20.2467 40.3932Z" fill="#1874fe"/>
<!-- <path d="M46.8157 43.5534C46.8498 36.9206 52.4093 31.5283 59.1087 31.4958C62.0557 31.4958 64.7365 32.4668 66.8457 34.1084C67.6494 34.779 67.7842 35.9513 67.1801 36.7875C66.5095 37.6253 65.2706 37.7584 64.501 37.1561C63.0267 35.9496 61.1855 35.3131 59.1087 35.3131C56.7982 35.3131 54.6533 36.2516 53.0799 37.7243C51.5732 39.2652 50.6346 41.2754 50.6346 43.5517C50.6346 45.8298 51.5732 47.9065 53.0799 49.3792C54.655 50.8535 56.7982 51.7903 59.1087 51.7903C61.1855 51.7903 62.9943 51.1538 64.501 49.9474C65.2706 49.3774 66.5112 49.5123 67.1801 50.316C67.7825 51.1538 67.6494 52.3586 66.8457 52.9951C64.7348 54.6366 62.0557 55.6076 59.1087 55.6076C52.4093 55.611 46.8481 50.2187 46.8157 43.5534Z" fill="#1896FE"/>
<path d="M68.0777 47.2374C68.1118 42.6813 71.6612 38.864 76.2498 38.864C80.6045 38.864 84.0549 42.113 84.3228 46.6351C84.3228 46.6692 84.3228 46.7357 84.3228 46.8023C84.3228 46.8688 84.3228 47.0361 84.2887 47.1043C84.188 47.9081 83.485 48.4439 82.5464 48.4439H71.895C72.0622 49.2135 72.4308 50.0854 73.0331 50.6554C73.7362 51.4591 75.0757 52.0615 76.248 52.1622C77.4545 52.2628 78.8947 51.9608 79.7308 51.3243C80.4339 50.5871 81.8076 50.6878 82.2427 51.2236C82.6778 51.6929 83.0123 52.698 82.2427 53.401C80.6011 54.9078 78.6251 55.6125 76.2463 55.6125C71.6612 55.5784 68.1101 51.7936 68.0777 47.2374ZM71.7277 45.5959H81.2069C80.8724 44.2563 79.1643 42.2803 76.2498 42.0448C73.4034 42.1796 71.9956 44.2222 71.7277 45.5959Z" fill="#1896FE"/>
<path d="M101.677 53.8022C101.677 54.7732 100.873 55.611 99.8683 55.611C98.9639 55.611 98.2608 54.9745 98.0936 54.1708C96.8206 55.0411 95.2132 55.611 93.5375 55.611C89.0154 55.611 85.3978 51.7921 85.3978 47.27C85.3978 42.6815 89.0154 38.8625 93.5375 38.8625C95.179 38.8625 96.7865 39.3983 98.0254 40.2686V33.9719C98.0254 33.0009 98.8291 32.1631 99.8683 32.1631C100.873 32.1631 101.677 33.0009 101.677 33.9719V47.2359C101.677 47.2359 101.677 47.2359 101.677 47.27V53.8022ZM93.5375 42.5142C92.331 42.5142 91.227 43.0159 90.3891 43.8879C89.5513 44.7258 89.0496 45.9305 89.0496 47.2717C89.0496 48.5447 89.5513 49.7512 90.3891 50.5873C91.227 51.4576 92.331 51.961 93.5375 51.961C94.7763 51.961 95.8479 51.4593 96.6858 50.5873C97.5237 49.7495 98.0254 48.5447 98.0254 47.2717C98.0254 45.9322 97.5237 44.7258 96.6858 43.8879C95.8479 43.0176 94.7763 42.5142 93.5375 42.5142Z" fill="#1896FE"/>
<path d="M107.153 34.6766C107.153 35.6817 106.383 36.5196 105.344 36.5196C104.339 36.5196 103.535 35.6817 103.535 34.6766V33.9736C103.535 32.9685 104.339 32.1648 105.344 32.1648C106.383 32.1648 107.153 32.9685 107.153 33.9736V34.6766ZM107.153 40.7396V53.8022C107.153 54.8073 106.383 55.611 105.344 55.611C104.339 55.611 103.535 54.8073 103.535 53.8022V40.7396C103.535 39.6679 104.339 38.8966 105.344 38.8966C106.383 38.8966 107.153 39.6679 107.153 40.7396Z" fill="#1896FE"/>
<path d="M125.185 52.8313C125.519 53.8022 124.984 54.8414 124.013 55.1759C123.879 55.21 123.61 55.2766 123.275 55.2766C123.275 55.2766 123.275 55.2766 123.241 55.2766C122.907 55.2766 122.403 55.21 121.934 54.908C121.499 54.6401 121.13 54.2049 120.863 53.7357C120.393 52.7647 120.159 51.5583 120.159 49.7171C120.125 49.0806 119.992 48.6454 119.757 48.2768C119.555 47.9082 119.154 47.5738 118.752 47.3059C118.049 46.8366 117.177 46.5687 116.876 46.5022H112.924V53.7715C112.924 54.7766 112.086 55.6144 111.049 55.6144C110.01 55.6144 109.206 54.7766 109.206 53.7715V34.0077C109.206 32.9685 110.01 32.1648 111.049 32.1648C111.049 32.1648 111.049 32.1648 111.083 32.1648H117.045C121.031 32.1648 124.214 35.3797 124.214 39.3659C124.214 41.5774 123.209 43.5193 121.601 44.8589C122.037 45.1933 122.439 45.596 122.774 46.0977C123.444 47.0687 123.879 48.3093 123.879 49.7153C123.845 50.7204 123.946 51.3569 124.013 51.6914C124.548 51.8603 124.984 52.2613 125.185 52.8313ZM120.496 39.3659C120.496 37.4223 118.955 35.8831 117.045 35.8831H112.926V42.7839H117.045C118.955 42.7822 120.496 41.2413 120.496 39.3659Z" fill="#1896FE"/>
<path d="M141.628 47.2718V53.8364C141.628 54.8074 140.824 55.6111 139.853 55.6111C138.983 55.6111 138.312 54.9746 138.111 54.1709C136.838 55.0753 135.331 55.6111 133.656 55.6111C131.377 55.6111 129.401 54.6725 127.961 53.1658C126.521 51.6249 125.683 49.5482 125.683 47.2701C125.683 44.9596 126.521 42.8829 127.961 41.3744C129.401 39.8335 131.377 38.8625 133.656 38.8625C135.33 38.8625 136.838 39.4325 138.111 40.3369C138.312 39.499 138.981 38.8625 139.853 38.8625C140.824 38.8625 141.628 39.6663 141.628 40.6714V47.2718ZM138.077 47.2718C138.077 45.8657 137.575 44.6593 136.771 43.8214C135.968 42.917 134.828 42.4477 133.656 42.4477C132.449 42.4477 131.311 42.917 130.54 43.8214C129.736 44.6593 129.267 45.864 129.267 47.2718C129.267 48.6455 129.736 49.8502 130.54 50.7222C131.309 51.56 132.449 52.0293 133.656 52.0293C134.828 52.0293 135.966 51.56 136.771 50.7222C137.575 49.8502 138.077 48.6438 138.077 47.2718Z" fill="#1896FE"/>
<path d="M151.783 40.7054C151.783 41.7105 150.912 42.5484 149.907 42.5484H149.07V51.8944C150.109 51.8944 150.912 52.7323 150.912 53.7698C150.912 54.8073 150.109 55.6127 149.07 55.6127C147.027 55.6127 145.351 53.9387 145.351 51.8944V42.5484H144.38C143.341 42.5484 142.537 41.7105 142.537 40.7054C142.537 39.6662 143.341 38.8625 144.38 38.8625H145.351V34.006C145.351 32.9668 146.189 32.1631 147.227 32.1631C148.264 32.1631 149.07 32.9668 149.07 34.006V38.8625H149.907C150.911 38.8642 151.783 39.6679 151.783 40.7054Z" fill="#1896FE"/>
<path d="M151.928 47.2374C151.962 42.6813 155.511 38.864 160.1 38.864C164.455 38.864 167.905 42.113 168.173 46.6351C168.173 46.6692 168.173 46.7357 168.173 46.8023C168.173 46.8688 168.173 47.0361 168.139 47.1043C168.038 47.9081 167.335 48.4439 166.397 48.4439H155.745C155.912 49.2135 156.281 50.0854 156.883 50.6554C157.586 51.4591 158.926 52.0615 160.098 52.1622C161.305 52.2628 162.745 51.9608 163.581 51.3243C164.284 50.5871 165.658 50.6878 166.093 51.2236C166.528 51.6929 166.862 52.698 166.093 53.401C164.451 54.9078 162.475 55.6125 160.096 55.6125C155.511 55.5784 151.962 51.7936 151.928 47.2374ZM155.58 45.5959H165.059C164.724 44.2563 163.016 42.2803 160.102 42.0448C157.254 42.1796 155.848 44.2222 155.58 45.5959Z" fill="#1896FE"/>
<path d="M169.096 50.8209C169.699 50.0172 170.871 49.9165 171.608 50.553C172.478 51.2902 173.987 52.0598 175.292 52.0274C176.197 52.0274 177.034 51.7253 177.57 51.3909C178.04 50.9881 178.173 50.6537 178.173 50.3858C178.173 50.2185 178.139 50.152 178.072 50.0513C178.038 49.9506 177.905 49.8175 177.637 49.6486C177.168 49.3141 176.162 48.9456 174.958 48.7101H174.924C173.884 48.5087 172.881 48.2408 172.009 47.8398C171.105 47.4047 170.301 46.8006 169.699 45.8979C169.33 45.2955 169.129 44.5583 169.129 43.787C169.129 42.2461 169.999 40.9407 171.105 40.1029C172.277 39.2992 173.683 38.864 175.224 38.864C177.534 38.864 179.176 39.9698 180.248 40.707C181.051 41.2428 181.287 42.3485 180.783 43.1864C180.248 43.9901 179.142 44.2256 178.304 43.6556C177.232 42.9526 176.294 42.4168 175.222 42.4168C174.384 42.4168 173.647 42.6847 173.212 43.0192C172.777 43.3212 172.676 43.6215 172.676 43.7887C172.676 43.9218 172.676 43.956 172.743 44.0567C172.777 44.1232 172.876 44.258 173.111 44.3911C173.547 44.6932 174.417 44.9935 175.557 45.1948L175.591 45.229H175.625C176.731 45.4303 177.768 45.7307 178.741 46.1999C179.645 46.6026 180.55 47.2391 181.12 48.176C181.522 48.8466 181.756 49.6162 181.756 50.3875C181.756 52.0291 180.852 53.4027 179.645 54.273C178.439 55.1109 176.932 55.6125 175.29 55.6125C172.678 55.5784 170.668 54.3737 169.328 53.3021C168.593 52.698 168.492 51.5581 169.096 50.8209Z" fill="#1896FE"/> -->
</svg>
