<svg width="104" height="104" viewBox="0 0 104 104" fill="none" xmlns="http://www.w3.org/2000/svg">
<path d="M42.7338 42.9789C40.6128 45.6733 39.5571 49.1521 39.5571 53.4203C39.5571 57.6056 40.5737 60.9627 42.6117 63.4914C43.9117 65.1285 45.9936 66.254 48.2368 66.8631V39.539C46.0425 40.1919 44.0289 41.3418 42.7338 42.9789ZM42.7338 42.9789C40.6128 45.6733 39.5571 49.1521 39.5571 53.4203C39.5571 57.6056 40.5737 60.9627 42.6117 63.4914C43.9117 65.1285 45.9936 66.254 48.2368 66.8631V39.539C46.0425 40.1919 44.0289 41.3418 42.7338 42.9789ZM42.7338 42.9789C40.6128 45.6733 39.5571 49.1521 39.5571 53.4203C39.5571 57.6056 40.5737 60.9627 42.6117 63.4914C43.9117 65.1285 45.9936 66.254 48.2368 66.8631V39.539C46.0425 40.1919 44.0289 41.3418 42.7338 42.9789ZM42.7338 42.9789C40.6128 45.6733 39.5571 49.1521 39.5571 53.4203C39.5571 57.6056 40.5737 60.9627 42.6117 63.4914C43.9117 65.1285 45.9936 66.254 48.2368 66.8631V39.539C46.0425 40.1919 44.0289 41.3418 42.7338 42.9789ZM104 54.1609C104 46.409 99.2399 39.768 92.4759 36.981C93.7711 34.4523 94.4993 31.5873 94.4993 28.5568C94.4993 18.2956 86.1519 9.97367 75.8594 9.97367C73.4842 9.97367 71.2165 10.4171 69.1248 11.2259C66.2658 4.61898 59.6729 0 52 0C44.3026 0 37.6951 4.65308 34.8507 11.2892C32.7199 10.4414 30.3887 9.97367 27.9549 9.97367C23.6346 9.97367 19.6515 11.4402 16.4944 13.9008C15.2726 15.036 14.1045 16.2298 12.9902 17.4771C10.6835 20.571 9.31504 24.4055 9.31504 28.5568C9.31504 31.6166 10.0579 34.501 11.3677 37.0444C4.68684 39.8703 0 46.4723 0 54.1609C0 61.2891 4.02707 67.4818 9.93572 70.5953C9.53008 72.1154 9.31993 73.7087 9.31993 75.3555C9.31993 79.7991 10.8838 83.8772 13.4887 87.0735C13.4887 87.0784 13.4936 87.0832 13.5034 87.0881C14.2511 87.9067 15.0282 88.696 15.8248 89.4658C15.8297 89.4707 15.8346 89.4756 15.8444 89.4804C19.1041 92.2625 23.3316 93.9386 27.9598 93.9386C30.3838 93.9386 32.7004 93.4806 34.8263 92.6377C37.6511 99.3128 44.2831 104 52.0098 104C59.712 104 66.3244 99.342 69.1639 92.6962C71.2459 93.5001 73.5038 93.9386 75.8643 93.9386C86.1617 93.9386 94.5041 85.6167 94.5041 75.3555C94.5041 73.7379 94.2989 72.1739 93.9079 70.683C99.8996 67.5939 104 61.3573 104 54.1609ZM63.2455 73.811C61.3981 74.8975 59.2331 75.6235 56.765 75.9987V79.1462C56.765 81.4947 54.859 83.3949 52.5034 83.3949C50.1477 83.3949 48.2417 81.4898 48.2417 79.1462V75.9451C43.6575 75.1753 39.8553 73.1143 36.8203 69.7718C33.0376 65.5865 31.1462 60.1977 31.1462 53.6103C31.1462 46.7744 33.0767 41.2005 36.9474 36.8885C39.9677 33.5265 43.7357 31.4509 48.2466 30.6665V28.3375C48.2466 25.989 50.1575 24.0888 52.5083 24.0888C53.6861 24.0888 54.7515 24.5663 55.5237 25.3313C56.2959 26.1011 56.7699 27.1633 56.7699 28.3375V30.6031C58.9105 30.9345 60.8263 31.5386 62.5026 32.4156C64.8289 33.6581 65.997 35.2757 65.997 37.2636C65.997 38.4671 65.6207 39.4805 64.8729 40.3088C64.1252 41.1371 63.2113 41.5513 62.1312 41.5513C61.5496 41.5513 60.6944 41.3028 59.5752 40.8058C58.5977 40.3186 57.6643 39.9239 56.7699 39.6218V66.8533C57.7865 66.5951 58.7639 66.2394 59.6974 65.7911C60.9436 65.2113 61.9015 64.919 62.5613 64.919C65.1808 64.919 66.4906 66.2832 66.4906 69.0215C66.4906 70.9315 65.4056 72.5296 63.2455 73.811ZM42.7338 42.9789C40.6128 45.6733 39.5571 49.1521 39.5571 53.4203C39.5571 57.6056 40.5737 60.9627 42.6117 63.4914C43.9117 65.1285 45.9936 66.254 48.2368 66.8631V39.539C46.0425 40.1919 44.0289 41.3418 42.7338 42.9789ZM42.7338 42.9789C40.6128 45.6733 39.5571 49.1521 39.5571 53.4203C39.5571 57.6056 40.5737 60.9627 42.6117 63.4914C43.9117 65.1285 45.9936 66.254 48.2368 66.8631V39.539C46.0425 40.1919 44.0289 41.3418 42.7338 42.9789ZM42.7338 42.9789C40.6128 45.6733 39.5571 49.1521 39.5571 53.4203C39.5571 57.6056 40.5737 60.9627 42.6117 63.4914C43.9117 65.1285 45.9936 66.254 48.2368 66.8631V39.539C46.0425 40.1919 44.0289 41.3418 42.7338 42.9789Z" fill="#190931"/>
</svg>
