<svg width="19" height="19" viewBox="0 0 19 19" fill="none" xmlns="http://www.w3.org/2000/svg">
<g clip-path="url(#clip0_3178_5165)">
<path d="M4.34329 13.25C4.96461 13.25 5.46829 12.7463 5.46829 12.125C5.46829 11.5037 4.96461 11 4.34329 11C3.72197 11 3.21829 11.5037 3.21829 12.125C3.21829 12.7463 3.72197 13.25 4.34329 13.25Z" fill="#818181"/>
<path d="M14.4683 2.75H3.96828C2.97408 2.75119 2.02095 3.14666 1.31795 3.84967C0.614942 4.55267 0.219472 5.5058 0.218281 6.5L0.218281 12.5C0.219472 13.4942 0.614942 14.4473 1.31795 15.1503C2.02095 15.8533 2.97408 16.2488 3.96828 16.25H14.4683C15.4625 16.2488 16.4156 15.8533 17.1186 15.1503C17.8216 14.4473 18.2171 13.4942 18.2183 12.5V6.5C18.2171 5.5058 17.8216 4.55267 17.1186 3.84967C16.4156 3.14666 15.4625 2.75119 14.4683 2.75ZM3.96828 4.25H14.4683C15.065 4.25 15.6373 4.48705 16.0593 4.90901C16.4812 5.33097 16.7183 5.90326 16.7183 6.5H1.71828C1.71828 5.90326 1.95533 5.33097 2.37729 4.90901C2.79925 4.48705 3.37154 4.25 3.96828 4.25ZM14.4683 14.75H3.96828C3.37154 14.75 2.79925 14.5129 2.37729 14.091C1.95533 13.669 1.71828 13.0967 1.71828 12.5V8H16.7183V12.5C16.7183 13.0967 16.4812 13.669 16.0593 14.091C15.6373 14.5129 15.065 14.75 14.4683 14.75Z" fill="#818181"/>
</g>
<defs>
<clipPath id="clip0_3178_5165">
<rect width="18" height="18" fill="white" transform="translate(0.218262 0.5)"/>
</clipPath>
</defs>
</svg>
