<svg width="19" height="19" viewBox="0 0 19 19" fill="none" xmlns="http://www.w3.org/2000/svg">
<path d="M1.27283 10.25C0.858077 10.25 0.522827 9.914 0.522827 9.5C0.522827 4.53725 4.56008 0.5 9.52283 0.5C12.1096 0.5 14.5726 1.6385 16.2728 3.56525V1.25C16.2728 0.836 16.6081 0.5 17.0228 0.5C17.4376 0.5 17.7728 0.836 17.7728 1.25V4.25C17.7728 5.07725 17.1001 5.75 16.2728 5.75H13.2728C12.8581 5.75 12.5228 5.414 12.5228 5C12.5228 4.586 12.8581 4.25 13.2728 4.25H14.8643C13.4641 2.83025 11.5388 2 9.52283 2C5.38733 2 2.02283 5.3645 2.02283 9.5C2.02283 9.914 1.68758 10.25 1.27283 10.25ZM17.7728 8.75C17.3581 8.75 17.0228 9.086 17.0228 9.5C17.0228 13.6355 13.6583 17 9.52283 17C7.50683 17 5.58158 16.1698 4.18058 14.75H5.77283C6.18758 14.75 6.52283 14.414 6.52283 14C6.52283 13.586 6.18758 13.25 5.77283 13.25H2.77283C1.94558 13.25 1.27283 13.9227 1.27283 14.75V17.75C1.27283 18.164 1.60808 18.5 2.02283 18.5C2.43758 18.5 2.77283 18.164 2.77283 17.75V15.4347C4.47308 17.3615 6.93608 18.5 9.52283 18.5C14.4856 18.5 18.5228 14.4628 18.5228 9.5C18.5228 9.086 18.1876 8.75 17.7728 8.75ZM8.66633 15.4393C8.94683 15.4798 9.23558 15.5 9.52283 15.5C12.8311 15.5 15.5228 12.8082 15.5228 9.5C15.5228 8.915 15.4396 8.3375 15.2738 7.78475C15.1546 7.388 14.7376 7.16075 14.3408 7.2815C13.9441 7.4 13.7183 7.81775 13.8368 8.21525C13.9606 8.6285 14.0228 9.0605 14.0228 9.5C14.0228 11.9818 12.0046 14 9.52283 14C9.30683 14 9.09008 13.9842 8.87933 13.9542C8.47283 13.8957 8.09033 14.18 8.03033 14.5903C7.97183 14.9998 8.25683 15.38 8.66708 15.4385L8.66633 15.4393ZM9.52283 5C9.73733 5 9.95408 5.01575 10.1671 5.04575C10.5796 5.105 10.9568 4.8185 11.0153 4.40825C11.0731 3.99875 10.7881 3.6185 10.3778 3.56C10.0951 3.52025 9.80708 3.49925 9.52208 3.49925C6.21383 3.49925 3.52208 6.191 3.52208 9.49925C3.52208 10.082 3.60533 10.6587 3.77033 11.2137C3.86783 11.5392 4.16558 11.75 4.48958 11.75C4.56008 11.75 4.63208 11.7395 4.70333 11.7185C5.10008 11.6007 5.32658 11.183 5.20883 10.7855C5.08508 10.3692 5.02208 9.9365 5.02208 9.49925C5.02208 7.0175 7.04033 4.99925 9.52208 4.99925L9.52283 5ZM10.3673 11.15H8.71433C8.54708 11.15 8.38883 11.0697 8.29133 10.9347C8.18483 10.79 7.96658 10.775 7.87733 10.775C7.59158 10.775 7.40633 10.9595 7.32833 11.1327C7.23008 11.351 7.26383 11.5858 7.41983 11.7628C7.74833 12.1363 8.21933 12.35 8.71508 12.35H8.92358V12.875C8.92358 13.2058 9.19208 13.475 9.52358 13.475C9.85508 13.475 10.1236 13.2058 10.1236 12.875V12.35H10.3681C10.8533 12.35 11.3108 12.1347 11.6228 11.7597C11.9333 11.3855 12.0601 10.8927 11.9701 10.4075C11.8501 9.76775 11.3033 9.24425 10.6111 9.10625L8.59508 8.702C8.39483 8.6615 8.24933 8.48375 8.24933 8.2805C8.24933 8.0435 8.44208 7.85 8.67908 7.85H10.3321C10.4993 7.85 10.6576 7.93025 10.7551 8.06525C10.8616 8.21 11.0798 8.225 11.1691 8.225C11.4548 8.225 11.6401 8.0405 11.7181 7.868C11.8171 7.64975 11.7826 7.41425 11.6273 7.23725C11.2988 6.8645 10.8271 6.65075 10.3313 6.65075H10.1236V6.12575C10.1236 5.795 9.85508 5.52575 9.52358 5.52575C9.19208 5.52575 8.92358 5.795 8.92358 6.12575V6.65075H8.67833C8.19383 6.65075 7.73633 6.866 7.42433 7.24025C7.11383 7.6145 6.98708 8.10725 7.07708 8.59325C7.19633 9.233 7.74233 9.75575 8.43608 9.8945L10.4521 10.298C10.6531 10.3385 10.7986 10.5162 10.7986 10.7203C10.7986 10.9572 10.6051 11.1508 10.3681 11.1508L10.3673 11.15Z" fill="#818181"/>
</svg>
