<svg width="70" height="70" viewBox="0 0 70 70" fill="none" xmlns="http://www.w3.org/2000/svg">
<g clip-path="url(#clip0_169_498)">
<path d="M54.1946 6.24164L35.9217 0.14872C35.3234 -0.0505499 34.6767 -0.0505499 34.0784 0.14872L15.8055 6.24164C12.9002 7.20671 10.3729 9.0628 8.58276 11.5462C6.79259 14.0296 5.83057 17.014 5.83338 20.0754V35C5.83338 57.0587 32.6667 69.2416 33.8159 69.7491C34.1887 69.9148 34.5921 70.0003 35 70.0003C35.408 70.0003 35.8114 69.9148 36.1842 69.7491C37.3334 69.2416 64.1667 57.0587 64.1667 35V20.0754C64.1695 17.014 63.2075 14.0296 61.4173 11.5462C59.6272 9.0628 57.0999 7.20671 54.1946 6.24164ZM48.7609 28.3412L36.3009 40.8012C35.791 41.3145 35.1842 41.7214 34.5158 41.9983C33.8474 42.2752 33.1306 42.4165 32.4071 42.4141H32.3109C31.5726 42.4028 30.8444 42.2419 30.1701 41.9411C29.4958 41.6403 28.8896 41.2059 28.388 40.6641L21.6621 33.6641C21.3708 33.3939 21.1379 33.067 20.9775 32.7034C20.817 32.3399 20.7326 31.9474 20.7293 31.5501C20.726 31.1528 20.804 30.759 20.9583 30.3928C21.1127 30.0267 21.3403 29.696 21.627 29.421C21.9138 29.1459 22.2538 28.9324 22.626 28.7935C22.9983 28.6545 23.395 28.5931 23.7918 28.613C24.1887 28.6329 24.5773 28.7336 24.9338 28.9091C25.2903 29.0845 25.6072 29.331 25.865 29.6333L32.41 36.4583L44.625 24.2083C45.1751 23.677 45.9119 23.383 46.6766 23.3897C47.4414 23.3963 48.1729 23.7031 48.7137 24.2438C49.2545 24.7846 49.5612 25.5161 49.5678 26.2809C49.5745 27.0456 49.2805 27.7824 48.7492 28.3325L48.7609 28.3412Z" fill="url(#paint0_linear_169_498)"/>
</g>
<defs>
<linearGradient id="paint0_linear_169_498" x1="35" y1="-0.000732422" x2="35" y2="70.0003" gradientUnits="userSpaceOnUse">
<stop stop-color="#081521"/>
<stop offset="1" stop-color="#1896FE"/>
</linearGradient>
<clipPath id="clip0_169_498">
<rect width="70" height="70" fill="white"/>
</clipPath>
</defs>
</svg>
