<svg width="18" height="15" viewBox="0 0 18 15" fill="none" xmlns="http://www.w3.org/2000/svg">
<path d="M15.7055 3.76632C15.7165 3.91732 15.7165 4.06832 15.7165 4.22032C15.7165 8.82532 12.2105 14.1323 5.80351 14.1323C3.82951 14.1323 1.99551 13.5603 0.452515 12.5683C0.733515 12.6003 1.00351 12.6103 1.29451 12.6103C2.92351 12.6103 4.42151 12.0603 5.61951 11.1223C4.08751 11.0903 2.80451 10.0863 2.36251 8.70532C2.57751 8.73732 2.79351 8.75932 3.01851 8.75932C3.33251 8.75932 3.64551 8.71632 3.93651 8.64132C2.34051 8.31732 1.14251 6.91532 1.14251 5.22232C1.14251 5.21132 1.14251 5.18932 1.14251 5.17932C1.60651 5.43732 2.14551 5.59932 2.71751 5.62132C1.77951 4.99532 1.16451 3.92732 1.16451 2.72032C1.16451 2.07332 1.33751 1.47932 1.63951 0.961317C3.35451 3.07632 5.93252 4.45732 8.82351 4.60732C8.76851 4.34832 8.73652 4.07832 8.73652 3.80832C8.73652 1.88932 10.2905 0.325317 12.2205 0.325317C13.2235 0.325317 14.1295 0.745317 14.7665 1.42532C15.5535 1.27432 16.3075 0.983317 16.9775 0.584317C16.7185 1.39332 16.1685 2.07332 15.4455 2.50332C16.1475 2.42832 16.8265 2.23432 17.4525 1.96432C16.9775 2.65432 16.3845 3.27032 15.7055 3.76632Z" fill="#D0DAF5"/>
</svg>
