<svg width="70" height="70" viewBox="0 0 70 70" fill="none" xmlns="http://www.w3.org/2000/svg">
<g clip-path="url(#clip0_946_1675)">
<path d="M58.3333 0H11.6667C5.22083 0 0 5.22083 0 11.6667V46.6667C0 53.1125 5.22083 58.3333 11.6667 58.3333H20.1833L31.1208 67.55C32.2292 68.5417 33.6292 69.0375 35.0292 69.0375C36.4292 69.0375 37.7417 68.5708 38.7917 67.6083L50.0208 58.3333H58.3333C64.7792 58.3333 70 53.1125 70 46.6667V11.6667C70 5.22083 64.7792 0 58.3333 0ZM50.0792 28.0583L43.75 33.2208L46.375 41.1833C46.725 42.2625 46.375 43.4583 45.4708 44.1292C44.5667 44.8292 43.3417 44.8583 42.3792 44.2458L35.0292 39.4625L27.7958 44.3042C27.3583 44.5958 26.8333 44.7417 26.3083 44.7417C25.7542 44.7417 25.1708 44.5667 24.7042 44.2167C23.8 43.5458 23.4208 42.35 23.7708 41.2708L26.2792 33.2208L19.9208 28.0583C19.075 27.3292 18.7542 26.1625 19.1333 25.1125C19.5125 24.0625 20.5333 23.3625 21.6417 23.3625H29.6625L32.4917 15.75C32.8708 14.7 33.8917 14 35 14C36.1083 14 37.1292 14.7 37.5083 15.75L40.3375 23.3625H48.3583C49.4667 23.3625 50.4875 24.0625 50.8667 25.1125C51.2458 26.1625 50.925 27.3583 50.0792 28.0875V28.0583Z" fill="url(#paint0_linear_946_1675)"/>
</g>
<defs>
<linearGradient id="paint0_linear_946_1675" x1="35" y1="0" x2="35" y2="69.0375" gradientUnits="userSpaceOnUse">
<stop stop-color="#081521"/>
<stop offset="1" stop-color="#1896FE"/>
</linearGradient>
<clipPath id="clip0_946_1675">
<rect width="70" height="70" fill="white"/>
</clipPath>
</defs>
</svg>
