<svg width="37" height="37" viewBox="0 0 37 37" fill="none" xmlns="http://www.w3.org/2000/svg">
<path d="M15.4271 15.0523C14.7037 15.996 14.3436 17.2144 14.3436 18.7092C14.3436 20.175 14.6903 21.3508 15.3855 22.2364C15.8289 22.8097 16.539 23.2039 17.3041 23.4172V13.8476C16.5556 14.0763 15.8689 14.479 15.4271 15.0523ZM15.4271 15.0523C14.7037 15.996 14.3436 17.2144 14.3436 18.7092C14.3436 20.175 14.6903 21.3508 15.3855 22.2364C15.8289 22.8097 16.539 23.2039 17.3041 23.4172V13.8476C16.5556 14.0763 15.8689 14.479 15.4271 15.0523ZM15.4271 15.0523C14.7037 15.996 14.3436 17.2144 14.3436 18.7092C14.3436 20.175 14.6903 21.3508 15.3855 22.2364C15.8289 22.8097 16.539 23.2039 17.3041 23.4172V13.8476C16.5556 14.0763 15.8689 14.479 15.4271 15.0523ZM15.4271 15.0523C14.7037 15.996 14.3436 17.2144 14.3436 18.7092C14.3436 20.175 14.6903 21.3508 15.3855 22.2364C15.8289 22.8097 16.539 23.2039 17.3041 23.4172V13.8476C16.5556 14.0763 15.8689 14.479 15.4271 15.0523ZM36.3236 18.9686C36.3236 16.2537 34.7001 13.9278 32.393 12.9517C32.8348 12.0661 33.0832 11.0627 33.0832 10.0013C33.0832 6.40761 30.2361 3.49305 26.7255 3.49305C25.9154 3.49305 25.1419 3.64833 24.4285 3.9316C23.4534 1.61769 21.2047 0 18.5876 0C15.9622 0 13.7085 1.62963 12.7384 3.95378C12.0116 3.65686 11.2165 3.49305 10.3864 3.49305C8.9128 3.49305 7.55425 4.00668 6.47742 4.86842C6.06069 5.26602 5.6623 5.68409 5.28224 6.12094C4.49545 7.20452 4.02871 8.54747 4.02871 10.0013C4.02871 11.073 4.28209 12.0832 4.72882 12.9739C2.45014 13.9637 0.851562 16.2759 0.851562 18.9686C0.851562 21.4651 2.22511 23.6339 4.24041 24.7243C4.10206 25.2568 4.03038 25.8148 4.03038 26.3915C4.03038 27.9478 4.5638 29.3761 5.45227 30.4955C5.45227 30.4972 5.45393 30.4989 5.45727 30.5006C5.71231 30.7873 5.97735 31.0637 6.24905 31.3333C6.25072 31.335 6.25239 31.3367 6.25572 31.3384C7.36756 32.3128 8.80944 32.8998 10.388 32.8998C11.2148 32.8998 12.0049 32.7394 12.73 32.4442C13.6935 34.782 15.9555 36.4236 18.5909 36.4236C21.218 36.4236 23.4734 34.7922 24.4418 32.4647C25.1519 32.7462 25.9221 32.8998 26.7272 32.8998C30.2394 32.8998 33.0848 29.9852 33.0848 26.3915C33.0848 25.825 33.0148 25.2772 32.8815 24.7551C34.9251 23.6732 36.3236 21.489 36.3236 18.9686ZM22.4232 25.8506C21.7931 26.2311 21.0546 26.4854 20.2129 26.6168V27.7191C20.2129 28.5416 19.5628 29.2071 18.7593 29.2071C17.9558 29.2071 17.3057 28.5399 17.3057 27.7191V26.598C15.7422 26.3284 14.4453 25.6066 13.4101 24.436C12.12 22.9701 11.4749 21.0828 11.4749 18.7758C11.4749 16.3817 12.1333 14.4295 13.4535 12.9193C14.4836 11.7419 15.7688 11.015 17.3074 10.7402V9.92455C17.3074 9.10206 17.9592 8.43655 18.761 8.43655C19.1627 8.43655 19.5261 8.60378 19.7895 8.87169C20.0528 9.1413 20.2145 9.5133 20.2145 9.92455V10.718C20.9446 10.8341 21.5981 11.0457 22.1698 11.3528C22.9633 11.788 23.3617 12.3545 23.3617 13.0507C23.3617 13.4722 23.2333 13.8271 22.9783 14.1172C22.7232 14.4073 22.4115 14.5524 22.0431 14.5524C21.8448 14.5524 21.5531 14.4653 21.1713 14.2913C20.8379 14.1206 20.5196 13.9824 20.2145 13.8766V23.4138C20.5612 23.3234 20.8946 23.1988 21.213 23.0418C21.6381 22.8388 21.9648 22.7364 22.1898 22.7364C23.0833 22.7364 23.53 23.2142 23.53 24.1732C23.53 24.8421 23.16 25.4018 22.4232 25.8506ZM15.4271 15.0523C14.7037 15.996 14.3436 17.2144 14.3436 18.7092C14.3436 20.175 14.6903 21.3508 15.3855 22.2364C15.8289 22.8097 16.539 23.2039 17.3041 23.4172V13.8476C16.5556 14.0763 15.8689 14.479 15.4271 15.0523ZM15.4271 15.0523C14.7037 15.996 14.3436 17.2144 14.3436 18.7092C14.3436 20.175 14.6903 21.3508 15.3855 22.2364C15.8289 22.8097 16.539 23.2039 17.3041 23.4172V13.8476C16.5556 14.0763 15.8689 14.479 15.4271 15.0523ZM15.4271 15.0523C14.7037 15.996 14.3436 17.2144 14.3436 18.7092C14.3436 20.175 14.6903 21.3508 15.3855 22.2364C15.8289 22.8097 16.539 23.2039 17.3041 23.4172V13.8476C16.5556 14.0763 15.8689 14.479 15.4271 15.0523Z" fill="#1896FE"/>
</svg>
