<svg width="503" height="370" viewBox="0 0 503 370" fill="none" xmlns="http://www.w3.org/2000/svg">
<mask id="mask0_3060_2103" style="mask-type:luminance" maskUnits="userSpaceOnUse" x="256" y="138" width="140" height="100">
<path d="M376.971 138.644L256.392 172.852L274.695 237.368L395.274 203.161L376.971 138.644Z" fill="white"/>
</mask>
<g mask="url(#mask0_3060_2103)">
<path d="M288.476 216.034L387.883 187.749C388.624 187.541 389.417 187.636 390.088 188.012C390.76 188.388 391.256 189.014 391.467 189.755L394.453 200.271C394.66 201.012 394.566 201.806 394.191 202.478C393.816 203.15 393.19 203.646 392.45 203.857L293.043 232.142C292.302 232.35 291.51 232.255 290.838 231.879C290.166 231.503 289.671 230.876 289.459 230.136L286.474 219.62C286.266 218.879 286.36 218.085 286.735 217.413C287.11 216.741 287.736 216.245 288.476 216.034Z" fill="#394CF9"/>
<path d="M275.51 202.316L374.917 174.031C375.657 173.823 376.45 173.918 377.122 174.294C377.794 174.67 378.289 175.297 378.501 176.037L381.486 186.553C381.694 187.295 381.6 188.088 381.225 188.76C380.85 189.432 380.223 189.928 379.484 190.139L280.077 218.424C279.336 218.632 278.543 218.537 277.871 218.161C277.2 217.785 276.704 217.159 276.493 216.418L273.507 205.902C273.299 205.161 273.393 204.367 273.769 203.695C274.144 203.023 274.77 202.527 275.51 202.316Z" fill="#394CF9"/>
<path d="M263.758 188.262L363.164 159.977C363.905 159.77 364.698 159.864 365.37 160.24C366.042 160.616 366.537 161.243 366.749 161.984L369.734 172.499C369.942 173.241 369.848 174.034 369.473 174.706C369.097 175.378 368.471 175.874 367.731 176.085L268.345 204.351C267.604 204.559 266.811 204.464 266.14 204.088C265.468 203.712 264.972 203.085 264.761 202.344L261.776 191.828C261.566 191.092 261.657 190.303 262.029 189.634C262.401 188.966 263.023 188.472 263.758 188.262Z" fill="#394CF9"/>
<path d="M268.198 169.587L367.605 141.302C368.345 141.094 369.138 141.188 369.81 141.564C370.482 141.94 370.977 142.567 371.189 143.308L374.174 153.824C374.382 154.565 374.288 155.359 373.913 156.031C373.537 156.703 372.911 157.198 372.172 157.41L272.765 185.695C272.024 185.902 271.231 185.808 270.56 185.432C269.888 185.056 269.392 184.43 269.181 183.689L266.196 173.173C265.987 172.432 266.081 171.638 266.456 170.966C266.832 170.294 267.458 169.798 268.198 169.587Z" fill="#394CF9"/>
<path d="M311.475 157.282L376.521 208.4L293.045 232.163L311.475 157.282Z" fill="#5B527D"/>
<path d="M295.542 214.024L293.151 214.702L297.722 230.812L300.112 230.133L295.542 214.024Z" fill="#94ACFF"/>
<path d="M295.387 222.653L297.7 230.839L300.109 230.147L296.589 217.767L295.387 222.653Z" fill="#7772AD"/>
<path d="M308.277 210.409L305.886 211.087L310.456 227.196L312.847 226.518L308.277 210.409Z" fill="#7772AD"/>
<path d="M321.007 206.776L318.616 207.454L323.186 223.564L325.577 222.885L321.007 206.776Z" fill="#7772AD"/>
<path d="M333.736 203.142L331.345 203.82L335.915 219.93L338.306 219.252L333.736 203.142Z" fill="#7772AD"/>
<path d="M346.472 199.529L344.081 200.207L348.651 216.317L351.042 215.638L346.472 199.529Z" fill="#7772AD"/>
<path d="M359.206 195.914L356.815 196.592L361.385 212.701L363.776 212.023L359.206 195.914Z" fill="#7772AD"/>
<path d="M282.576 200.308L280.186 200.986L284.756 217.096L287.146 216.418L282.576 200.308Z" fill="#94ACFF"/>
<path d="M295.304 196.673L292.913 197.352L297.483 213.461L299.874 212.783L295.304 196.673Z" fill="#94ACFF"/>
<path d="M308.04 193.06L305.649 193.738L310.22 209.848L312.61 209.17L308.04 193.06Z" fill="#7772AD"/>
<path d="M320.775 189.446L318.384 190.124L322.954 206.234L325.345 205.555L320.775 189.446Z" fill="#7772AD"/>
<path d="M270.826 186.256L268.436 186.935L273.006 203.044L275.396 202.366L270.826 186.256Z" fill="#94ACFF"/>
<path d="M283.555 182.622L281.165 183.3L285.735 199.409L288.125 198.731L283.555 182.622Z" fill="#94ACFF"/>
<path d="M296.309 179.002L293.918 179.681L298.489 195.79L300.879 195.112L296.309 179.002Z" fill="#94ACFF"/>
<path d="M309.038 175.369L306.647 176.047L311.217 192.156L313.608 191.478L309.038 175.369Z" fill="#7772AD"/>
<path d="M275.263 167.578L272.872 168.256L277.442 184.365L279.833 183.687L275.263 167.578Z" fill="#94ACFF"/>
<path d="M287.992 163.944L285.602 164.622L290.172 180.732L292.562 180.053L287.992 163.944Z" fill="#94ACFF"/>
<path d="M300.727 160.33L298.336 161.008L302.907 177.117L305.297 176.439L300.727 160.33Z" fill="#94ACFF"/>
<path d="M371.954 192.275L369.563 192.953L374.133 209.063L376.524 208.384L371.954 192.275Z" fill="#94ACFF"/>
<path d="M384.689 188.662L382.298 189.34L386.868 205.449L389.259 204.771L384.689 188.662Z" fill="#94ACFF"/>
<path d="M333.523 185.807L331.132 186.485L335.703 202.595L338.093 201.917L333.523 185.807Z" fill="#7772AD"/>
<path d="M346.256 182.193L343.866 182.871L348.436 198.981L350.827 198.302L346.256 182.193Z" fill="#94ACFF"/>
<path d="M358.986 178.559L356.596 179.237L361.166 195.347L363.557 194.669L358.986 178.559Z" fill="#94ACFF"/>
<path d="M371.721 174.946L369.331 175.624L373.901 191.734L376.291 191.055L371.721 174.946Z" fill="#94ACFF"/>
<path d="M321.772 171.754L319.381 172.433L323.952 188.542L326.342 187.864L321.772 171.754Z" fill="#94ACFF"/>
<path d="M334.502 168.122L332.111 168.8L336.681 184.909L339.072 184.231L334.502 168.122Z" fill="#94ACFF"/>
<path d="M347.236 164.507L344.846 165.186L349.416 181.295L351.807 180.617L347.236 164.507Z" fill="#94ACFF"/>
<path d="M359.965 160.874L357.574 161.552L362.144 177.661L364.535 176.983L359.965 160.874Z" fill="#94ACFF"/>
<path d="M313.456 156.697L311.065 157.375L315.635 173.485L318.026 172.806L313.456 156.697Z" fill="#94ACFF"/>
<path d="M326.191 153.083L323.8 153.761L328.37 169.87L330.761 169.192L326.191 153.083Z" fill="#94ACFF"/>
<path d="M338.94 149.444L336.549 150.122L341.119 166.232L343.51 165.553L338.94 149.444Z" fill="#94ACFF"/>
<path d="M351.674 145.829L349.284 146.507L353.854 162.616L356.245 161.938L351.674 145.829Z" fill="#94ACFF"/>
<path d="M364.409 142.215L362.018 142.894L366.588 159.003L368.979 158.325L364.409 142.215Z" fill="#94ACFF"/>
<path d="M299.894 212.815L298.767 208.905L297.647 213.447L299.894 212.815Z" fill="#7772AD"/>
</g>
<mask id="mask1_3060_2103" style="mask-type:luminance" maskUnits="userSpaceOnUse" x="69" y="198" width="435" height="126">
<path d="M503.663 198.412H69.375V323.75H503.663V198.412Z" fill="white"/>
</mask>
<g mask="url(#mask1_3060_2103)">
<path d="M69.375 323.75L503.663 198.412V323.75H69.375Z" fill="#DCDDE2"/>
<path d="M485.527 207.901L497.223 214.576C497.672 214.831 498.067 215.172 498.383 215.58C498.7 215.988 498.933 216.455 499.068 216.952C499.203 217.45 499.239 217.97 499.172 218.482C499.105 218.993 498.938 219.487 498.679 219.933C498.564 220.131 498.434 220.321 498.292 220.501L479.02 243.612C478.69 244.011 478.284 244.341 477.826 244.583C477.367 244.825 476.865 244.973 476.348 245.02C475.832 245.066 475.311 245.01 474.817 244.854C474.322 244.698 473.864 244.445 473.468 244.111C473.445 244.088 473.399 244.066 473.377 244.043L450.622 223.952C449.839 223.258 449.364 222.284 449.3 221.241C449.236 220.199 449.589 219.173 450.281 218.39C450.751 217.86 451.357 217.468 452.033 217.255L482.365 207.584C482.884 207.409 483.435 207.346 483.98 207.401C484.526 207.456 485.053 207.627 485.527 207.901Z" fill="#EEEFF5"/>
<path d="M432.532 226.971L454.854 234.1C455.248 234.222 455.613 234.421 455.928 234.686C456.244 234.95 456.503 235.275 456.692 235.64C456.88 236.006 456.994 236.405 457.026 236.815C457.058 237.224 457.008 237.637 456.88 238.027C456.812 238.241 456.72 238.447 456.606 238.64L445.662 257.437C445.241 258.156 444.553 258.678 443.746 258.891C442.94 259.104 442.083 258.989 441.361 258.572C440.789 258.233 440.336 257.726 440.064 257.119L428.664 231.194C428.497 230.817 428.407 230.411 428.398 229.999C428.389 229.587 428.461 229.177 428.611 228.793C428.761 228.409 428.986 228.058 429.272 227.761C429.559 227.464 429.901 227.227 430.28 227.062C430.997 226.772 431.794 226.74 432.532 226.971Z" fill="#EEEFF5"/>
<path d="M459.269 245.654L443.91 271.353C443.668 271.763 443.531 272.227 443.513 272.702C443.494 273.178 443.595 273.651 443.804 274.078C444.014 274.506 444.327 274.874 444.715 275.152C445.102 275.429 445.553 275.606 446.026 275.666L487.052 280.752C487.765 280.838 488.485 280.656 489.07 280.24C489.655 279.824 490.064 279.205 490.215 278.504L495.198 255.325C495.355 254.598 495.222 253.838 494.827 253.206C494.432 252.575 493.806 252.122 493.082 251.943L462.432 244.36C461.835 244.205 461.205 244.248 460.634 244.481C460.064 244.714 459.585 245.126 459.269 245.654Z" fill="#EEEFF5"/>
<path d="M494.584 234.463L488.167 242.431C488.035 242.595 487.936 242.783 487.877 242.984C487.818 243.186 487.8 243.398 487.823 243.607C487.847 243.816 487.911 244.018 488.013 244.202C488.115 244.386 488.253 244.548 488.418 244.678C488.701 244.907 489.054 245.035 489.419 245.042H496.268C496.696 245.04 497.106 244.87 497.408 244.568C497.711 244.266 497.882 243.857 497.883 243.43V243.339L497.474 235.371C497.45 234.945 497.261 234.546 496.946 234.257C496.632 233.969 496.217 233.814 495.79 233.827C495.554 233.837 495.324 233.9 495.115 234.01C494.907 234.12 494.725 234.274 494.584 234.463Z" fill="#EEEFF5"/>
<path d="M442.409 285.201L448.074 316.19C448.205 316.912 448.587 317.566 449.153 318.035C449.719 318.504 450.433 318.759 451.169 318.755H494.698C495.53 318.753 496.328 318.423 496.916 317.835C497.505 317.248 497.836 316.452 497.838 315.622V315.531L497.064 289.923C497.043 289.168 496.747 288.445 496.232 287.89C495.718 287.335 495.019 286.985 494.265 286.904L445.844 281.501C445.435 281.455 445.02 281.49 444.624 281.605C444.229 281.719 443.859 281.911 443.538 282.168C443.216 282.426 442.949 282.744 442.751 283.105C442.554 283.465 442.429 283.862 442.386 284.271C442.336 284.58 442.344 284.895 442.409 285.201Z" fill="#EEEFF5"/>
<path d="M419.54 229.354L388.685 237.05C388.131 237.188 387.624 237.476 387.222 237.881C386.819 238.286 386.535 238.793 386.402 239.348C386.268 239.903 386.289 240.484 386.463 241.027C386.637 241.571 386.957 242.056 387.388 242.431L406.98 259.571C407.478 260.002 408.1 260.267 408.757 260.328C409.414 260.389 410.074 260.243 410.643 259.911L429.575 248.696C430.279 248.28 430.793 247.605 431.005 246.816C431.218 246.027 431.113 245.187 430.713 244.474L423.022 230.853C422.69 230.253 422.168 229.781 421.538 229.509C420.908 229.238 420.205 229.184 419.54 229.354Z" fill="#EEEFF5"/>
<path d="M433.807 254.621L440.724 266.653C441.006 267.137 441.152 267.687 441.148 268.246C441.144 268.805 440.99 269.352 440.701 269.832L435.104 279.185C434.777 279.738 434.286 280.176 433.7 280.44C433.113 280.704 432.459 280.781 431.827 280.66L402.975 275.257C402.57 275.182 402.183 275.027 401.838 274.803C401.493 274.578 401.196 274.288 400.963 273.948C400.731 273.609 400.568 273.227 400.483 272.824C400.399 272.422 400.395 272.006 400.472 271.602C400.559 271.162 400.738 270.744 400.996 270.377C401.255 270.009 401.588 269.7 401.974 269.468L429.484 253.464C429.844 253.256 430.241 253.122 430.653 253.068C431.065 253.014 431.484 253.041 431.886 253.149C432.287 253.256 432.663 253.442 432.993 253.694C433.323 253.947 433.599 254.262 433.807 254.621Z" fill="#EEEFF5"/>
<path d="M380.336 244.27L399.313 260.048C399.951 260.579 400.353 261.34 400.43 262.166C400.506 262.991 400.252 263.813 399.722 264.452C399.513 264.699 399.267 264.913 398.994 265.088L375.808 279.799C375.46 280.021 375.072 280.172 374.666 280.243C374.26 280.314 373.844 280.304 373.441 280.213C373.039 280.122 372.659 279.952 372.323 279.714C371.987 279.475 371.702 279.172 371.484 278.822C371.078 278.198 370.916 277.447 371.029 276.711L375.262 246.222C375.382 245.402 375.823 244.662 376.488 244.164C377.153 243.667 377.988 243.452 378.811 243.566C379.373 243.662 379.899 243.905 380.336 244.27Z" fill="#EEEFF5"/>
<path d="M366.34 243.249L326.589 254.486C325.789 254.712 325.113 255.246 324.708 255.97C324.302 256.693 324.201 257.548 324.427 258.345C324.518 258.689 324.672 259.012 324.882 259.299L342.608 284.089C342.93 284.537 343.365 284.891 343.868 285.118C344.371 285.345 344.925 285.437 345.475 285.383L362.609 283.681C363.308 283.611 363.964 283.309 364.472 282.824C364.979 282.338 365.309 281.697 365.407 281.002L370.299 246.699C370.414 245.878 370.199 245.044 369.7 244.381C369.201 243.718 368.46 243.278 367.637 243.158C367.204 243.086 366.759 243.117 366.34 243.249Z" fill="#EEEFF5"/>
<path d="M388.594 278.255L364.429 291.581C363.853 291.9 363.391 292.391 363.109 292.986C362.828 293.58 362.74 294.248 362.859 294.895L366.819 316.19C366.953 316.91 367.336 317.561 367.902 318.03C368.467 318.498 369.178 318.755 369.913 318.755H395.398C396.23 318.753 397.028 318.423 397.617 317.836C398.205 317.248 398.536 316.453 398.538 315.622C398.534 315.462 398.519 315.303 398.493 315.145L393.214 280.502C393.152 280.095 393.011 279.704 392.799 279.352C392.586 278.999 392.306 278.692 391.974 278.447C391.642 278.203 391.266 278.026 390.865 277.926C390.465 277.827 390.049 277.808 389.641 277.869C389.273 277.939 388.92 278.07 388.594 278.255Z" fill="#EEEFF5"/>
<path d="M402.338 279.798L434.74 286.359C435.548 286.524 436.259 287 436.719 287.684C437.179 288.368 437.351 289.205 437.197 290.014L432.805 312.716C432.648 313.521 432.181 314.232 431.506 314.699C430.83 315.165 429.998 315.35 429.188 315.213L404.841 311.082C404.187 310.973 403.585 310.659 403.123 310.185C402.66 309.712 402.361 309.103 402.269 308.448L398.606 283.34C398.486 282.519 398.696 281.683 399.19 281.016C399.684 280.348 400.423 279.902 401.245 279.776C401.608 279.715 401.978 279.723 402.338 279.798Z" fill="#EEEFF5"/>
<path d="M330.548 288.993L354.486 291.536C355.255 291.618 355.966 291.981 356.483 292.555C357 293.129 357.285 293.874 357.284 294.646V315.463C357.283 316.294 356.951 317.09 356.363 317.677C355.774 318.264 354.977 318.595 354.144 318.596H354.008L325.906 317.302C325.495 317.283 325.092 317.184 324.72 317.009C324.348 316.834 324.013 316.588 323.737 316.284C323.46 315.981 323.246 315.626 323.106 315.239C322.967 314.853 322.906 314.443 322.925 314.033C322.929 313.888 322.945 313.744 322.971 313.602L327.135 291.536C327.278 290.761 327.71 290.069 328.342 289.597C328.975 289.126 329.763 288.91 330.548 288.993Z" fill="#EEEFF5"/>
<path d="M329.433 283.885L311.707 285.361C311.007 285.414 310.31 285.233 309.724 284.847C309.139 284.46 308.7 283.89 308.476 283.227L302.423 265.065C302.161 264.279 302.223 263.422 302.594 262.681C302.965 261.941 303.616 261.377 304.403 261.115C304.426 261.115 304.448 261.092 304.471 261.092L314.21 258.073C314.84 257.873 315.519 257.88 316.145 258.092C316.772 258.305 317.313 258.712 317.691 259.253L331.708 278.959C332.187 279.636 332.377 280.476 332.237 281.293C332.096 282.11 331.636 282.839 330.957 283.317C330.51 283.641 329.983 283.837 329.433 283.885Z" fill="#EEEFF5"/>
<path d="M283.743 266.609L262.286 272.874C261.499 273.102 260.833 273.63 260.433 274.344C260.033 275.058 259.93 275.9 260.147 276.688L264.174 291.467C264.281 291.864 264.466 292.236 264.717 292.562C264.968 292.887 265.281 293.16 265.639 293.365C265.996 293.57 266.39 293.702 266.799 293.754C267.207 293.806 267.622 293.777 268.02 293.669C268.648 293.51 269.207 293.151 269.613 292.648L287.042 271.603C289.022 269.242 286.701 265.746 283.743 266.609Z" fill="#EEEFF5"/>
<path d="M298.1 274.077L305.154 294.759C305.397 295.471 305.374 296.246 305.089 296.942C304.805 297.639 304.279 298.21 303.607 298.55L283.856 308.607C283.258 308.916 282.575 309.024 281.911 308.913C281.246 308.803 280.635 308.48 280.17 307.994L272.07 299.549C271.513 298.974 271.201 298.207 271.196 297.408C271.192 296.609 271.497 295.839 272.047 295.258L292.844 272.965C293.211 272.567 293.676 272.272 294.193 272.107C294.709 271.943 295.259 271.916 295.79 272.028C296.32 272.14 296.812 272.388 297.217 272.747C297.622 273.107 297.927 273.565 298.1 274.077Z" fill="#EEEFF5"/>
<path d="M313.255 291.831H318.716C319.548 291.833 320.346 292.163 320.934 292.751C321.523 293.338 321.854 294.134 321.856 294.964C321.86 295.101 321.852 295.237 321.833 295.373L319.512 312.989C319.428 313.638 319.141 314.245 318.692 314.722C318.242 315.198 317.654 315.522 317.009 315.645L306.861 317.666C306.456 317.746 306.039 317.745 305.635 317.664C305.23 317.583 304.845 317.423 304.503 317.193C304.16 316.963 303.867 316.668 303.639 316.324C303.411 315.981 303.253 315.596 303.175 315.191C303.064 314.639 303.103 314.067 303.289 313.534L310.32 293.897C310.535 293.292 310.932 292.768 311.458 292.398C311.984 292.028 312.612 291.83 313.255 291.831Z" fill="#EEEFF5"/>
<path d="M284.676 312.331L295.052 307.745C295.812 307.41 296.675 307.389 297.451 307.687C298.227 307.984 298.854 308.577 299.193 309.334C299.373 309.734 299.466 310.167 299.466 310.605C299.466 311.044 299.373 311.477 299.193 311.877L295.916 319.141C295.67 319.688 295.27 320.153 294.766 320.479C294.261 320.805 293.673 320.979 293.072 320.98H284.858C284.026 320.979 283.228 320.648 282.639 320.061C282.051 319.474 281.719 318.678 281.718 317.847C281.722 317.434 281.807 317.025 281.968 316.644L283.106 313.943C283.245 313.582 283.456 313.254 283.726 312.977C283.996 312.7 284.319 312.48 284.676 312.331Z" fill="#EEEFF5"/>
<path d="M268.565 303.432L276.802 311.014C277.328 311.498 277.673 312.146 277.781 312.852C277.888 313.557 277.752 314.278 277.394 314.896L274.709 319.482C274.431 319.952 274.035 320.341 273.56 320.612C273.085 320.882 272.548 321.025 272.001 321.026H249.861C246.835 321.026 245.561 317.167 247.996 315.373L264.583 303.228C265.165 302.789 265.884 302.569 266.612 302.607C267.34 302.644 268.032 302.936 268.565 303.432Z" fill="#EEEFF5"/>
<path d="M260.328 297.233L253.024 278.209C252.75 277.491 252.22 276.9 251.535 276.548C250.851 276.196 250.061 276.108 249.315 276.302L222.67 283.021C222.27 283.123 221.893 283.302 221.562 283.548C221.231 283.795 220.952 284.104 220.74 284.458C220.529 284.812 220.39 285.204 220.33 285.612C220.271 286.02 220.293 286.436 220.395 286.835C220.526 287.403 220.828 287.918 221.259 288.311L243.308 309.515C243.846 310.033 244.552 310.343 245.299 310.389C246.045 310.435 246.784 310.213 247.381 309.764L259.259 300.865C259.809 300.458 260.21 299.883 260.403 299.228C260.596 298.572 260.57 297.872 260.328 297.233Z" fill="#EEEFF5"/>
<path d="M216.571 290.695L235.821 310.332C236.4 310.927 236.72 311.726 236.712 312.555C236.703 313.384 236.367 314.176 235.776 314.759C235.736 314.804 235.69 314.842 235.639 314.873L231.134 318.8C230.739 319.147 230.264 319.389 229.751 319.504C229.238 319.619 228.704 319.603 228.199 319.458L207.765 313.601C207.369 313.488 206.998 313.297 206.676 313.04C206.353 312.783 206.085 312.465 205.886 312.105C205.687 311.744 205.562 311.347 205.517 310.938C205.473 310.528 205.51 310.114 205.626 309.719C205.626 309.697 205.649 309.651 205.649 309.629L211.36 291.921C211.489 291.53 211.693 291.169 211.961 290.857C212.23 290.545 212.557 290.289 212.925 290.103C213.293 289.918 213.693 289.806 214.104 289.775C214.515 289.745 214.928 289.795 215.32 289.923C215.79 290.083 216.218 290.347 216.571 290.695Z" fill="#EEEFF5"/>
<path d="M198.346 290.969L172.588 298.846C172.194 298.965 171.828 299.161 171.51 299.422C171.192 299.683 170.929 300.004 170.737 300.368C170.544 300.731 170.426 301.128 170.388 301.537C170.35 301.946 170.395 302.359 170.518 302.751C170.591 302.999 170.698 303.236 170.836 303.455L179.233 317.257C179.514 317.715 179.909 318.094 180.379 318.356C180.849 318.618 181.379 318.756 181.918 318.756H194.705C195.427 318.755 196.127 318.506 196.686 318.052C197.245 317.597 197.631 316.964 197.777 316.259L202.351 294.578C202.525 293.765 202.368 292.917 201.916 292.219C201.464 291.521 200.753 291.031 199.939 290.855C199.406 290.778 198.863 290.817 198.346 290.969Z" fill="#EEEFF5"/>
<path d="M163.169 304.657L166.173 314.919C166.403 315.716 166.307 316.573 165.906 317.3C165.506 318.028 164.832 318.567 164.034 318.801C163.798 318.873 163.553 318.912 163.306 318.914L143.942 319.732C143.11 319.762 142.3 319.465 141.687 318.904C141.074 318.343 140.706 317.564 140.665 316.735C140.642 316.381 140.688 316.026 140.802 315.691L143.032 308.517C143.186 308.015 143.466 307.561 143.844 307.196C144.222 306.83 144.686 306.566 145.193 306.428L159.324 302.501C160.12 302.281 160.971 302.384 161.692 302.788C162.412 303.192 162.943 303.864 163.169 304.657Z" fill="#EEEFF5"/>
<path d="M124.963 318.323C125.568 318.771 126.315 318.988 127.066 318.933C127.818 318.879 128.525 318.558 129.059 318.028C131.335 315.758 129.127 311.944 126.01 312.784C125.611 312.892 125.237 313.078 124.909 313.33C124.582 313.583 124.308 313.897 124.103 314.256C123.898 314.615 123.766 315.01 123.714 315.42C123.663 315.829 123.693 316.245 123.803 316.643C123.983 317.32 124.393 317.914 124.963 318.323Z" fill="#EEEFF5"/>
</g>
<mask id="mask2_3060_2103" style="mask-type:luminance" maskUnits="userSpaceOnUse" x="403" y="199" width="50" height="28">
<path d="M448.397 199.165L403.036 212.12L407.227 226.796L452.588 213.84L448.397 199.165Z" fill="white"/>
</mask>
<g mask="url(#mask2_3060_2103)">
<path d="M407.226 226.795C407.226 226.795 421.064 215.736 426.735 219.472C426.735 219.472 430.103 217.164 436.351 212.798C441.926 208.907 444.031 216.26 444.031 216.26L407.226 226.795Z" fill="#5B527D"/>
<path d="M435.825 204.54C435.81 203.781 435.168 203.185 434.392 203.209C433.616 203.234 432.999 203.87 433.014 204.63C433.029 205.39 433.671 205.986 434.447 205.961C435.223 205.936 435.84 205.3 435.825 204.54Z" fill="#5B527D"/>
<path d="M446.992 202.239C447.409 202.12 447.851 202.123 448.263 202.25C448.674 202.377 449.036 202.621 449.304 202.951C449.571 203.281 449.731 203.683 449.764 204.105C449.797 204.527 449.701 204.951 449.489 205.323C449.276 205.696 448.957 205.999 448.571 206.196C448.184 206.392 447.749 206.473 447.319 206.427C446.889 206.382 446.484 206.213 446.156 205.941C445.827 205.669 445.589 205.307 445.473 204.9C445.317 204.354 445.389 203.767 445.674 203.269C445.959 202.77 446.433 202.399 446.992 202.239Z" fill="#5B527D"/>
<path d="M421.233 216.304C422.398 215.971 423.079 214.78 422.755 213.644C422.43 212.508 421.223 211.856 420.058 212.189C418.893 212.521 418.212 213.712 418.537 214.848C418.861 215.985 420.069 216.636 421.233 216.304Z" fill="#5B527D"/>
</g>
<mask id="mask3_3060_2103" style="mask-type:luminance" maskUnits="userSpaceOnUse" x="316" y="220" width="55" height="31">
<path d="M366.319 220.905L316.905 234.826L321.42 250.852L370.834 236.931L366.319 220.905Z" fill="white"/>
</mask>
<g mask="url(#mask3_3060_2103)">
<path d="M321.42 250.852C321.42 250.852 325.342 244.953 333.189 244.238C333.189 244.238 342.227 237.772 347.046 236.38C354.134 234.34 356.391 240.883 356.391 240.883L321.42 250.852Z" fill="#5B527D"/>
<path d="M343.726 228.722C344.184 228.59 344.669 228.593 345.122 228.732C345.574 228.87 345.973 229.138 346.267 229.501C346.562 229.864 346.74 230.305 346.777 230.77C346.815 231.235 346.711 231.701 346.479 232.111C346.248 232.521 345.898 232.856 345.474 233.073C345.051 233.29 344.573 233.379 344.101 233.33C343.628 233.281 343.183 233.096 342.821 232.797C342.46 232.498 342.197 232.1 342.068 231.653C341.982 231.356 341.957 231.044 341.993 230.736C342.03 230.428 342.129 230.129 342.283 229.857C342.437 229.585 342.643 229.345 342.891 229.15C343.139 228.955 343.423 228.81 343.726 228.722Z" fill="#5B527D"/>
<path d="M351.77 225.004C351.983 224.942 352.21 224.943 352.42 225.008C352.631 225.073 352.817 225.197 352.954 225.366C353.092 225.535 353.175 225.741 353.192 225.958C353.21 226.174 353.161 226.392 353.053 226.583C352.945 226.774 352.782 226.93 352.585 227.031C352.388 227.132 352.165 227.174 351.945 227.151C351.725 227.128 351.517 227.042 351.349 226.903C351.18 226.764 351.058 226.578 350.997 226.369C350.917 226.09 350.953 225.789 351.097 225.533C351.242 225.277 351.484 225.086 351.77 225.004Z" fill="#5B527D"/>
<path d="M356.883 229.989C357.385 229.844 357.918 229.848 358.414 230C358.91 230.152 359.347 230.445 359.671 230.843C359.994 231.242 360.189 231.726 360.23 232.236C360.272 232.746 360.158 233.258 359.903 233.707C359.649 234.157 359.265 234.524 358.801 234.762C358.336 235 357.812 235.099 357.294 235.045C356.776 234.991 356.287 234.787 355.89 234.46C355.493 234.132 355.206 233.695 355.064 233.204C354.969 232.879 354.941 232.537 354.982 232.199C355.022 231.861 355.13 231.533 355.299 231.235C355.468 230.936 355.695 230.672 355.966 230.458C356.238 230.245 356.55 230.085 356.883 229.989Z" fill="#5B527D"/>
<path d="M367.052 229.757C367.371 229.664 367.711 229.667 368.027 229.764C368.343 229.861 368.622 230.048 368.828 230.301C369.034 230.555 369.158 230.864 369.184 231.188C369.211 231.513 369.138 231.84 368.976 232.126C368.814 232.413 368.57 232.647 368.274 232.798C367.978 232.95 367.643 233.012 367.313 232.978C366.983 232.944 366.672 232.814 366.419 232.605C366.166 232.397 365.983 232.118 365.892 231.805C365.771 231.386 365.825 230.935 366.042 230.55C366.26 230.166 366.623 229.881 367.052 229.757Z" fill="#5B527D"/>
</g>
<mask id="mask4_3060_2103" style="mask-type:luminance" maskUnits="userSpaceOnUse" x="231" y="21" width="93" height="149">
<path d="M284.299 21.8671L231.482 37.3428L270.236 169.607L323.053 154.131L284.299 21.8671Z" fill="white"/>
</mask>
<g mask="url(#mask4_3060_2103)">
<path d="M251.846 65.0185L293.108 137.418L284.638 139.35C284.638 139.35 282.832 138.583 283.501 132.963C284.17 127.343 283.326 124.702 278.088 124.898C272.851 125.094 268.73 124.33 268.285 117.557C267.839 110.784 267.404 109.925 259.83 109.326C252.257 108.728 248.01 101.223 248.413 87.8053C248.707 77.6742 251.846 65.0185 251.846 65.0185Z" fill="#34AB53"/>
<path d="M266.134 110.651C266.214 110.692 266.288 110.747 266.35 110.813C266.405 110.853 266.459 110.894 266.496 110.925L266.609 111.019C266.687 111.094 266.749 111.161 266.811 111.227C266.846 111.261 266.876 111.3 266.901 111.342C266.966 111.421 267.019 111.504 267.085 111.584C267.202 111.756 267.303 111.938 267.386 112.129L267.516 112.429C267.613 112.711 267.7 113.009 267.771 113.299C267.791 113.359 267.805 113.421 267.811 113.484C267.855 113.683 267.886 113.885 267.921 114.1C267.927 114.169 267.95 114.247 267.956 114.315C267.99 114.531 268.02 114.775 268.049 115.02L268.079 115.265C268.148 115.935 268.201 116.695 268.251 117.54C268.696 124.313 272.817 125.077 278.055 124.881C279.617 124.818 280.776 125.014 281.642 125.464L281.609 125.446C278.652 123.692 274.968 124.081 272.456 120.52C270.384 117.591 270.744 112.315 269.594 108.777C267.868 103.464 262.556 100.752 257.591 98.6988C255.696 97.9158 253.741 97.122 252.371 95.5792C250.87 93.8775 250.273 91.5024 249.75 89.1899C249.328 87.3132 248.927 85.4159 248.643 83.4843C248.605 83.8338 248.583 84.1925 248.557 84.5382L248.559 84.5939C248.529 84.9266 248.504 85.2723 248.487 85.6012L248.484 85.6866C248.467 86.0155 248.438 86.3482 248.434 86.6733L248.427 86.7458L248.389 87.7714C248.358 88.823 248.355 89.8242 248.374 90.8048C248.389 91.1948 248.401 91.5718 248.416 91.9617C248.425 92.1846 248.434 92.4074 248.456 92.6264C248.475 92.9309 248.493 93.2354 248.525 93.5361C248.649 95.0839 248.883 96.6209 249.223 98.1357C249.33 98.5975 249.446 99.0424 249.559 99.4744C249.827 100.432 250.168 101.369 250.577 102.276C250.628 102.401 250.692 102.524 250.739 102.637C250.915 102.994 251.086 103.338 251.284 103.675C251.343 103.786 251.407 103.894 251.477 103.998C251.728 104.417 252.002 104.821 252.298 105.209C252.367 105.301 252.45 105.39 252.519 105.482C252.808 105.843 253.12 106.184 253.454 106.504C253.611 106.663 253.777 106.811 253.952 106.95C254.118 107.085 254.302 107.228 254.481 107.359C255.282 107.948 256.17 108.411 257.113 108.729C257.223 108.767 257.317 108.796 257.427 108.835C257.859 108.969 258.301 109.075 258.748 109.152C259.089 109.207 259.443 109.258 259.789 109.283C260.267 109.326 260.716 109.364 261.122 109.4C261.643 109.445 262.126 109.5 262.582 109.564L262.846 109.599C263.429 109.678 264.007 109.796 264.574 109.953L264.713 109.996C265.211 110.158 265.688 110.378 266.134 110.651Z" fill="#2B9962"/>
<path d="M251.752 66.1451L251.534 66.364L251.494 66.5166C251.571 66.3953 251.662 66.2702 251.752 66.1451Z" fill="#2B9962"/>
<path d="M281.984 22.5443L295.875 136.931L293.122 137.414C293.122 137.414 281.355 126.505 281.715 118.144C281.773 105.236 275.211 102.016 274.299 92.6892C273.449 84.0061 278.243 78.5862 272.151 70.2274C266.059 61.8685 256.181 42.996 281.984 22.5443Z" fill="#34AB53"/>
<path d="M293.109 137.418L294.451 137.18C289.983 132.29 285.144 124.593 285.101 118.28C285.004 104.262 276.845 99.1149 276.693 87.945C276.553 76.7714 281.197 73.537 273.109 65.5939C268.511 61.0803 266.248 54.4173 265.146 49.4993C264.678 58.4558 268.947 65.7989 272.16 70.2112C278.252 78.57 273.459 83.9899 274.295 92.6768C275.203 101.991 281.77 105.224 281.711 118.132C281.356 126.506 293.109 137.418 293.109 137.418Z" fill="#2B9962"/>
<path d="M299.419 140.26L302.884 85.2996C302.884 85.2996 291.404 87.9448 288.037 99.822C284.669 111.699 294.033 112.337 291.239 117.016C288.445 121.695 286.328 125.457 298.061 140.348L299.419 140.26Z" fill="#34AB53"/>
<path d="M296.482 133.95C294.597 131.854 292.604 129.437 292.781 126.426C292.945 123.42 295.215 120.853 296.125 117.937C297.127 114.755 296.335 111.184 294.156 109.047C293.163 108.07 291.92 107.391 290.914 106.418C289.578 105.133 288.938 103.432 288.584 101.55C288.396 100.52 288.645 99.5878 288.134 99.4838C288.093 99.5939 288.06 99.7072 288.036 99.8225C284.668 111.7 294.033 112.337 291.238 117.016C288.54 121.54 286.456 125.222 297.025 139.032C297.86 138.844 298.696 138.613 299.528 138.369L299.593 137.434L296.482 133.95Z" fill="#2B9962"/>
<path d="M315.329 156.394L303.741 132.457L278.867 139.746L276.945 167.641" fill="#DCDDE2"/>
<path d="M278.336 147.382C278.336 147.382 277.908 157.581 282.006 160.677C287.633 164.946 295.421 162.227 315.328 156.394L276.931 167.645L278.336 147.382Z" fill="#C0C0D1"/>
<path d="M305.323 135.544C304.731 134.534 303.966 133.561 303.733 132.431L278.755 139.75C278.729 139.997 278.689 140.248 278.663 140.496C278.683 140.659 278.693 140.839 278.7 141.006C278.674 142.028 278.649 143.05 278.581 144.07C278.547 144.531 278.456 144.994 278.422 145.455C278.399 145.955 278.428 146.439 278.392 146.943C278.377 147.214 278.322 147.482 278.229 147.737C278.258 147.794 278.28 147.854 278.296 147.915L307.019 139.499C306.46 138.17 306.036 136.772 305.323 135.544Z" fill="#C0C0D1"/>
<path d="M250.78 102.722L250.357 101.761L258.267 76.2817L260.669 80.4807L250.78 102.722Z" fill="#68CC82"/>
<path d="M265.44 55.0335L265.294 54.0055L283.367 33.9595L283.735 37.0495L265.44 55.0335Z" fill="#68CC82"/>
<path d="M267.011 60.9277L266.724 60.1385L284.321 41.8939L284.601 44.1506L267.011 60.9277Z" fill="#68CC82"/>
<path d="M274.334 74.111L273.963 73.2333L286.385 58.8158L286.784 62.1508L274.334 74.111Z" fill="#68CC82"/>
<path d="M275.751 98.5619L275.454 97.7895L289.353 83.3055L289.662 85.8071L275.751 98.5619Z" fill="#68CC82"/>
<path d="M265.452 110.3L264.573 109.951L267.398 92.3163L269.913 96.7076L265.452 110.3Z" fill="#68CC82"/>
<path d="M267.744 113.108L267.32 111.951L271.844 100.115L273.321 102.697L267.744 113.108Z" fill="#68CC82"/>
<path d="M287.415 102.766L287.541 101.8L302.439 92.1229L302.319 94.0741L287.415 102.766Z" fill="#68CC82"/>
<path d="M287.549 107.023L287.395 106.209L302.157 96.7414L302.04 98.6072L287.549 107.023Z" fill="#68CC82"/>
<path d="M291.771 115.41C291.78 115.239 291.768 115.067 291.734 114.899C291.686 114.688 291.606 114.415 291.606 114.415L301.437 108.21L301.287 110.593L291.771 115.41Z" fill="#68CC82"/>
<path d="M292.68 132.824L292.232 132.067L300.253 127.012L300.082 129.753L292.68 132.824Z" fill="#68CC82"/>
</g>
<mask id="mask5_3060_2103" style="mask-type:luminance" maskUnits="userSpaceOnUse" x="225" y="89" width="201" height="179">
<path d="M387.754 89.5424L225.421 135.862L262.984 267.508L425.318 221.188L387.754 89.5424Z" fill="white"/>
</mask>
<g mask="url(#mask5_3060_2103)">
<path d="M285.417 234.062L418.081 195.824C418.476 197.197 418.308 198.67 417.615 199.92C416.922 201.171 415.761 202.096 414.387 202.492L292.09 237.746C290.716 238.141 289.24 237.975 287.989 237.284C286.738 236.593 285.812 235.434 285.417 234.062Z" fill="#211C1B"/>
<path d="M405.569 226.565C406.887 226.207 408.121 225.593 409.201 224.758C410.282 223.923 411.186 222.883 411.863 221.698C412.54 220.513 412.976 219.207 413.147 217.853C413.317 216.5 413.218 215.127 412.856 213.812C412.494 212.498 411.875 211.268 411.035 210.193C410.196 209.118 409.152 208.22 407.963 207.549C406.775 206.879 405.465 206.449 404.11 206.285C402.754 206.121 401.38 206.226 400.065 206.594C399.985 206.614 399.906 206.633 399.846 206.653L397.423 207.36L403.146 227.272L405.569 226.565Z" fill="#211C1B"/>
<path d="M409.355 222.308C412.142 217.304 410.342 210.995 405.333 208.215C400.325 205.436 394.006 207.239 391.219 212.242C388.432 217.246 390.232 223.556 395.24 226.336C400.248 229.115 406.568 227.312 409.355 222.308Z" fill="#C0C0D1"/>
<path d="M404.602 217.934C404.968 215.554 403.334 213.329 400.951 212.965C398.568 212.601 396.339 214.235 395.973 216.615C395.606 218.995 397.241 221.22 399.624 221.584C402.007 221.948 404.235 220.314 404.602 217.934Z" fill="#211C1B"/>
<path d="M319.88 251.259C321.198 250.902 322.432 250.287 323.513 249.452C324.593 248.617 325.497 247.577 326.174 246.392C326.851 245.207 327.287 243.901 327.458 242.548C327.628 241.194 327.529 239.821 327.167 238.506C326.805 237.192 326.186 235.962 325.346 234.887C324.507 233.812 323.463 232.914 322.274 232.243C321.086 231.573 319.776 231.143 318.421 230.979C317.065 230.815 315.691 230.92 314.375 231.288C314.296 231.308 314.217 231.328 314.157 231.347L311.734 232.054L317.457 251.966L319.88 251.259Z" fill="#211C1B"/>
<path d="M323.665 247.003C326.452 241.999 324.652 235.689 319.644 232.909C314.636 230.13 308.317 231.933 305.53 236.937C302.742 241.941 304.543 248.25 309.551 251.03C314.559 253.809 320.878 252.006 323.665 247.003Z" fill="#C0C0D1"/>
<path d="M317.856 244.869C319.46 243.07 319.3 240.314 317.499 238.714C315.699 237.114 312.939 237.276 311.336 239.076C309.733 240.875 309.893 243.631 311.693 245.231C313.494 246.83 316.253 246.669 317.856 244.869Z" fill="#211C1B"/>
<path d="M285.837 234.678C285.766 234.698 285.691 234.692 285.624 234.662C285.557 234.632 285.503 234.578 285.471 234.512L240.156 138.512C238.825 135.68 236.248 134.015 233.592 134.269C231.075 134.51 229.115 136.44 228.353 139.432C227.797 141.622 228.506 144.403 228.513 144.43C228.532 144.51 228.52 144.594 228.478 144.664C228.437 144.735 228.37 144.787 228.291 144.809C228.251 144.819 228.21 144.822 228.17 144.816C228.129 144.811 228.09 144.797 228.055 144.777C228.02 144.756 227.989 144.729 227.964 144.696C227.939 144.664 227.921 144.627 227.911 144.587C227.88 144.467 227.154 141.627 227.75 139.28C228.58 136.023 230.742 133.918 233.533 133.651C236.453 133.371 239.274 135.175 240.719 138.247L286.034 234.247C286.069 234.321 286.073 234.407 286.045 234.484C286.017 234.562 285.96 234.625 285.885 234.66C285.87 234.667 285.854 234.673 285.837 234.678Z" fill="#3B1554"/>
</g>
<mask id="mask6_3060_2103" style="mask-type:luminance" maskUnits="userSpaceOnUse" x="295" y="89" width="138" height="130">
<path d="M432.908 103.44L308.795 89.667L295.991 205.046L420.104 218.819L432.908 103.44Z" fill="white"/>
</mask>
<g mask="url(#mask6_3060_2103)">
<path d="M405.943 197C430.184 177.606 434.109 142.236 414.71 117.999C395.31 93.762 359.931 89.836 335.69 109.23C311.448 128.624 307.523 163.994 326.923 188.231C346.323 212.468 381.701 216.394 405.943 197Z" fill="#5B527D"/>
<path d="M375.021 106.561L395.989 102.893C394.813 102.291 393.588 101.748 392.361 101.227L374.625 104.333L375.021 106.561Z" fill="#7772AD"/>
<path d="M407.435 110.523L379.566 115.396L379.961 117.624L409.577 112.452C408.881 111.776 408.159 111.139 407.435 110.523Z" fill="#7772AD"/>
<path d="M416.791 120.791L390.449 125.404L390.844 127.632L418.169 122.849C417.731 122.158 417.273 121.465 416.791 120.791Z" fill="#7772AD"/>
<path d="M422.758 131.666L401.332 135.412L401.727 137.64L423.591 133.814C423.327 133.099 423.064 132.385 422.758 131.666Z" fill="#7772AD"/>
<path d="M406.886 148.662L426.456 145.245C426.371 144.658 426.286 144.07 426.183 143.459L426.105 143.001L406.491 146.434L406.886 148.662Z" fill="#7772AD"/>
<path d="M384.743 162.157L385.138 164.385L426.898 157.093C426.961 156.329 426.982 155.56 427.006 154.771L384.743 162.157Z" fill="#7772AD"/>
<path d="M386.777 173.731L387.173 175.959L424.63 169.41C424.87 168.602 425.086 167.812 425.305 167.001L386.777 173.731Z" fill="#7772AD"/>
<path d="M388.794 185.282L389.189 187.51L418.85 182.322C419.351 181.478 419.851 180.635 420.312 179.765L388.794 185.282Z" fill="#7772AD"/>
<path d="M390.829 196.857L391.224 199.085L406.776 196.357C407.862 195.449 408.932 194.497 409.94 193.517L390.829 196.857Z" fill="#7772AD"/>
<path d="M351.886 211.207C382.745 214.631 410.537 192.397 413.96 161.546C417.384 130.694 395.143 102.907 364.284 99.4829C333.425 96.0584 305.633 118.292 302.209 149.144C298.786 179.996 321.027 207.782 351.886 211.207Z" fill="#394CF9"/>
<path d="M348.397 100.01C343.249 100.914 338.249 102.521 333.539 104.785L304.906 173.66C309.07 185.776 317.259 196.1 328.11 202.915L370.632 100.55C363.33 98.8994 355.771 98.7157 348.397 100.01Z" fill="#94ACFF"/>
<path d="M357.84 211.588L397.756 115.53C393.517 111.309 388.628 107.796 383.276 105.122L340.237 208.671C345.91 210.584 351.854 211.569 357.84 211.588Z" fill="#94ACFF"/>
<path d="M381.001 183.975C396.817 171.322 399.377 148.247 386.721 132.434C374.064 116.622 350.983 114.061 335.168 126.713C319.353 139.366 316.792 162.441 329.448 178.254C342.105 194.066 365.186 196.627 381.001 183.975Z" fill="#3F69FF"/>
<path d="M375.74 123.236L347.772 190.558C353.177 192.139 358.872 192.456 364.418 191.484C365.074 191.364 365.73 191.244 366.369 191.08L389.249 136.02C385.907 130.679 381.257 126.28 375.74 123.236Z" fill="#7896FF"/>
<path d="M351.764 119.27C331.823 122.752 318.472 141.741 321.954 161.698C323.541 170.763 328.478 178.901 335.787 184.496L362.989 119.059C359.259 118.539 355.471 118.61 351.764 119.27Z" fill="#7896FF"/>
</g>
<mask id="mask7_3060_2103" style="mask-type:luminance" maskUnits="userSpaceOnUse" x="84" y="57" width="151" height="260">
<path d="M234.491 57.8135H84.1782V316.814H234.491V57.8135Z" fill="white"/>
</mask>
<g mask="url(#mask7_3060_2103)">
<path d="M226.222 145.03C226.222 145.03 225.958 146.256 227.07 146.708C227.07 146.708 231.063 144.672 233.097 141.241L228.972 142.052L226.222 145.03Z" fill="url(#paint0_linear_3060_2103)"/>
<path d="M154.172 161.676L131.041 181.979L91.0519 315.24C91.0048 315.394 90.9889 315.557 91.0052 315.718C91.0215 315.879 91.0696 316.035 91.1468 316.177C91.2239 316.319 91.3285 316.444 91.4545 316.545C91.5805 316.647 91.7254 316.722 91.8807 316.767C92.0819 316.824 92.2942 316.83 92.4982 316.783C92.7022 316.737 92.8914 316.641 93.0485 316.503L103.446 307.171C104.313 306.393 104.942 305.385 105.262 304.265C105.582 303.144 105.579 301.956 105.254 300.837L104.539 298.424C104.362 297.815 104.334 297.172 104.455 296.549C104.576 295.926 104.844 295.341 105.236 294.842C109.945 288.904 126.615 266.264 127.255 261.042C128.009 254.934 124.75 245.621 131.38 238.759C139.819 229.993 162.875 206.241 169.58 193.459C176.286 180.678 170.861 165.729 154.172 161.676Z" fill="#5B527D"/>
<path d="M131.041 181.979L133.659 179.679C133.659 179.679 129.798 198.7 127.989 204.902C125.861 212.216 118.778 226.034 117.648 233.575C114.295 255.669 108.418 257.365 101.637 287.471C101.505 288.018 99.7725 286.189 99.7725 286.189L131.041 181.979Z" fill="#8F9FC9"/>
<path d="M142.119 185.165C142.119 185.165 149.522 204.865 155.304 212.877L138.502 231.37C138.502 231.37 147.996 220.248 147.299 208.767C146.809 200.303 135.376 193.837 142.119 185.165Z" fill="#211C1B"/>
<path d="M133.509 132.946C124.581 134.322 116.99 139.733 116.99 139.733C106.667 146.048 101.469 151.043 101.469 151.043C94.1602 158.207 90.4683 164.673 90.4683 164.673C94.7441 169.838 99.0953 175.173 104.614 178.83C110.359 171.403 113.241 168.349 115.012 166.03L131.061 181.979L154.173 161.676L150.801 158.829C154.38 159.319 158.241 159.376 162.178 159.15C160.596 156.284 159.598 153.23 159.466 149.705C159.277 144.747 161.123 140.129 161.745 135.284C161.762 135.135 161.8 134.989 161.858 134.85C153.174 132.965 143.606 131.513 133.509 132.946Z" fill="url(#paint1_linear_3060_2103)"/>
<path d="M135.657 155.304C133.604 153.758 125.222 151.572 109.493 165.163C105.255 168.839 103.202 171.007 99.7928 175.06C95.2155 170.423 90.45 164.654 90.45 164.654C77.1892 186.315 88.7924 195.42 90.6383 196.796C99.416 203.375 109.833 198.078 114.673 184.788C119.232 172.252 122.359 166.445 124.167 164.164C124.688 163.502 125.356 162.97 126.117 162.61C126.879 162.25 127.714 162.072 128.556 162.091C127.765 163.354 130.006 164.277 131.664 164.768C132.118 164.906 132.605 164.886 133.047 164.712C133.488 164.537 133.857 164.218 134.094 163.806L135.073 162.147C135.073 162.166 137.71 156.85 135.657 155.304Z" fill="url(#paint2_linear_3060_2103)"/>
<path d="M93.0488 316.521L103.446 307.19C104.313 306.411 104.942 305.404 105.262 304.284C105.582 303.163 105.579 301.975 105.255 300.856L104.539 298.443C104.363 297.833 104.334 297.191 104.455 296.568C104.576 295.945 104.844 295.36 105.236 294.861C106.197 293.636 107.666 291.788 109.361 289.583C105.874 289.569 102.494 288.373 99.7733 286.189L91.0521 315.24C91.0069 315.395 90.993 315.559 91.0112 315.72C91.0293 315.882 91.0793 316.038 91.1581 316.18C91.2369 316.322 91.343 316.447 91.4703 316.547C91.5976 316.648 91.7436 316.723 91.8998 316.766C92.0968 316.821 92.3042 316.828 92.5043 316.785C92.7044 316.742 92.8911 316.652 93.0488 316.521Z" fill="url(#paint3_linear_3060_2103)"/>
<path d="M229.97 137.659C226.881 136.698 227.145 136.868 224.659 137.98C222.172 139.092 220.439 139.205 220.439 139.205C213.884 140.845 196.743 140.148 183.633 139.149C176.569 138.621 168.225 136.038 158.995 134.229C156.904 138.187 154.418 146.293 158.524 159.263C173.33 159.15 190.32 154.154 199.23 150.705C209.74 146.633 217.444 145.577 217.444 145.577C217.444 145.577 220.138 147.274 222.926 146.727C225.713 146.18 229.33 143.089 229.33 143.089C230.36 143.224 231.401 143.255 232.438 143.183C234.209 143.07 234.491 141.675 234.491 141.675L233.097 141.222C234.359 138.998 233.06 138.64 229.97 137.659Z" fill="url(#paint4_linear_3060_2103)"/>
<path d="M105.689 122.597C105.689 122.597 99.4728 111.455 106.386 104.424C113.299 97.3922 123.263 98.3348 129.215 88.6829C135.168 79.0309 134.226 65.9669 148.334 59.7082C162.443 53.4495 176.909 63.4408 177.888 78.7482C178.868 94.0744 166.944 98.8626 161.03 99.711C155.115 100.559 144.096 99.1831 139.236 109.137C134.376 119.109 131.268 122.389 124.582 123.992C117.895 125.594 112.357 118.713 105.689 122.597Z" fill="#211C1B"/>
<path d="M116.99 139.733L108.325 133.644C108.721 132.456 108.909 130.646 108.174 128.101C107.138 124.576 101.789 122.05 97.0422 126.48C93.8589 129.458 92.2766 133.681 92.4273 134.039L94.2921 134.869C94.2921 134.869 93.9531 140.788 97.984 140.675C99.539 140.635 101.073 140.302 102.505 139.695C104.012 141.09 106.008 143.88 107.817 145.784C104.671 148.121 102.542 150.063 101.431 151.043C104.2 152.288 111.245 154.719 117.819 150.779C124.393 146.84 123.922 139.242 123.413 136.113C121.18 137.149 119.032 138.359 116.99 139.733Z" fill="url(#paint5_linear_3060_2103)"/>
<path d="M107.509 123.748C108.25 122.396 107.756 120.701 106.406 119.96C105.056 119.219 103.361 119.713 102.621 121.064C101.88 122.415 102.375 124.111 103.725 124.852C105.075 125.593 106.769 125.099 107.509 123.748Z" fill="#34AB53"/>
<path d="M94.7065 132.983C94.7065 132.983 96.7409 129.025 100.998 131.758C101.017 131.758 98.4361 135.905 94.7065 132.983Z" fill="white"/>
<path d="M95.6308 129.402C95.4836 129.677 95.3515 129.96 95.2352 130.25C95.2171 130.3 95.2186 130.355 95.2396 130.404C95.2606 130.453 95.2994 130.493 95.3482 130.514C95.3967 130.533 95.4505 130.533 95.4989 130.514C96.4219 130.099 98.6634 129.289 100.735 130.194C100.777 130.213 100.823 130.217 100.868 130.207C100.912 130.197 100.951 130.172 100.98 130.137C100.999 130.118 101.014 130.095 101.023 130.07C101.033 130.045 101.037 130.018 101.035 129.991C101.033 129.965 101.026 129.938 101.013 129.915C101 129.891 100.983 129.87 100.961 129.854C100.491 129.458 99.0967 128.327 96.2524 128.93C96.1194 128.955 95.994 129.011 95.8861 129.093C95.7783 129.175 95.6909 129.28 95.6308 129.402Z" fill="black"/>
<path d="M97.3438 130.892C95.5732 131.306 94.7256 132.984 94.7256 132.984C95.9123 133.908 96.9671 134.115 97.8713 133.983C98.162 133.488 98.2686 132.907 98.1721 132.341C98.0756 131.775 97.7822 131.262 97.3438 130.892Z" fill="#211C1B"/>
<path d="M108.175 128.101C107.177 124.708 102.185 122.257 97.6079 126.009C97.7021 126.951 98.1165 128.214 100.094 128.082C101.309 127.972 102.469 127.529 103.447 126.801C103.184 127.679 102.977 128.573 102.826 129.477C102.637 130.703 103.296 131.966 104.238 131.74C104.238 131.74 104.389 130.382 105.218 129.647C105.839 129.1 106.857 129.44 107.101 130.345C107.21 130.78 107.142 131.241 106.913 131.627C106.824 131.781 106.766 131.951 106.744 132.128C106.721 132.305 106.734 132.485 106.781 132.657C106.828 132.829 106.909 132.989 107.019 133.13C107.129 133.27 107.266 133.387 107.422 133.474C107.697 133.625 108.016 133.678 108.326 133.625H108.382C108.721 132.456 108.929 130.646 108.175 128.101Z" fill="#211C1B"/>
<path d="M95.4033 136.66L98.6432 136.377C98.6432 136.377 98.6997 138.168 97.5318 138.224C96.364 138.243 95.4033 136.66 95.4033 136.66Z" fill="white"/>
<path d="M138.408 175.512C138.408 175.512 148.109 213.027 173.218 233.16C198.327 253.293 205.089 223.32 208.159 216.722C211.229 210.124 232.571 156.812 232.307 155.285C232.044 153.758 216.089 166.614 217.088 168.82C218.086 171.026 220.855 173.156 214.45 178.152C208.046 183.147 190.547 196.72 191.658 215.836C191.658 215.836 188.682 214.101 185.989 207.692C176.476 185.108 176.985 166.728 154.155 161.694L138.408 175.512Z" fill="#5B527D"/>
<path d="M138.408 175.512C138.408 175.512 148.109 213.027 173.218 233.16C198.327 253.293 205.089 223.32 208.159 216.722C211.229 210.124 232.571 156.812 232.307 155.285C232.044 153.758 216.089 166.614 217.088 168.82C218.086 171.026 220.855 173.156 214.45 178.152C208.046 183.147 190.547 196.72 191.658 215.836C191.658 215.836 188.682 214.101 185.989 207.692C176.476 185.108 176.985 166.728 154.155 161.694L138.408 175.512Z" fill="#5B527D"/>
<path d="M217.106 168.821C218.105 171.026 220.874 173.157 214.469 178.152C213.754 178.718 212.887 179.378 211.945 180.151C215.401 181.124 218.481 183.122 220.78 185.881C226.732 170.913 232.439 156.096 232.307 155.304C232.044 153.759 216.108 166.615 217.106 168.821Z" fill="url(#paint6_linear_3060_2103)"/>
<path d="M217.106 168.821C217.558 169.801 218.33 170.763 218.518 171.969C223.039 170.838 224.904 165.823 224.904 165.823C226.147 168.406 224.188 169.82 226.75 170.706C230.046 162.204 232.401 155.813 232.306 155.304C232.043 153.759 216.107 166.615 217.106 168.821Z" fill="#211C1B"/>
<path d="M90.4687 164.673C92.0133 167.01 96.9296 173.571 95.1966 176.568C94.3678 178.001 91.8626 178.925 90.6006 180.546C90.4324 180.738 90.3055 180.962 90.2277 181.206C90.1499 181.449 90.123 181.706 90.1485 181.96C90.3369 183.411 92.2205 183.882 93.1435 182.751C97.0991 177.812 99.8115 175.079 99.8115 175.079C99.8115 175.079 91.9756 166.633 90.4687 164.673Z" fill="#211C1B"/>
<path d="M102.544 139.714C102.544 139.714 104.013 138.979 104.767 138.281L106.066 143.729L102.544 139.714Z" fill="#211C1B"/>
<path d="M140.008 149.234L150.802 158.829L154.625 159.188L158.525 159.282L157.187 154.248C157.187 154.248 149.408 156.511 142.947 147.632C141.063 145.03 137.767 147.236 140.008 149.234Z" fill="#211C1B"/>
<path d="M131.399 238.778C129.326 240.46 127.386 242.301 125.597 244.283C118.986 251.616 130.174 260.438 109.436 289.338C116.141 280.308 126.746 265.17 127.274 261.042C128.027 254.934 124.768 245.621 131.399 238.778C133.207 236.893 135.675 234.348 138.519 231.351L131.399 238.778Z" fill="#211C1B"/>
<path d="M173.932 175.871C173.932 175.871 180.355 190.5 180.826 202.81C181.109 210.011 183.482 215.572 186.251 218.419C188.361 220.587 192.034 218.834 191.676 215.817C191.676 215.817 188.7 214.083 186.006 207.673C180.807 195.307 178.604 184.222 173.932 175.871Z" fill="#211C1B"/>
<path d="M104.539 298.443C104.443 298.112 104.392 297.769 104.388 297.425C99.9615 297.896 98.8125 304.174 98.8125 304.174C98.8125 304.174 97.833 303.552 97.4751 300.196C97.2868 298.349 96.0436 298.575 96.0436 298.575L95.4031 300.724L91.0331 315.239C90.9809 315.401 90.9639 315.573 90.9834 315.742C91.0029 315.911 91.0584 316.074 91.1461 316.22C91.2487 316.382 91.3868 316.519 91.55 316.62C91.7131 316.721 91.897 316.784 92.0879 316.804C92.22 316.817 92.3532 316.81 92.4835 316.785C92.693 316.731 92.8866 316.627 93.0486 316.484L99.9803 310.263L103.446 307.152C103.559 307.058 103.653 306.945 103.766 306.851C104.524 306.069 105.061 305.101 105.322 304.045C105.583 302.988 105.56 301.881 105.255 300.837L104.539 298.443Z" fill="#211C1B"/>
</g>
<defs>
<linearGradient id="paint0_linear_3060_2103" x1="226.011" y1="144.968" x2="233.545" y2="142.772" gradientUnits="userSpaceOnUse">
<stop stop-color="#C5DFFE"/>
<stop offset="0.18" stop-color="#B6CBFF"/>
<stop offset="0.37" stop-color="#B7D8FF"/>
<stop offset="0.56" stop-color="#E7BFFF"/>
<stop offset="0.77" stop-color="#FF88EC"/>
</linearGradient>
<linearGradient id="paint1_linear_3060_2103" x1="135.202" y1="180.771" x2="122.129" y2="135.987" gradientUnits="userSpaceOnUse">
<stop stop-color="#CCE0F4"/>
<stop offset="0.3" stop-color="#74BEE5"/>
<stop offset="0.58" stop-color="#1E9CD7"/>
<stop offset="0.71" stop-color="#1A97D4"/>
<stop offset="0.86" stop-color="#1089CB"/>
<stop offset="1" stop-color="#0075BE"/>
</linearGradient>
<linearGradient id="paint2_linear_3060_2103" x1="84.0361" y1="185.435" x2="140.048" y2="169.112" gradientUnits="userSpaceOnUse">
<stop stop-color="#ADA6FF"/>
<stop offset="0.18" stop-color="#AB96FF"/>
<stop offset="0.37" stop-color="#E1DCFF"/>
<stop offset="0.56" stop-color="#F5D7FF"/>
<stop offset="0.77" stop-color="#FFD3FD"/>
</linearGradient>
<linearGradient id="paint3_linear_3060_2103" x1="87.5747" y1="303.99" x2="111.526" y2="297.009" gradientUnits="userSpaceOnUse">
<stop stop-color="#E1E4FF"/>
<stop offset="0.18" stop-color="#CCCEFF"/>
<stop offset="0.37" stop-color="#849FFF"/>
<stop offset="0.56" stop-color="#FECCFF"/>
<stop offset="0.77" stop-color="#ECD8FF"/>
</linearGradient>
<linearGradient id="paint4_linear_3060_2103" x1="156.012" y1="150.692" x2="230.771" y2="128.905" gradientUnits="userSpaceOnUse">
<stop stop-color="#BDBBFF"/>
<stop offset="0.18" stop-color="#A0A4FF"/>
<stop offset="0.37" stop-color="#98C7FF"/>
<stop offset="0.56" stop-color="#F8DEFF"/>
<stop offset="0.77" stop-color="#E3D9FF"/>
</linearGradient>
<linearGradient id="paint5_linear_3060_2103" x1="94.7635" y1="142.052" x2="122.767" y2="133.891" gradientUnits="userSpaceOnUse">
<stop stop-color="#B5C1FF"/>
<stop offset="0.23" stop-color="#AEB1FF"/>
<stop offset="0.297315" stop-color="#AFB3FF"/>
<stop offset="0.48" stop-color="#B7C7FF"/>
<stop offset="0.73" stop-color="#A5A3FF"/>
<stop offset="1" stop-color="#F587FF"/>
</linearGradient>
<linearGradient id="paint6_linear_3060_2103" x1="210.496" y1="175.173" x2="235.939" y2="167.758" gradientUnits="userSpaceOnUse">
<stop stop-color="#91C4FF"/>
<stop offset="0.18" stop-color="#98BBFF"/>
<stop offset="0.247315" stop-color="#8EC2FF"/>
<stop offset="0.37" stop-color="#7CD0FF"/>
<stop offset="0.56" stop-color="#FEB5FF"/>
<stop offset="0.77" stop-color="#FFA3FB"/>
</linearGradient>
</defs>
</svg>
